<svg viewBox="0 0 330 200" xmlns="http://www.w3.org/2000/svg"><g><g><g><g><g><line x1="46" y1="169.57142857142884" x2="41" y2="169.57142857142884" style="visibility: inherit;" fill="rgb(0, 0, 0)" stroke="rgb(204, 204, 204)" stroke-width="1px"></line><line x1="46" y1="144.1428571428574" x2="41" y2="144.1428571428574" style="visibility: inherit;" fill="rgb(0, 0, 0)" stroke="rgb(204, 204, 204)" stroke-width="1px"></line><line x1="46" y1="118.71428571428594" x2="41" y2="118.71428571428594" style="visibility: inherit;" fill="rgb(0, 0, 0)" stroke="rgb(204, 204, 204)" stroke-width="1px"></line><line x1="46" y1="93.28571428571449" x2="41" y2="93.28571428571449" style="visibility: inherit;" fill="rgb(0, 0, 0)" stroke="rgb(204, 204, 204)" stroke-width="1px"></line><line x1="46" y1="67.85714285714303" x2="41" y2="67.85714285714303" style="visibility: inherit;" fill="rgb(0, 0, 0)" stroke="rgb(204, 204, 204)" stroke-width="1px"></line><line x1="46" y1="42.42857142857159" x2="41" y2="42.42857142857159" style="visibility: inherit;" fill="rgb(0, 0, 0)" stroke="rgb(204, 204, 204)" stroke-width="1px"></line><line x1="46" y1="17.000000000000142" x2="41" y2="17.000000000000142" style="visibility: inherit;" fill="rgb(0, 0, 0)" stroke="rgb(204, 204, 204)" stroke-width="1px"></line></g><g transform="translate(36, 0)"><text x="0" y="169.57142857142884" dx="0em" dy="0.3em" style="text-anchor: end; visibility: inherit; font-family: &quot;Helvetica Neue&quot;, sans-serif; font-size: 12px; font-weight: 200;" fill="rgb(50, 49, 63)" stroke="none" stroke-width="1px">0</text><text x="0" y="144.1428571428574" dx="0em" dy="0.3em" style="text-anchor: end; visibility: inherit; font-family: &quot;Helvetica Neue&quot;, sans-serif; font-size: 12px; font-weight: 200;" fill="rgb(50, 49, 63)" stroke="none" stroke-width="1px">0.5</text><text x="0" y="118.71428571428594" dx="0em" dy="0.3em" style="text-anchor: end; visibility: inherit; font-family: &quot;Helvetica Neue&quot;, sans-serif; font-size: 12px; font-weight: 200;" fill="rgb(50, 49, 63)" stroke="none" stroke-width="1px">1</text><text x="0" y="93.28571428571449" dx="0em" dy="0.3em" style="text-anchor: end; visibility: inherit; font-family: &quot;Helvetica Neue&quot;, sans-serif; font-size: 12px; font-weight: 200;" fill="rgb(50, 49, 63)" stroke="none" stroke-width="1px">1.5</text><text x="0" y="67.85714285714303" dx="0em" dy="0.3em" style="text-anchor: end; visibility: inherit; font-family: &quot;Helvetica Neue&quot;, sans-serif; font-size: 12px; font-weight: 200;" fill="rgb(50, 49, 63)" stroke="none" stroke-width="1px">2</text><text x="0" y="42.42857142857159" dx="0em" dy="0.3em" style="text-anchor: end; visibility: inherit; font-family: &quot;Helvetica Neue&quot;, sans-serif; font-size: 12px; font-weight: 200;" fill="rgb(50, 49, 63)" stroke="none" stroke-width="1px">2.5</text><text x="0" y="17.000000000000142" dx="0em" dy="0.3em" style="text-anchor: end; visibility: inherit; font-family: &quot;Helvetica Neue&quot;, sans-serif; font-size: 12px; font-weight: 200;" fill="rgb(50, 49, 63)" stroke="none" stroke-width="1px">3</text></g><line x1="46" y1="0" x2="46" y2="178" fill="rgb(0, 0, 0)" stroke="rgb(204, 204, 204)" stroke-width="1px"></line></g></g><g transform="translate(46, 0)" clip-path="url(#clip_0)"><clipPath id="clip_0"><rect width="284" height="178"></rect></clipPath><g><g><g><line x1="18.51143790849673" y1="0" x2="18.51143790849673" y2="178" fill="rgb(0, 0, 0)" stroke="rgb(60, 60, 60)" stroke-width="1px" opacity="0.25"></line><line x1="50.06699346405227" y1="0" x2="50.06699346405227" y2="178" fill="rgb(0, 0, 0)" stroke="rgb(60, 60, 60)" stroke-width="1px" opacity="0.25"></line><line x1="81.62254901960779" y1="0" x2="81.62254901960779" y2="178" fill="rgb(0, 0, 0)" stroke="rgb(60, 60, 60)" stroke-width="1px" opacity="0.25"></line><line x1="113.17810457516333" y1="0" x2="113.17810457516333" y2="178" fill="rgb(0, 0, 0)" stroke="rgb(60, 60, 60)" stroke-width="1px" opacity="0.25"></line><line x1="144.73366013071887" y1="0" x2="144.73366013071887" y2="178" fill="rgb(0, 0, 0)" stroke="rgb(60, 60, 60)" stroke-width="1px" opacity="0.25"></line><line x1="176.2892156862744" y1="0" x2="176.2892156862744" y2="178" fill="rgb(0, 0, 0)" stroke="rgb(60, 60, 60)" stroke-width="1px" opacity="0.25"></line><line x1="207.84477124182993" y1="0" x2="207.84477124182993" y2="178" fill="rgb(0, 0, 0)" stroke="rgb(60, 60, 60)" stroke-width="1px" opacity="0.25"></line><line x1="239.40032679738547" y1="0" x2="239.40032679738547" y2="178" fill="rgb(0, 0, 0)" stroke="rgb(60, 60, 60)" stroke-width="1px" opacity="0.25"></line><line x1="270.955882352941" y1="0" x2="270.955882352941" y2="178" fill="rgb(0, 0, 0)" stroke="rgb(60, 60, 60)" stroke-width="1px" opacity="0.25"></line></g><g><line x1="0" y1="169.57142857142884" x2="284" y2="169.57142857142884" fill="rgb(0, 0, 0)" stroke="rgb(60, 60, 60)" stroke-width="1px" opacity="0.25"></line><line x1="0" y1="144.1428571428574" x2="284" y2="144.1428571428574" fill="rgb(0, 0, 0)" stroke="rgb(60, 60, 60)" stroke-width="1px" opacity="0.25"></line><line x1="0" y1="118.71428571428594" x2="284" y2="118.71428571428594" fill="rgb(0, 0, 0)" stroke="rgb(60, 60, 60)" stroke-width="1px" opacity="0.25"></line><line x1="0" y1="93.28571428571449" x2="284" y2="93.28571428571449" fill="rgb(0, 0, 0)" stroke="rgb(60, 60, 60)" stroke-width="1px" opacity="0.25"></line><line x1="0" y1="67.85714285714303" x2="284" y2="67.85714285714303" fill="rgb(0, 0, 0)" stroke="rgb(60, 60, 60)" stroke-width="1px" opacity="0.25"></line><line x1="0" y1="42.42857142857159" x2="284" y2="42.42857142857159" fill="rgb(0, 0, 0)" stroke="rgb(60, 60, 60)" stroke-width="1px" opacity="0.25"></line><line x1="0" y1="17.000000000000142" x2="284" y2="17.000000000000142" fill="rgb(0, 0, 0)" stroke="rgb(60, 60, 60)" stroke-width="1px" opacity="0.25"></line></g></g></g><g><g><line x1="0" y1="169.57142857142884" x2="284" y2="169.57142857142884" fill="rgb(0, 0, 0)" stroke="rgb(153, 153, 153)" stroke-width="1.5px"></line></g></g><g><g><line x1="18.51143790849673" y1="0" x2="18.51143790849673" y2="178" fill="rgb(0, 0, 0)" stroke="rgb(153, 153, 153)" stroke-width="1.5px"></line></g></g><g><g><g><g><g><path style="fill: none;" stroke="rgb(255, 112, 67)" stroke-width="2px" d="M22.929215686274507,-74.71228871295534L23.560326797385617,6.8692338827979995L24.191437908496724,-14.250273762182246L24.822549019607834,31.850439507936073L25.453660130718944,48.995443129245984L26.08477124183006,58.470716479961936L26.696949019607835,84.29019547729855L27.32806013071895,76.03933968195356L27.95917124183006,109.242354300343L28.59028235294117,112.41537922839959L29.221393464052284,128.82570359749545L29.85250457516339,48.686386438681126L30.4836156862745,29.122401101367416L31.11472679738561,36.10397515420283L31.745837908496725,88.0249602591431L32.376949019607835,-15.137771840362689L33.008060130718945,-6.918199260508004L33.639171241830056,58.720933557187095L34.270282352941166,85.68991319107619L34.88246013071895,115.33291070548893L35.51357124183006,133.0575686089986L36.14468235294116,142.01575343085756L36.77579346405228,151.44605289383105L37.40690457516339,151.2138335749158L38.0380156862745,153.42622114752922L38.66912679738561,144.75895423606872L39.30023790849671,154.40230776317753L39.93134901960783,156.87275429113464L40.56246013071894,157.5148303684031L41.19357124183005,162.03006453272891L41.82468235294116,124.31441221937986L42.45579346405228,142.14241127864364L43.06797124183005,53.0265385670059L43.69908235294116,99.24885131709907L44.33019346405227,123.04509011166496L44.96130457516338,140.02846523741272L45.592415686274485,149.04419984321098L46.2235267973856,67.15764608324073L46.85463790849671,64.50922175491674L47.48574901960782,101.01647047257276L48.11686013071893,122.22545142595285L48.74797124183005,130.75892917216277L49.379082352941154,125.20141468665476L50.01019346405227,137.41349644628593L50.641304575163375,144.36892355356548L51.253482352941155,153.88915525345902L51.884593464052266,140.78755231692645L52.515704575163376,145.18143456660266L53.146815686274486,110.23600688863011L53.7779267973856,83.58300885729321L54.40903790849671,102.91196829949914L55.040149019607824,126.61540220816482L55.67126013071893,126.8250386838206L56.302371241830045,143.08001412041432L56.93348235294115,106.49527137246426L57.56459346405226,127.1909930411128L58.195704575163376,142.8686734090708L58.82681568627448,144.06310070202392L59.43899346405226,145.68319286663157L60.07010457516337,155.1136063850879L60.70121568627448,141.40404509151597L61.3323267973856,152.64797983724088L61.9634379084967,120.94705151754408L62.59454901960782,139.1790548415394L63.22566013071892,141.74799610682803L63.85677124183004,152.76438081141836L64.48788235294114,158.47548530709386L65.11899346405225,110.58341484366278L65.75010457516336,133.63509218666303L66.38121568627447,81.22495811787118L67.0123267973856,112.12707327029382L67.62450457516337,134.95819641143004L68.25561568627448,147.6279280789661L68.88672679738559,156.1166203248142L69.5178379084967,159.05604021203078L70.14894901960781,159.65089200833953L70.78006013071892,-17.567806992959504L71.41117124183003,57.17910885144819L72.04228235294114,87.00969178617594L72.67339346405225,116.68110907587348L73.30450457516336,136.98906814676582L73.93561568627447,146.07079815298704L74.56672679738558,139.17533291749686L75.19783790849671,146.4424619347775L75.81001568627447,112.68762213244163L76.44112679738559,65.178361548508L77.0722379084967,103.5665529093295L77.7033490196078,129.94778348248397L78.33446013071891,145.18155820768942L78.96557124183003,154.6853585696333L79.59668235294113,160.62073531825888L80.22779346405224,163.9992866325012L80.85890457516336,166.22193526075083L81.49001568627448,167.4838300363683L82.12112679738557,81.14473407877551L82.7522379084967,112.39107770399671L83.3833490196078,135.24283786734094L83.99552679738558,148.42449420251265L84.62663790849669,156.73273977799488L85.2577490196078,161.83183943215695L85.88886013071891,164.31614347601442L86.51997124183002,166.39532617001166L87.15108235294113,166.29287415136537L87.78219346405226,166.23377949657407L88.41330457516335,161.21727632678977L89.04441568627446,79.157470419051L89.67552679738557,111.69469227776301L90.30663790849668,134.633145758678L90.93774901960779,148.2120977779957L91.5688601307189,156.7347999963176L92.18103790849668,161.27564213506747L92.81214901960779,163.8629473625138L93.44326013071891,165.99722790760325L94.07437124183002,167.36215913661704L94.70548235294112,168.0664902538732L95.33659346405224,164.63623509470685L95.96770457516335,166.1953560383393L96.59881568627445,166.587732116656L97.22992679738557,127.1291416612639L97.86103790849668,144.01832754349394L98.4921490196078,146.84521828425773L99.12326013071889,155.7446466653092L99.75437124183001,160.9898234518921L100.36654901960779,153.00490655718448L100.9976601307189,137.09474260766805L101.62877124183001,150.06093361217347L102.25988235294112,157.8532585141234L102.89099346405224,62.41647715960407L103.52210457516334,105.08825561077371L104.15321568627445,130.290829277632L104.78432679738557,144.0437583000475L105.41543790849667,150.43635019487238L106.04654901960778,158.0842024988641L106.6776601307189,162.59184905756354L107.30877124183002,165.28790079021624L107.93988235294111,159.45327178516501L108.5520601307189,163.45448750695988L109.18317124183001,160.4067431459171L109.8142823529411,160.14604173715975L110.44539346405223,163.88788149894356L111.07650457516334,166.15848726118264L111.70761568627444,166.5797343855183L112.33872679738556,167.6735314184902L112.96983790849667,153.9268884520987L113.60094901960778,156.83026789791947L114.23206013071889,161.39481519475416L114.86317124183,150.32896653558865L115.49428235294111,157.4021877478042L116.12539346405222,122.02174717539853L116.73757124183,140.90925039264158L117.36868235294112,151.85234628225078L117.99979346405222,158.92625337220355L118.63090457516333,163.16628102374077L119.26201568627445,165.29173268197616L119.89312679738556,166.75478073293021L120.52423790849666,164.32514147617007L121.15534901960777,166.41005659154757L121.7864601307189,167.67284964183574L122.41757124182999,167.88147789292452L123.0486823529411,168.54415914873613L123.67979346405222,127.2242886323779L124.31090457516333,144.09093609446592L124.92308235294111,142.40182068770295L125.55419346405222,153.26440631643047L126.18530457516333,159.72512404498534L126.81641568627444,163.51910272550555L127.44752679738555,165.88534316606516L128.07863790849666,167.3595251222257L128.70974901960776,165.91764748997895L129.34086013071888,166.53805296280723L129.97197124183,141.36630662902022L130.6030823529411,152.39898188826604L131.2341934640522,157.52722636582192L131.86530457516332,162.2027115737134L132.49641568627445,164.79350150826275L133.1085934640522,166.6827401130702L133.73970457516333,166.48068768182102L134.37081568627443,167.67533124922943L135.00192679738555,168.4323733449619L135.63303790849665,168.85067379989366L136.26414901960777,169.08428581069802L136.8952601307189,169.09064319182838L137.52637124183,169.27240349322213L138.1574823529411,168.84975125643842L138.7885934640522,169.11234796368458L139.41970457516334,169.16808752184576L140.05081568627443,167.116132119518L140.68192679738553,168.07133256150584L141.29410457516332,168.66017689983607L141.9252156862744,164.33851576427395L142.55632679738554,166.01982366362517L143.18743790849666,167.35542370867324L143.81854901960776,166.8300759774798L144.44966013071888,167.8298863196074L145.08077124182998,168.49979848662366L145.71188235294107,168.92587025931525L146.3429934640522,168.94341147269304L146.97410457516332,169.18406446174095L147.60521568627442,169.33006649338117L148.23632679738554,169.27433711108182L148.86743790849667,169.39102024411852L149.4796156862744,169.44766320673907L150.11072679738552,169.48829364199136L150.74183790849665,169.51931656082272L151.37294901960774,169.5392883443481L152.00406013071887,169.54943807095745L152.63517124183,169.46810943245322L153.26628235294112,169.5070411311866L153.8973934640522,157.86330278627344L154.5285045751633,162.54278941102197L155.1596156862744,164.91335021260102L155.79072679738553,166.7311650783838L156.42183790849666,167.8528559335399L157.05294901960775,166.5547545713894L157.6651267973855,167.69813986964735L158.29623790849664,168.4149983801451L158.92734901960776,167.7254789671392L159.55846013071886,154.5829943112616L160.18957124182998,160.4222719111153L160.8206823529411,160.75781119267236L161.4517934640522,161.81500547170702L162.0829045751633,66.45917126049355L162.7140156862744,106.68225193668127L163.34512679738552,131.83712717170476L163.97623790849664,146.92995531041691L164.60734901960774,155.94906292536857L165.23846013071886,113.80152595320182L165.85063790849665,136.10457868401662L166.48174901960775,145.57088330572955L167.11286013071884,155.1670952169409L167.74397124182997,160.8224364340151L168.3750823529411,164.3138074937797L169.0061934640522,166.20449848552573L169.6373045751633,167.51666009857001L170.26841568627444,168.14207962499034L170.8995267973855,139.04054344672977L171.53063790849663,150.6121875923474L172.16174901960773,158.05460983149672L172.79286013071885,162.3597474706406L173.42397124182997,165.2315671059545L174.03614901960776,166.95121530542548L174.66726013071883,167.97272198110696L175.29837124182995,168.59735356481522L175.92948235294108,168.94610679744113L176.56059346405218,169.19113318595643L177.1917045751633,169.3173711259992L177.82281568627442,168.13994115181333L178.45392679738552,168.70279708854906L179.08503790849664,169.03039331050257L179.71614901960774,169.16690661880025L180.34726013071884,132.42237569997025L180.97837124182996,78.57730831313579L181.6094823529411,114.84132604535927L182.22166013071885,136.73257163691153L182.85277124182997,149.5426134864718L183.48388235294107,157.55382911308854L184.11499346405216,162.3506157531141L184.7461045751633,165.23766045005496L185.3772156862744,166.94432716166952L186.0083267973855,167.9544946603877L186.63943790849663,168.59298422822212L187.27054901960776,168.98300393327824L187.90166013071882,169.21296106009262L188.53277124182995,169.35581455196666L189.16388235294107,168.96462938015821L189.79499346405217,166.52987211923622L190.40717124182996,167.72537729899022L191.03828235294108,167.87942684064564L191.66939346405218,167.12152468697678L192.30050457516327,168.10032221313483L192.9316156862744,166.42223807101018L193.5627267973855,166.8621757060052L194.19383790849662,167.9233529176741L194.82494901960774,168.54214776963008L195.45606013071884,168.86805185409122L196.08717124182996,169.14478523145596L196.71828235294106,169.12305790209214L197.34939346405216,167.7466735517674L197.98050457516328,168.27497567559877L198.59268235294107,150.3856240074799L199.22379346405216,157.94639493845847L199.8549045751633,162.55204923898896L200.48601568627438,165.2948288301541L201.11712679738548,167.0038390879921L201.7482379084966,168.03085548090644L202.37934901960773,168.64534837591142L203.01046013071883,169.00562431310973L203.64157124182995,169.18505510370022L204.27268235294108,169.32797391479417L204.90379346405214,146.36018723322368L205.53490457516327,155.5431902600306L206.1660156862744,161.05017900935968L206.77819346405215,164.0874413245961L207.40930457516325,140.1347253625591L208.04041568627437,151.8399529979485L208.67152679738547,158.9192636122109L209.3026379084966,163.17912077195834L209.93374901960772,158.62691493972017L210.56486013071878,162.77105700374267L211.1959712418299,165.4885865686659L211.82708235294103,77.92764116413484L212.45819346405213,114.4005995474626L213.08930457516325,136.34180964041263L213.72041568627438,148.4907760918649L214.35152679738547,156.92209616136205L214.96370457516323,161.89625369465494L215.59481568627436,164.78487113943538L216.22592679738545,166.6990091007233L216.85703790849658,163.05085172660839L217.4881490196077,165.64530813766714L218.1192601307188,167.21450498147735L218.75037124182992,167.88048804922414L219.38148235294102,168.5548078093058L220.01259346405212,168.90161539411454L220.64370457516324,169.04172073183017L221.27481568627437,169.22384356144755L221.90592679738546,168.74023919002153L222.5370379084966,168.58959497798486L223.14921568627435,168.98178520247183L223.78032679738544,166.26692952864L224.41143790849657,167.57198654844805L225.0425490196077,168.074344599793L225.6736601307188,168.63445486952992L226.3047712418299,168.99508201421247L226.93588235294104,169.22410740118943L227.5669934640521,132.99846372573046L228.19810457516323,144.16720409647004L228.82921568627435,154.30877560904005L229.46032679738545,160.377150523418L230.09143790849657,164.05437673111285L230.7225490196077,165.53501398466042L231.33472679738549,167.14374028079357L231.96583790849655,166.57996757458673L232.59694901960768,167.77371950610816L233.2280601307188,168.48782206403402L233.8591712418299,168.84447764481L234.49028235294102,169.12929237389088L235.12139346405215,169.20304310621938L235.75250457516324,169.3470410126575L236.38361568627434,169.42836168601607L237.01472679738544,169.4830081789507L237.64583790849656,169.38678301318805L238.27694901960768,168.9426004432017L238.90806013071878,166.81676047867225L239.52023790849657,167.91858891485413L240.15134901960766,168.57715906659882L240.7824601307188,168.9724418109834L241.41357124182989,169.20295709970398L242.044682352941,169.35032628793354L242.67579346405213,169.24793457280907L243.30690457516323,168.8921072577062L243.93801568627435,166.59880391412437L244.56912679738542,166.61880143504L245.20023790849655,161.25739623490804L245.83134901960767,155.59628911162014L246.46246013071877,161.07483104928247L247.0935712418299,117.63806688823652L247.70574901960768,138.37248453776206L248.3368601307188,150.8094102390845L248.96797124182987,158.31338335222594L249.599082352941,142.1460511207804L250.23019346405212,153.0871693120819L250.86130457516322,159.5945991685132L251.49241568627434,163.58173214427907L252.12352679738547,165.97244049244784L252.75463790849656,167.407166208485L253.38574901960766,168.27033939358301L254.01686013071878,168.7507713154189L254.64797124182988,169.02907803234575L255.279082352941,156.5603288122926L255.8912601307188,161.72721912488265L256.5223712418299,164.79721954735226L257.153482352941,166.58662030263022L257.7845934640521,167.77650831439072L258.4157045751632,147.246699350294L259.04681568627433,154.88266763350936L259.67792679738545,160.75745419164312L260.3090379084966,164.27433313684702L260.94014901960765,159.70732645332762L261.57126013071877,163.64932001401678L262.2023712418299,166.01661140015125L262.83348235294096,167.40021265918264L263.4645934640521,168.26677837850355" fill="none"></path></g></g></g></g><g opacity="0.2"><g><g><g><path style="fill: none;" stroke="rgb(255, 112, 67)" stroke-width="2px" d="M21.666993464052283,-30.33183670043934L22.298104575163393,55.379506383623564L22.929215686274507,24.77295207977309L23.560326797385617,127.18613331658523L24.191437908496724,-45.61028126307886L24.822549019607834,100.58337933676604L25.453660130718944,74.61964620862707L26.08477124183006,72.652688094548L26.696949019607835,122.96883092607793L27.32806013071895,63.67275456019827L27.95917124183006,159.02345888955278L28.59028235294117,117.17357390267532L29.221393464052284,153.43702357155962L29.85250457516339,-71.51038088117318L30.4836156862745,-0.2217886788503165L31.11472679738561,46.575953347342505L31.745837908496725,165.90472943442234L32.376949019607835,-169.87983322143555L33.008060130718945,5.4110622406007L33.639171241830056,157.17916624886675L34.270282352941166,126.14326763153099L34.88246013071895,159.7973311288019L35.51357124183006,159.64452825273813L36.14468235294116,155.45302241189165L36.77579346405228,165.59149687630816L37.40690457516339,150.86550467354937L38.0380156862745,156.74480206625827L38.66912679738561,131.75805490357558L39.30023790849671,168.86733736310714L39.93134901960783,160.57842397689845L40.56246013071894,158.47794446774918L41.19357124183005,168.80291570935958L41.82468235294116,67.74093409947004L42.45579346405228,168.88440976824106L43.06797124183005,-80.64727020263666L43.69908235294116,168.58232034955734L44.33019346405227,158.73944827488518L44.96130457516338,165.50352791377503L45.592415686274485,162.56780174800355L46.2235267973856,-55.67218453543518L46.85463790849671,60.536585262843715L47.48574901960782,155.7773435456415L48.11686013071893,154.0389228548325L48.74797124183005,143.55914579119025L49.379082352941154,116.86514295850503L50.01019346405227,155.7316190855846L50.641304575163375,154.8020642144342L51.253482352941155,168.16950280325779L51.884593464052266,121.13514791216191L52.515704575163376,151.77225794111004L53.146815686274486,57.81786537170426L53.7779267973856,43.603511810302905L54.40903790849671,131.9054074628015L55.040149019607824,162.17055307115854L55.67126013071893,127.13949339730422L56.302371241830045,167.46247727530368L56.93348235294115,51.61815725054075L57.56459346405226,158.2345755440851L58.195704575163376,166.38519396100753L58.82681568627448,145.8547416414536L59.43899346405226,148.11333111354307L60.07010457516337,169.2592266627723L60.70121568627448,120.83970315115815L61.3323267973856,169.51388195582825L61.9634379084967,73.39565903799893L62.59454901960782,166.52705982753236L63.22566013071892,145.601408004761L63.85677124183004,169.28895786830384L64.48788235294114,167.04214205060714L65.11899346405225,38.74530914851613L65.75010457516336,168.21260820116342L66.38121568627447,2.6097570146834244L67.0123267973856,158.48024599892778L67.62450457516337,169.20488112313433L68.25561568627448,166.63252558027023L68.88672679738559,168.84965869358635L69.5178379084967,163.46517004285568L70.14894901960781,160.54316970280266L70.78006013071892,-283.39585549490806L71.41117124183003,169.2994826180597L72.04228235294114,131.75556618826752L72.67339346405225,161.18823501041985L73.30450457516336,167.45100675310434L73.93561568627447,159.6933931623189L74.56672679738558,128.83213506426154L75.19783790849671,157.3431554606985L75.81001568627447,62.05536242893781L76.44112679738559,-6.085529327392464L77.0722379084967,161.14883995056178L77.7033490196078,169.51962934221567L78.33446013071891,168.0322202954976L78.96557124183003,168.94105911254908L79.59668235294113,169.52380044119727L80.22779346405224,169.06711360386467L80.85890457516336,169.55590820312526L81.49001568627448,169.37667219979448L82.12112679738557,-48.363909857613606L82.7522379084967,159.26059314182854L83.3833490196078,169.52047811235727L83.99552679738558,168.19697870527023L84.62663790849669,169.19510814121818L85.2577490196078,169.4804889134001L85.88886013071891,168.04259954180063L86.51997124183002,169.51410021100753L87.15108235294113,166.13919612339592L87.78219346405226,166.14513751438713L88.41330457516335,153.6925215721133L89.04441568627446,-43.93223844255709L89.67552679738557,160.50052506583103L90.30663790849668,169.0408259800505L90.93774901960779,168.58052580697222L91.5688601307189,169.5188533238005L92.18103790849668,168.08690534319223L92.81214901960779,167.7439052036833L93.44326013071891,169.19864872523743L94.07437124183002,169.4095559801377L94.70548235294112,169.12298692975753L95.33659346405224,159.4908523559573L95.96770457516335,168.53403745378793L96.59881568627445,167.17629623413112L97.22992679738557,67.94125597817575L97.86103790849668,169.352106366839L98.4921490196078,151.08555439540342L99.12326013071889,169.09378923688644L99.75437124183001,168.85758863176645L100.36654901960779,141.02753121512302L100.9976601307189,113.22949668339342L101.62877124183001,169.51022011893164L102.25988235294112,169.54174586704826L102.89099346405224,-80.73869487217485L103.52210457516334,169.09592328752817L104.15321568627445,168.09468977791948L104.78432679738557,164.67315183367074L105.41543790849667,160.02523803710963L106.04654901960778,169.5559809548517L106.6776601307189,169.35331889561272L107.30877124183002,169.3319783891953L107.93988235294111,150.70132827758815L108.5520601307189,169.4563110896522L109.18317124183001,155.83512660435292L109.8142823529411,159.7549896240237L110.44539346405223,169.50064114161927L111.07650457516334,169.56439590454127L111.70761568627444,167.21160507202174L112.33872679738556,169.3142269679481L112.96983790849667,133.30692400251138L113.60094901960778,161.18533706665065L114.23206013071889,168.2416361400062L114.86317124183,133.73019354684035L115.49428235294111,168.0120195661275L116.12539346405222,68.95108631679007L116.73757124183,169.24050521850612L117.36868235294112,168.2669901166646L117.99979346405222,169.53711400713266L118.63090457516333,169.5263225010466L119.26201568627445,168.47991016932923L119.89312679738556,168.94935280936133L120.52423790849666,160.68068259102984L121.15534901960777,169.53742926461382L121.7864601307189,169.567039217268L122.41757124182999,168.19442026955767L123.0486823529411,169.53818103245354L123.67979346405222,65.24448285784058L124.31090457516333,169.3909072875979L124.92308235294111,139.8681475775585L125.55419346405222,169.55828475952174L126.18530457516333,169.41620063781764L126.81641568627444,169.21007074628585L127.44752679738555,169.43470382690455L128.07863790849666,169.57079805646651L128.70974901960776,163.7548310416088L129.34086013071888,167.46866117204965L129.97197124183,103.60868712833971L130.6030823529411,168.94799477713477L131.2341934640522,165.21959308215577L131.86530457516332,169.21593938555063L132.49641568627445,168.67968641008676L133.1085934640522,169.51659802028138L133.73970457516333,166.17760903494724L134.37081568627443,169.46729660034205L135.00192679738555,169.56793648856055L135.63303790849665,169.47812448229135L136.26414901960777,169.43470382690455L136.8952601307189,169.10017926352393L137.52637124183,169.54504394531276L138.1574823529411,168.21577290126282L138.7885934640522,169.50624302455384L139.41970457516334,169.25169685908753L140.05081568627443,164.03819901602634L140.68192679738553,169.50413322448756L141.29410457516332,169.54344340733147L141.9252156862744,157.8560240609308L142.55632679738554,168.54178551265198L143.18743790849666,169.35882377624537L143.81854901960776,166.04205438068962L144.44966013071888,169.32960183279883L145.08077124182998,169.504666737148L145.71188235294107,169.56497791835267L146.3429934640522,168.96972329275977L146.97410457516332,169.54504394531276L147.60521568627442,169.54906954084151L148.23632679738554,169.1907430376328L148.86743790849667,169.56604494367355L149.4796156862744,169.53262765066992L150.11072679738552,169.54923929486984L150.74183790849665,169.56585093906975L151.37294901960774,169.56924601963615L152.00406013071887,169.5646626608715L152.63517124183,169.34611647469683L153.26628235294112,169.56543867928667L153.8973934640522,140.3976952689037L154.5285045751633,169.5620193481448L155.1596156862744,168.46919141496957L155.79072679738553,169.45788737705803L156.42183790849666,169.53539221627398L157.05294901960775,164.60760252816362L157.6651267973855,169.4132178170343L158.29623790849664,169.49028614589173L158.92734901960776,166.69119984763034L159.55846013071886,134.86926732744513L160.18957124182998,169.18118831089592L160.8206823529411,161.26112011500794L161.4517934640522,163.40079689025904L162.0829045751633,-76.57458005632665L162.7140156862744,167.01687295096286L163.34512679738552,169.56944002423995L163.97623790849664,169.5691975184852L164.60734901960774,169.47772434779603L165.23846013071886,50.58022049495169L165.85063790849665,169.55915778023882L166.48174901960775,159.77034023829896L167.11286013071884,169.56141308375794L167.74397124182997,169.3054482596264L168.3750823529411,169.5508640834266L169.0061934640522,169.0405349731448L169.6373045751633,169.48490251813644L170.26841568627444,169.0802089146208L170.8995267973855,95.38823917933892L171.53063790849663,167.96965381077385L172.16174901960773,169.2182431902207L172.79286013071885,168.81745392935645L173.42397124182997,169.53929655892534L174.03614901960776,169.53068760463196L174.66726013071883,169.50498199462916L175.29837124182995,169.53430094037765L175.92948235294108,169.46923664638L176.56059346405218,169.55867276872934L177.1917045751633,169.50672803606332L177.82281568627442,166.3737961905346L178.45392679738552,169.5470809936526L179.08503790849664,169.52178764343287L179.71614901960774,169.3716765812468L180.34726013071884,77.30557932172522L180.97837124182996,-2.190292767115892L181.6094823529411,169.23735264369446L182.22166013071885,169.56944002423995L182.85277124182997,168.75767626081222L183.48388235294107,169.57065255301367L184.11499346405216,169.54579571315247L184.7461045751633,169.56822749546623L185.3772156862744,169.50432722909136L186.0083267973855,169.46974590846497L186.63943790849663,169.55071857997376L187.27054901960776,169.56803349086243L187.90166013071882,169.55789675031417L188.53277124182995,169.57009478977776L189.16388235294107,168.37785162244552L189.79499346405217,162.87773622785323L190.40717124182996,169.51863506862122L191.03828235294108,168.11050115312875L191.66939346405218,165.98467145647348L192.30050457516327,169.56851850237192L192.9316156862744,163.90511185782321L193.5627267973855,167.52208215849765L194.19383790849662,169.51511873517745L194.82494901960774,169.4703400475641L195.45606013071884,169.35690798078292L196.08717124182996,169.55988529750306L196.71828235294106,169.09046690804644L197.34939346405216,165.68209702628025L197.98050457516328,169.06742886134583L198.59268235294107,123.55159650530156L199.22379346405216,169.28755133492632L199.8549045751633,169.46053068978472L200.48601568627438,169.40899821690178L201.11712679738548,169.56735447474915L201.7482379084966,169.57138007027788L202.37934901960773,169.56708771841895L203.01046013071883,169.54603821890723L203.64157124182995,169.45420128958594L204.27268235294108,169.5423521314351L204.90379346405214,111.90850721086795L205.53490457516327,169.31769480024093L206.1660156862744,169.31066213335336L206.77819346405215,168.64333479745073L207.40930457516325,104.20565141950357L208.04041568627437,169.39779445103264L208.67152679738547,169.5382295336045L209.3026379084966,169.5689065115795L209.93374901960772,151.7986061913629L210.56486013071878,168.9872700997764L211.1959712418299,169.56488091605078L211.82708235294103,-53.41377694266174L212.45819346405213,169.11003712245423L213.08930457516325,169.25362477983774L213.72041568627438,166.71422576904322L214.35152679738547,169.56907626560783L214.96370457516323,169.3574899945943L215.59481568627436,169.117797306606L216.22592679738545,169.57021604265512L216.85703790849658,157.57861566543605L217.4881490196077,169.5369927542553L218.1192601307188,169.56830024719264L218.75037124182992,168.8794626508443L219.38148235294102,169.56628744942827L220.01259346405212,169.4218267713277L220.64370457516324,169.25187873840358L221.27481568627437,169.49702780587359L221.90592679738546,168.01483263288253L222.5370379084966,168.36362865992982L223.14921568627435,169.57007053920228L223.78032679738544,162.1946460178923L224.41143790849657,169.52957207816016L225.0425490196077,168.8278816768104L225.6736601307188,169.4746202741353L226.3047712418299,169.53602273123633L226.93588235294104,169.56764548165484L227.5669934640521,78.65999821254205L228.19810457516323,160.92031465257944L228.82921568627435,169.52113287789507L229.46032679738545,169.4797128949849L230.09143790849657,169.57021604265512L230.7225490196077,167.75596986498178L231.33472679738549,169.5568297249933L231.96583790849655,165.7343085152765L232.59694901960768,169.56434740339034L233.2280601307188,169.55897590092277L233.8591712418299,169.37946101597404L234.49028235294102,169.55651446751213L235.12139346405215,169.31366920471217L235.75250457516324,169.5630378723147L236.38361568627434,169.55034269605392L237.01472679738544,169.56497791835267L237.64583790849656,169.24244526454407L238.27694901960768,168.27632658822222L238.90806013071878,163.62800053187806L239.52023790849657,169.57133156912695L240.15134901960766,169.56501429421587L240.7824601307188,169.56536592756026L241.41357124182989,169.54873003278487L242.044682352941,169.57138007027788L242.67579346405213,169.09434700012233L243.30690457516323,168.3583662850519L243.93801568627435,163.15884889875167L244.56912679738542,166.6487977164135L245.20023790849655,153.2152884347101L245.83134901960767,147.1046284266883L246.46246013071877,169.29264395577593L247.0935712418299,52.48292064666764L247.70574901960768,169.47411101205034L248.3368601307188,169.4647987910682L248.96797124182987,169.56934302193804L249.599082352941,117.89505277361211L250.23019346405212,169.49884659903418L250.86130457516322,169.35574395316016L251.49241568627434,169.56243160792786L252.12352679738547,169.55850301470102L252.75463790849656,169.55925478254073L253.38574901960766,169.56509917123003L254.01686013071878,169.4714191981727L254.64797124182988,169.44653810773605L255.279082352941,137.85720498221286L255.8912601307188,169.4775545937677L256.5223712418299,169.4022201810567L257.153482352941,169.27072143554713L257.7845934640521,169.5613403320315L258.4157045751632,116.45198590414887L259.04681568627433,166.33662005833244L259.67792679738545,169.56963402884375L260.3090379084966,169.54965155465288L260.94014901960765,152.85681642804852L261.57126013071877,169.5623103550505L262.2023712418299,169.56754847935295L262.83348235294096,169.47561454772975L263.4645934640521,169.5666269574849" fill="none"></path></g></g></g></g></g></g><g transform="translate(46, 178)" clip-path="url(#clip_1)"><clipPath id="clip_1"><rect width="284" height="22"></rect></clipPath><g><g><line x1="18.51143790849673" y1="0" x2="18.51143790849673" y2="5" style="visibility: inherit;" fill="rgb(0, 0, 0)" stroke="rgb(204, 204, 204)" stroke-width="1px"></line><line x1="50.06699346405227" y1="0" x2="50.06699346405227" y2="5" style="visibility: inherit;" fill="rgb(0, 0, 0)" stroke="rgb(204, 204, 204)" stroke-width="1px"></line><line x1="81.62254901960779" y1="0" x2="81.62254901960779" y2="5" style="visibility: inherit;" fill="rgb(0, 0, 0)" stroke="rgb(204, 204, 204)" stroke-width="1px"></line><line x1="113.17810457516333" y1="0" x2="113.17810457516333" y2="5" style="visibility: inherit;" fill="rgb(0, 0, 0)" stroke="rgb(204, 204, 204)" stroke-width="1px"></line><line x1="144.73366013071887" y1="0" x2="144.73366013071887" y2="5" style="visibility: inherit;" fill="rgb(0, 0, 0)" stroke="rgb(204, 204, 204)" stroke-width="1px"></line><line x1="176.2892156862744" y1="0" x2="176.2892156862744" y2="5" style="visibility: inherit;" fill="rgb(0, 0, 0)" stroke="rgb(204, 204, 204)" stroke-width="1px"></line><line x1="207.84477124182993" y1="0" x2="207.84477124182993" y2="5" style="visibility: inherit;" fill="rgb(0, 0, 0)" stroke="rgb(204, 204, 204)" stroke-width="1px"></line><line x1="239.40032679738547" y1="0" x2="239.40032679738547" y2="5" style="visibility: inherit;" fill="rgb(0, 0, 0)" stroke="rgb(204, 204, 204)" stroke-width="1px"></line><line x1="270.955882352941" y1="0" x2="270.955882352941" y2="5" style="visibility: inherit;" fill="rgb(0, 0, 0)" stroke="rgb(204, 204, 204)" stroke-width="1px"></line></g><g transform="translate(0, 8)"><text x="18.51143790849673" y="0" dx="0em" dy="0.95em" style="text-anchor: middle; visibility: inherit; font-family: &quot;Helvetica Neue&quot;, sans-serif; font-size: 12px; font-weight: 200;" fill="rgb(50, 49, 63)" stroke="none" stroke-width="1px">0</text><text x="50.06699346405227" y="0" dx="0em" dy="0.95em" style="text-anchor: middle; visibility: inherit; font-family: &quot;Helvetica Neue&quot;, sans-serif; font-size: 12px; font-weight: 200;" fill="rgb(50, 49, 63)" stroke="none" stroke-width="1px">5k</text><text x="81.62254901960779" y="0" dx="0em" dy="0.95em" style="text-anchor: middle; visibility: inherit; font-family: &quot;Helvetica Neue&quot;, sans-serif; font-size: 12px; font-weight: 200;" fill="rgb(50, 49, 63)" stroke="none" stroke-width="1px">10k</text><text x="113.17810457516333" y="0" dx="0em" dy="0.95em" style="text-anchor: middle; visibility: inherit; font-family: &quot;Helvetica Neue&quot;, sans-serif; font-size: 12px; font-weight: 200;" fill="rgb(50, 49, 63)" stroke="none" stroke-width="1px">15k</text><text x="144.73366013071887" y="0" dx="0em" dy="0.95em" style="text-anchor: middle; visibility: inherit; font-family: &quot;Helvetica Neue&quot;, sans-serif; font-size: 12px; font-weight: 200;" fill="rgb(50, 49, 63)" stroke="none" stroke-width="1px">20k</text><text x="176.2892156862744" y="0" dx="0em" dy="0.95em" style="text-anchor: middle; visibility: inherit; font-family: &quot;Helvetica Neue&quot;, sans-serif; font-size: 12px; font-weight: 200;" fill="rgb(50, 49, 63)" stroke="none" stroke-width="1px">25k</text><text x="207.84477124182993" y="0" dx="0em" dy="0.95em" style="text-anchor: middle; visibility: inherit; font-family: &quot;Helvetica Neue&quot;, sans-serif; font-size: 12px; font-weight: 200;" fill="rgb(50, 49, 63)" stroke="none" stroke-width="1px">30k</text><text x="239.40032679738547" y="0" dx="0em" dy="0.95em" style="text-anchor: middle; visibility: inherit; font-family: &quot;Helvetica Neue&quot;, sans-serif; font-size: 12px; font-weight: 200;" fill="rgb(50, 49, 63)" stroke="none" stroke-width="1px">35k</text><text x="270.955882352941" y="0" dx="0em" dy="0.95em" style="text-anchor: middle; visibility: inherit; font-family: &quot;Helvetica Neue&quot;, sans-serif; font-size: 12px; font-weight: 200;" fill="rgb(50, 49, 63)" stroke="none" stroke-width="1px">40k</text></g><line x1="0" y1="0" x2="284" y2="0" fill="rgb(0, 0, 0)" stroke="rgb(204, 204, 204)" stroke-width="1px"></line></g></g></g></g></svg>