<svg viewBox="0 0 330 200" xmlns="http://www.w3.org/2000/svg"><g><g><g><g><g><line x1="58" y1="178" x2="53" y2="178" style="visibility: inherit;" fill="rgb(0, 0, 0)" stroke="rgb(204, 204, 204)" stroke-width="1px"></line><line x1="58" y1="158.22222222222226" x2="53" y2="158.22222222222226" style="visibility: inherit;" fill="rgb(0, 0, 0)" stroke="rgb(204, 204, 204)" stroke-width="1px"></line><line x1="58" y1="138.44444444444446" x2="53" y2="138.44444444444446" style="visibility: inherit;" fill="rgb(0, 0, 0)" stroke="rgb(204, 204, 204)" stroke-width="1px"></line><line x1="58" y1="118.66666666666667" x2="53" y2="118.66666666666667" style="visibility: inherit;" fill="rgb(0, 0, 0)" stroke="rgb(204, 204, 204)" stroke-width="1px"></line><line x1="58" y1="98.88888888888893" x2="53" y2="98.88888888888893" style="visibility: inherit;" fill="rgb(0, 0, 0)" stroke="rgb(204, 204, 204)" stroke-width="1px"></line><line x1="58" y1="79.11111111111113" x2="53" y2="79.11111111111113" style="visibility: inherit;" fill="rgb(0, 0, 0)" stroke="rgb(204, 204, 204)" stroke-width="1px"></line><line x1="58" y1="59.333333333333385" x2="53" y2="59.333333333333385" style="visibility: inherit;" fill="rgb(0, 0, 0)" stroke="rgb(204, 204, 204)" stroke-width="1px"></line><line x1="58" y1="39.5555555555556" x2="53" y2="39.5555555555556" style="visibility: inherit;" fill="rgb(0, 0, 0)" stroke="rgb(204, 204, 204)" stroke-width="1px"></line><line x1="58" y1="19.7777777777778" x2="53" y2="19.7777777777778" style="visibility: inherit;" fill="rgb(0, 0, 0)" stroke="rgb(204, 204, 204)" stroke-width="1px"></line><line x1="58" y1="0" x2="53" y2="0" style="visibility: inherit;" fill="rgb(0, 0, 0)" stroke="rgb(204, 204, 204)" stroke-width="1px"></line></g><g transform="translate(48, 0)"><text x="0" y="178" dx="0em" dy="0.3em" style="text-anchor: end; visibility: hidden; font-family: &quot;Helvetica Neue&quot;, sans-serif; font-size: 12px; font-weight: 200;" fill="rgb(50, 49, 63)" stroke="none" stroke-width="1px">0.65</text><text x="0" y="158.22222222222226" dx="0em" dy="0.3em" style="text-anchor: end; visibility: inherit; font-family: &quot;Helvetica Neue&quot;, sans-serif; font-size: 12px; font-weight: 200;" fill="rgb(50, 49, 63)" stroke="none" stroke-width="1px">0.7</text><text x="0" y="138.44444444444446" dx="0em" dy="0.3em" style="text-anchor: end; visibility: hidden; font-family: &quot;Helvetica Neue&quot;, sans-serif; font-size: 12px; font-weight: 200;" fill="rgb(50, 49, 63)" stroke="none" stroke-width="1px">0.75</text><text x="0" y="118.66666666666667" dx="0em" dy="0.3em" style="text-anchor: end; visibility: inherit; font-family: &quot;Helvetica Neue&quot;, sans-serif; font-size: 12px; font-weight: 200;" fill="rgb(50, 49, 63)" stroke="none" stroke-width="1px">0.8</text><text x="0" y="98.88888888888893" dx="0em" dy="0.3em" style="text-anchor: end; visibility: hidden; font-family: &quot;Helvetica Neue&quot;, sans-serif; font-size: 12px; font-weight: 200;" fill="rgb(50, 49, 63)" stroke="none" stroke-width="1px">0.85</text><text x="0" y="79.11111111111113" dx="0em" dy="0.3em" style="text-anchor: end; visibility: inherit; font-family: &quot;Helvetica Neue&quot;, sans-serif; font-size: 12px; font-weight: 200;" fill="rgb(50, 49, 63)" stroke="none" stroke-width="1px">0.9</text><text x="0" y="59.333333333333385" dx="0em" dy="0.3em" style="text-anchor: end; visibility: hidden; font-family: &quot;Helvetica Neue&quot;, sans-serif; font-size: 12px; font-weight: 200;" fill="rgb(50, 49, 63)" stroke="none" stroke-width="1px">0.95</text><text x="0" y="39.5555555555556" dx="0em" dy="0.3em" style="text-anchor: end; visibility: inherit; font-family: &quot;Helvetica Neue&quot;, sans-serif; font-size: 12px; font-weight: 200;" fill="rgb(50, 49, 63)" stroke="none" stroke-width="1px">1</text><text x="0" y="19.7777777777778" dx="0em" dy="0.3em" style="text-anchor: end; visibility: hidden; font-family: &quot;Helvetica Neue&quot;, sans-serif; font-size: 12px; font-weight: 200;" fill="rgb(50, 49, 63)" stroke="none" stroke-width="1px">1.05</text><text x="0" y="0" dx="0em" dy="0.3em" style="text-anchor: end; visibility: hidden; font-family: &quot;Helvetica Neue&quot;, sans-serif; font-size: 12px; font-weight: 200;" fill="rgb(50, 49, 63)" stroke="none" stroke-width="1px">1.1</text></g><line x1="58" y1="0" x2="58" y2="178" fill="rgb(0, 0, 0)" stroke="rgb(204, 204, 204)" stroke-width="1px"></line></g></g><g transform="translate(58, 0)" clip-path="url(#clip_0)"><clipPath id="clip_0"><rect width="272" height="178"></rect></clipPath><g><g><g><line x1="0" y1="0" x2="0" y2="178" fill="rgb(0, 0, 0)" stroke="rgb(60, 60, 60)" stroke-width="1px" opacity="0.25"></line><line x1="30.22222222222222" y1="0" x2="30.22222222222222" y2="178" fill="rgb(0, 0, 0)" stroke="rgb(60, 60, 60)" stroke-width="1px" opacity="0.25"></line><line x1="60.44444444444444" y1="0" x2="60.44444444444444" y2="178" fill="rgb(0, 0, 0)" stroke="rgb(60, 60, 60)" stroke-width="1px" opacity="0.25"></line><line x1="90.66666666666666" y1="0" x2="90.66666666666666" y2="178" fill="rgb(0, 0, 0)" stroke="rgb(60, 60, 60)" stroke-width="1px" opacity="0.25"></line><line x1="120.88888888888889" y1="0" x2="120.88888888888889" y2="178" fill="rgb(0, 0, 0)" stroke="rgb(60, 60, 60)" stroke-width="1px" opacity="0.25"></line><line x1="151.11111111111111" y1="0" x2="151.11111111111111" y2="178" fill="rgb(0, 0, 0)" stroke="rgb(60, 60, 60)" stroke-width="1px" opacity="0.25"></line><line x1="181.33333333333331" y1="0" x2="181.33333333333331" y2="178" fill="rgb(0, 0, 0)" stroke="rgb(60, 60, 60)" stroke-width="1px" opacity="0.25"></line><line x1="211.55555555555557" y1="0" x2="211.55555555555557" y2="178" fill="rgb(0, 0, 0)" stroke="rgb(60, 60, 60)" stroke-width="1px" opacity="0.25"></line><line x1="241.77777777777777" y1="0" x2="241.77777777777777" y2="178" fill="rgb(0, 0, 0)" stroke="rgb(60, 60, 60)" stroke-width="1px" opacity="0.25"></line><line x1="272" y1="0" x2="272" y2="178" fill="rgb(0, 0, 0)" stroke="rgb(60, 60, 60)" stroke-width="1px" opacity="0.25"></line></g><g><line x1="0" y1="178" x2="272" y2="178" fill="rgb(0, 0, 0)" stroke="rgb(60, 60, 60)" stroke-width="1px" opacity="0.25"></line><line x1="0" y1="158.22222222222226" x2="272" y2="158.22222222222226" fill="rgb(0, 0, 0)" stroke="rgb(60, 60, 60)" stroke-width="1px" opacity="0.25"></line><line x1="0" y1="138.44444444444446" x2="272" y2="138.44444444444446" fill="rgb(0, 0, 0)" stroke="rgb(60, 60, 60)" stroke-width="1px" opacity="0.25"></line><line x1="0" y1="118.66666666666667" x2="272" y2="118.66666666666667" fill="rgb(0, 0, 0)" stroke="rgb(60, 60, 60)" stroke-width="1px" opacity="0.25"></line><line x1="0" y1="98.88888888888893" x2="272" y2="98.88888888888893" fill="rgb(0, 0, 0)" stroke="rgb(60, 60, 60)" stroke-width="1px" opacity="0.25"></line><line x1="0" y1="79.11111111111113" x2="272" y2="79.11111111111113" fill="rgb(0, 0, 0)" stroke="rgb(60, 60, 60)" stroke-width="1px" opacity="0.25"></line><line x1="0" y1="59.333333333333385" x2="272" y2="59.333333333333385" fill="rgb(0, 0, 0)" stroke="rgb(60, 60, 60)" stroke-width="1px" opacity="0.25"></line><line x1="0" y1="39.5555555555556" x2="272" y2="39.5555555555556" fill="rgb(0, 0, 0)" stroke="rgb(60, 60, 60)" stroke-width="1px" opacity="0.25"></line><line x1="0" y1="19.7777777777778" x2="272" y2="19.7777777777778" fill="rgb(0, 0, 0)" stroke="rgb(60, 60, 60)" stroke-width="1px" opacity="0.25"></line><line x1="0" y1="0" x2="272" y2="0" fill="rgb(0, 0, 0)" stroke="rgb(60, 60, 60)" stroke-width="1px" opacity="0.25"></line></g></g></g><g><g><line x1="0" y1="435.1111111111111" x2="272" y2="435.1111111111111" fill="rgb(0, 0, 0)" stroke="rgb(153, 153, 153)" stroke-width="1.5px"></line></g></g><g><g><line x1="30.22222222222222" y1="0" x2="30.22222222222222" y2="178" fill="rgb(0, 0, 0)" stroke="rgb(153, 153, 153)" stroke-width="1.5px"></line></g></g><g><g><g><g><g><path stroke="rgb(0, 119, 187)" stroke-width="2px" d="M44.10631111111111,242.54349859298836L44.71075555555556,161.34809053713147L45.3152,171.96442798736632L45.901511111111105,178.33421886739495L47.1104,227.96033707732965L47.714844444444445,172.37618995819253L48.319288888888885,158.8034899523513L48.92373333333334,190.21542980471395L49.52817777777778,149.72925594953395L50.132622222222224,125.43755287373443L50.737066666666664,150.41808770922933L51.34151111111112,145.6286303539149L51.94595555555556,122.97717807216688L52.5504,188.49741819770054L53.15484444444444,128.9206730081106L53.74115555555555,93.17462597930509L54.345600000000005,111.2825533798843L54.950044444444444,102.36953202364134L55.55448888888889,116.79949699612905L56.15893333333333,125.45747597695518L56.76337777777778,150.43004114432443L57.36782222222222,145.63580246407346L57.97226666666667,122.9814814775963L58.57671111111111,109.3888888862526L59.181155555555556,140.7888888877301L59.7856,139.85111111040825L60.39004444444445,159.06622222189372L60.99448888888889,131.03973333305467L61.580799999999996,114.22383999980343L62.18524444444444,104.1343039998715L62.78968888888889,98.08058239991917L63.394133333333336,74.67057166216489L63.998577777777776,80.40234299730022L64.60302222222222,123.39696135394155L65.20746666666666,109.63817681236378L65.81191111111112,81.60512830963918L66.41635555555555,64.78529920800524L67.02080000000001,74.47117952480333L67.62524444444445,60.504929937104095L68.22968888888889,52.12518018448465L68.83413333333333,66.87510811069089L69.42044444444446,75.72506486641451L70.02488888888888,100.81281669762656L70.62933333333334,96.08769001857597L71.23377777777777,93.25261401114558L71.83822222222223,91.55156840668732L72.44266666666667,70.75316326623462L73.04711111111111,78.05189795974074L73.65155555555556,82.43113877584443L74.256,104.83646104328446L74.86044444444444,78.72409884819292L75.4648888888889,82.83445930891573L76.06933333333333,85.30067558534942L76.67377777777779,67.00262757343188L77.26008888888889,75.80157654405913L77.86453333333333,61.303168148657704L78.46897777777778,111.93745644475021L79.07342222222222,82.98469608907236L79.67786666666666,65.61303987566565L80.28231111111111,114.52337948095496L80.88675555555557,84.53624991079522L81.49119999999999,66.54397216869937L82.09564444444445,55.74860552344187L82.70008888888889,69.04916331406514L83.30453333333334,57.251720210661304L83.90897777777778,50.17325434861901L84.51342222222222,85.4817303869492L85.09973333333333,86.88903823216948L85.70417777777777,67.95564516152393L86.30862222222223,56.5956093191366L86.91306666666667,49.77958781370418L87.51751111111112,45.68997491044476L88.12195555555554,43.236207168489074L88.7264,41.763946523315695L89.33084444444445,40.88059013621165L89.93528888888889,40.350576303949225L90.53973333333333,59.810345782369524L91.14417777777777,71.48620746942167L91.74862222222222,78.49172448165305L92.35306666666668,62.917256911214054L92.93937777777778,53.57257636895066L93.54382222222222,47.96576804359262L94.14826666666667,64.37946082615562L94.7527111111111,74.22767649569339L95.35715555555555,60.35882811963826L95.9616,52.037519094005205L96.56604444444444,47.04473367862536L97.17048888888888,44.04906242939745L97.77493333333334,62.029437457638494L98.37937777777778,53.039884696805345L98.98382222222223,47.64615304030548L99.58826666666666,44.409914046405504L100.19271111111111,42.46817065006553L100.77902222222222,61.08090239003934L101.38346666666668,52.470763656245865L101.9879111111111,67.0824581937475L102.59235555555556,56.071697138470725L103.19680000000001,49.46524050530465L103.80124444444444,45.50136652540499L104.40568888888889,62.90081991524298L105.01013333333333,73.34049194914583L105.61457777777778,79.60429516948749L106.21902222222222,63.58479932391472L106.82346666666666,73.7508795943488L107.42791111111111,60.072749978831524L108.03235555555555,51.86587220952113L108.61866666666666,46.941745547934914L109.22311111111111,43.9872695509832L109.82755555555556,42.21458395281215L110.432,41.15097259390953L111.03644444444444,60.290583556345766L111.6408888888889,51.9965723560297L112.24533333333333,47.020165635840044L112.84977777777777,63.812099381504L113.45422222222221,73.88725962890244L114.05866666666667,60.15457799956371L114.66311111111112,51.91496902196046L115.26755555555555,46.971203635398496L115.872,63.78272218123911L116.45831111111112,54.091855530965674L117.06275555555557,68.05511331857937L117.6672,56.65529021336987L118.27164444444445,49.81539635024416L118.87608888888889,45.711460032368734L119.48053333333334,43.24909824164348L120.08497777777778,41.77168116720836L120.68942222222222,40.885230922547265L121.29386666666667,40.35336077575059L121.8983111111111,40.03423868767257L122.50275555555555,39.842765434825765L123.1072,39.7278814831177L123.71164444444445,39.658951112092836L124.29795555555555,39.61759288947792L124.9024,39.592777955909014L125.50684444444445,39.57788899576761L126.1112888888889,59.346733397460554L126.71573333333333,51.43026226069858L127.32017777777777,46.68037957864138L127.92462222222223,63.60822774718481L128.52906666666667,53.98715887053311L129.13351111111112,48.214517544542076L129.73795555555554,44.75093274894749L130.3424,42.67278187159073L130.94684444444442,61.20366912295442L131.55128888888888,72.32220147377267L132.1376,59.21554310648581L132.74204444444445,51.35154808611372L133.34648888888887,46.633151073890446L133.95093333333332,63.5798906443343L134.55537777777778,53.97015660882283L135.15982222222223,48.20431618751596L135.76426666666666,44.744811934731814L136.3687111111111,42.66910938306131L136.97315555555556,61.201465629836804L137.57760000000002,52.54310160012433L138.18204444444444,47.34808318229685L138.78648888888887,44.23107213160034L139.39093333333332,42.36086550118242L139.97724444444444,41.23874152293169L140.5816888888889,40.56546713598124L141.18613333333334,79.71705805936654L141.7905777777778,83.4302348356199L142.39502222222222,65.8803631235942L142.99946666666668,55.35044009637873L143.6039111111111,49.03248628004948L144.20835555555556,45.24171399025195L144.81279999999998,62.74502839415116L145.41724444444444,53.46923925871292L146.0216888888889,47.90376577744999L146.62613333333334,44.56448168869224L147.2305777777778,42.560911235437544L147.81688888888888,61.13654674126252L148.42133333333334,52.504150266979764L149.02577777777776,47.3247123824101L149.63022222222222,44.217049651668276L150.23466666666667,42.35245201322317L150.83911111111112,41.23369343015614L151.44355555555558,40.56243828031592L152.048,40.15968519041175L152.65244444444443,39.91803333646928L153.25688888888888,39.77304222410379L153.86133333333333,79.24160311224003L154.4657777777778,83.14496186734404L155.0702222222222,65.70919934262866L155.65653333333336,55.247741827799416L156.26097777777778,68.74864509667962L156.8654222222222,76.84918705800779L157.46986666666666,61.931734457026934L158.07431111111111,52.98126289643838L158.67875555555554,47.610979960085274L159.2832,44.388810198273376L159.88764444444445,42.45550834118626L160.4920888888889,41.295527226933956L161.09653333333335,60.37731633616036L161.70097777777778,52.04861202391845L162.3054222222222,66.82916721435105L162.90986666666666,55.91972255083286L163.49617777777777,69.1518335304997L164.10062222222223,57.313322340522035L164.70506666666668,50.21021562653547L165.30951111111114,65.72612937592129L165.91395555555553,55.25789984777501L166.51839999999999,68.75473990866504L167.12284444444444,57.07506616742127L167.7272888888889,50.06726192267499L168.33173333333335,45.86257937582721L168.93617777777777,43.33976984771857L169.54062222222223,41.82608413085339L170.14506666666668,40.91787270073425L170.7495111111111,60.15072362044056L171.33582222222222,51.91265639448659L171.94026666666667,46.96981605891415L172.5447111111111,44.004111857570734L173.14915555555555,42.22468933676467L173.7536,41.157035824281024L174.35804444444446,40.51644371679089L174.96248888888888,40.132088452296784L175.56693333333334,39.9014752936003L176.17137777777776,39.7631073983824L176.77582222222222,39.68008666125169L177.38026666666667,39.63027421897323L177.98471111111112,39.60038675360619L178.58915555555558,39.58245427438595L179.17546666666667,39.57169478685381L179.7799111111111,39.565239094334515L180.38435555555554,39.56136567882291L180.9888,39.559041629516L181.59324444444445,59.33542497770961L182.1976888888889,51.423477208847984L182.80213333333333,46.67630854753105L183.40657777777778,43.828007350740876L184.0110222222222,61.8968044104445L184.61546666666666,72.73808264626672L185.21991111111112,79.24284958775999L185.82435555555554,63.36793197487823L186.4288,53.84298140714917L187.0151111111111,48.128011066511704L187.61955555555556,64.47680663990707L188.224,54.508306206166466L188.82844444444444,48.527205945922134L189.4328888888889,84.49410134533103L190.03733333333332,66.51868302942087L190.64177777777778,55.73343203987477L191.24622222222223,49.262281446147114L191.85066666666668,45.37959108991049L192.45511111111114,43.04997687616853L193.05955555555553,61.42998612570116L193.664,52.68021389764293L194.26844444444444,47.43035056080802L194.85475555555556,64.0582103364848L195.4592,74.03492620189085L196.06364444444446,60.243177943356756L196.6680888888889,51.96812898823627L197.2725333333333,86.55865517071955L197.87697777777777,67.75741532465399L198.48142222222222,56.476671417014614L199.08586666666667,49.70822507243099L199.6903111111111,45.64715726568082L200.29475555555555,43.210516581630685L200.8992,41.74853217120062L201.50364444444446,40.871341524942636L202.1080888888889,40.34502713718783L202.6944,40.02923850453496L203.29884444444446,39.83976532494319L203.90328888888888,39.72608141718814L204.50773333333333,39.65787107253513L205.1121777777778,39.61694486574331L205.71662222222224,39.592389141668235L206.32106666666664,39.57765570722316L206.9255111111111,39.56881564655612L207.52995555555555,39.56351161015593L208.1344,39.56032918831579L208.73884444444445,39.558419735211714L209.3432888888889,39.55727406334927L209.94773333333333,39.5565866602318L210.53404444444442,59.333951996139064L211.13848888888887,51.42259341990565L211.74293333333333,46.67577827416562L212.34737777777778,43.827689186721614L212.95182222222223,42.118835734255185L213.55626666666666,41.09352366277534L214.1607111111111,40.47833641988743L214.76515555555557,40.109224074154696L215.3696,59.665534444492806L215.97404444444444,71.39932066669569L216.57848888888887,58.661814622239646L217.18293333333332,51.01931099556603L217.78737777777778,66.21158659733966L218.3736888888889,55.54917418062601L218.97813333333335,49.15172673059783L219.58257777777777,65.09103603835871L220.1870222222222,54.87684384523746L220.79146666666665,48.74832852936473L221.3959111111111,45.07121933984109L222.00035555555556,42.86495382612688L222.6048,41.54119451789836L223.20924444444447,40.74693893296126L223.8136888888889,40.27038558199902L224.41813333333332,39.98445357142165L225.02257777777777,39.81289436507524L225.62702222222222,39.709958841267365L226.21333333333334,59.425975304760456L226.8177777777778,51.477807405078494L227.42222222222222,46.708906665269325L228.02666666666667,43.84756622138383L228.6311111111111,42.13076195505255L229.23555555555555,41.100679395253735L229.84,40.48262985937444L230.44444444444443,40.11180013784693L231.04888888888888,39.889302304930396L231.65333333333334,39.75580360518049L232.2577777777778,79.23125994088608L232.86222222222224,63.3609781867539L233.46666666666664,93.39436468983011L234.05297777777776,71.85884103612031L234.6574222222222,58.9375268438944L235.26186666666666,51.18473832855888L235.86631111111112,46.53306521935755L236.47075555555557,43.74206135383679L237.07520000000002,42.06745903452432L237.67964444444442,41.062697642936826L238.28408888888887,40.459840807984335L238.88853333333333,40.09812670701285L239.49297777777778,39.88109824642996L240.09742222222224,39.75088117008019L240.70186666666666,59.450528702048146L241.3063111111111,51.49253944345111L241.89262222222223,86.27330144384844L242.49706666666665,67.58620308853129L243.1015111111111,56.37394407534099L243.70595555555556,49.64658866742681L244.3104,45.61017542267834L244.91484444444444,43.188327475829226L245.5192888888889,41.73521870771975L246.12373333333335,40.86335344685406L246.72817777777777,40.34023429033468L247.3326222222222,40.02636279642306L247.93706666666665,39.83803990007607L248.5415111111111,39.72504616226786L249.14595555555556,39.65724991958294L249.73226666666667,39.616572173972L250.33671111111113,39.59216552660544L250.94115555555558,39.57752153818549L251.54559999999998,39.5687351451335L252.15004444444443,39.563463309302364L252.7544888888889,39.560300207803635L253.35893333333334,39.558402346904415L253.9633777777778,59.33504140814267L254.56782222222222,71.20102484488565L255.17226666666667,58.54283712915361L255.7767111111111,50.94792449971439L256.38115555555555,46.390976922050896L256.9856,63.4345861532305L257.5719111111111,53.882973914160516L258.1763555555556,48.15200657071853L258.7808,44.713426164653356L259.3852444444445,42.650277921014265L259.9896888888889,41.412388974830805L260.59413333333333,40.66965560712069L261.19857777777776,40.22401558649463L261.80302222222224,39.956631574119L262.40746666666666,39.796201166693635L263.0119111111111,59.47772070001615L263.6163555555556,51.50885464223195L264.2208,46.727535007561414L264.8252444444444,43.85874322675909" style="fill: none;" fill="none"></path></g><g><path stroke="rgb(204, 51, 17)" stroke-width="2px" d="M35.05777777777778,186.37009207183644L35.662222222222226,167.08321263623523L36.266666666666666,155.58599378801568L36.87111111111111,148.71441612170264L37.47555555555556,164.40469782541285L38.06186666666667,154.01245267698417L38.66631111111111,108.2081573365145L39.27075555555555,120.30608513808454L39.8752,127.5626571558613L40.479644444444446,112.13602756568412L41.08408888888889,83.10206954912185L41.68853333333333,85.46132798769962L42.29297777777778,106.6550394958008L42.89742222222222,99.59293074480178L43.50186666666667,95.35572498438663L44.10631111111111,152.1470374228603L44.71075555555556,107.11031663524399L45.3152,80.08836610885848L45.901511111111105,63.87522529354381L46.50595555555556,73.92514134772169L47.1104,79.9550870304059L47.714844444444445,63.79527086795187L48.319288888888885,73.8771638580773L48.92373333333334,60.14851944445229L49.52817777777778,51.91133349555177L50.132622222222224,86.52457886681916L50.737066666666664,107.29252545488494L51.34151111111112,80.19773721568609L51.94595555555556,63.9408644510257L52.5504,54.1867408566187L53.15484444444444,68.11204454499563L53.74115555555555,56.68944893395043L54.345600000000005,69.61366937073618L54.950044444444444,57.59042383887795L55.55448888888889,50.37647652346604L56.15893333333333,85.60366369796027L56.76337777777778,67.18442043908381L57.36782222222222,75.9106522639945L57.97226666666667,61.36861358007481L58.57671111111111,52.6433903700712L59.181155555555556,47.40825644419442L59.7856,44.267176088713455L60.39004444444445,42.382527875441184L60.99448888888889,61.02951672531897L61.580799999999996,52.43993225739857L62.18524444444444,67.06395935445444L62.78968888888889,75.83837561267813L63.394133333333336,61.32524758982366L63.998577777777776,72.39514855389673L64.60302222222222,59.25931135455849L65.20746666666666,71.15558681273605L65.81191111111112,78.293352087642L66.41635555555555,62.798233474807006L67.02080000000001,53.50116230710631L67.62524444444445,47.92291960648595L68.22968888888889,44.57597398611378L68.83413333333333,42.56780661389047L69.42044444444446,41.36290619055649L70.02488888888888,40.639965936556166L70.62933333333334,40.20620178415595L71.23377777777777,39.94594329271581L71.83822222222223,59.56756597562949L72.44266666666667,51.56276180759993L73.04711111111111,46.75987930678221L73.65155555555556,43.87814980629153L74.256,61.926889883774976L74.86044444444444,72.75613393026498L75.4648888888889,79.25368035815902L76.06933333333333,63.37443043711767L76.67377777777779,73.62465826227061L77.26008888888889,59.9970171795846L77.86453333333333,71.59821030775078L78.46897777777778,58.78114840687269L79.07342222222222,51.09091126634584L79.67786666666666,46.47676898202974L80.28231111111111,63.48606138921785L80.88675555555557,53.91385905575292L81.49119999999999,48.17053765567397L82.09564444444445,64.5023225934044L82.70008888888889,74.30139355604267L83.30453333333334,60.40305835584785L83.90897777777778,52.06405723573094L84.51342222222222,47.060656563660814L85.09973333333333,44.05861616041872L85.70417777777777,42.2573919184735L86.30862222222223,41.17665737330634L86.91306666666667,60.305994423983805L87.51751111111112,52.005818876612494L88.12195555555554,47.025713548189714L88.7264,63.81542812891388L89.33084444444445,54.11147909957057L89.93528888888889,48.28910968196459L90.53973333333333,44.795688031401L91.14417777777777,42.69963504106286L91.74862222222222,41.44200324685994L92.35306666666668,60.46520194811595L92.93937777777778,52.10134339109183L93.54382222222222,47.0830282568773L94.14826666666667,44.072039176348625L94.7527111111111,42.26544572803144L95.35715555555555,41.18148965904106L95.9616,40.531116017646895L96.56604444444444,40.140891832810354L97.17048888888888,39.90675732190843L97.77493333333334,59.54405439314503L98.37937777777778,51.54865485810926L98.98382222222223,46.751415137087776L99.58826666666666,43.873071304474905L100.19271111111111,42.14606500490714L100.77902222222222,41.109861225166554L101.38346666666668,40.48813895732218L101.9879111111111,40.115105596615535L102.59235555555556,39.89128558019155L103.19680000000001,39.75699357033716L103.80124444444444,39.67641836442451L104.40568888888889,39.628073240876944L105.01013333333333,39.59906616674837L105.61457777777778,39.58166192227125L106.21902222222222,39.571219375585L106.82346666666666,39.564953847573264L107.42791111111111,39.561194530766215L108.03235555555555,39.55893894068197L108.61866666666666,39.557585586631404L109.22311111111111,39.55677357420106L109.82755555555556,39.55628636674285L110.432,39.55599404226794L111.03644444444444,39.55581864758301L111.6408888888889,39.55571341077203L112.24533333333333,79.11120582424098L112.84977777777777,63.28894571676682L113.45422222222221,73.57336743006007L114.05866666666667,59.96624268025829L114.66311111111112,51.801967830377194L115.26755555555555,46.90340292044854L115.872,43.96426397449136L116.45831111111112,42.20078060691705L117.06275555555557,41.14269058637245L117.6672,40.50783657404571L118.27164444444445,40.12692416664967L118.87608888888889,39.89837672221205L119.48053333333334,59.53902603332723L120.08497777777778,51.545637842218554L120.68942222222222,46.74960492755338L121.29386666666667,43.871985178754244L121.8983111111111,42.14541332947479L122.50275555555555,41.10947021990711L123.1072,40.48790435416649L123.71164444444445,59.892742612499916L124.29795555555555,71.5356455675L124.9024,58.74360956272224L125.50684444444445,51.06838795985557L126.1112888888889,46.46325499813557L126.71573333333333,43.700175221103564L127.32017777777777,42.04232735488438L127.92462222222223,41.0476186351529L128.52906666666667,40.45079340331398L129.13351111111112,40.09269826421061L129.73795555555554,59.65561895852636L130.3424,51.615593597338034L130.94684444444442,46.79157838062508L131.55128888888888,43.8971692505973L132.1376,42.16052377258063L132.74204444444445,41.11853648577062L133.34648888888887,40.4933441136846L133.95093333333332,40.11822869043303L134.55537777777778,39.89315943648202L135.15982222222223,39.75811788411147L135.76426666666666,39.67709295268912L136.3687111111111,39.6284779938357L136.97315555555556,39.599309018523655L137.57760000000002,59.35958541111424L138.18204444444444,51.43797346889076L138.78648888888887,46.68500630355669L139.39093333333332,43.83322600435625L139.97724444444444,42.122157824835966L140.5816888888889,41.09551691712383L141.18613333333334,40.47953237249649L141.7905777777778,40.10994164572017L142.39502222222222,39.88818720965435L142.99946666666668,39.75513454801484L143.6039111111111,39.675302951031114L144.20835555555556,39.627403992840925L144.81279999999998,39.59866461792677L145.41724444444444,39.58142099297831L146.0216888888889,39.57107481800924L146.62613333333334,39.56486711302779L147.2305777777778,59.33892026781669L147.81688888888888,51.425574382912274L148.42133333333334,46.6775668519696L149.02577777777776,43.82876233340403L149.63022222222222,42.119479622264635L150.23466666666667,41.093909995581015L150.83911111111112,40.47856821957086L151.44355555555558,40.10936315396472L152.048,39.88784011460109L152.65244444444443,39.754926290982894L153.25688888888888,39.675177996811954L153.86133333333333,39.62732902030942L154.4657777777778,59.376397412185696L155.0702222222222,51.44806066953366L155.65653333333336,46.69105862394247L156.26097777777778,43.8368573965877L156.8654222222222,42.12433666017486L157.46986666666666,41.09682421832716L158.07431111111111,40.480316753218546L158.67875555555554,40.11041227415336L159.2832,39.88846958671425L159.88764444444445,39.75530397425078L160.4920888888889,39.6754046067727L161.09653333333335,39.62746498628587L161.70097777777778,39.598701213993735L162.3054222222222,39.58144295061848L162.90986666666666,39.571087992593334L163.49617777777777,39.564875017778206L164.10062222222223,39.56114723288917L164.70506666666668,39.55891056195577L165.30951111111114,39.55756855939566L165.91395555555553,59.334541135637394L166.51839999999999,51.42294690360468L167.12284444444444,46.67599036438506L167.7272888888889,43.82781644085327L168.33173333333335,42.11891208673421L168.93617777777777,41.09356947426275L169.54062222222223,40.47836390677986L170.14506666666668,40.10924056629017L170.7495111111111,39.88776656199633L171.33582222222222,39.75488215942002L171.94026666666667,39.67515151787421L172.5447111111111,39.62731313294674L173.14915555555555,39.59861010199029L173.7536,39.5813882834164L174.35804444444446,39.57105519227207L174.96248888888888,39.56485533758547L175.56693333333334,39.56113542477351L176.17137777777776,39.55890347708632L176.77582222222222,39.55756430847404L177.38026666666667,39.55676080730666L177.98471111111112,39.556278706606236L178.58915555555558,39.55598944618595L179.17546666666667,39.5558158899338L179.7799111111111,39.555711756182546L180.38435555555554,39.55564927593173L180.9888,39.55561178778126L181.59324444444445,39.55558929489098L182.1976888888889,39.5555757991568L182.80213333333333,39.55556770171631L183.40657777777778,39.555562843252034L184.0110222222222,39.55555992817344L184.61546666666666,39.55555817912628L185.21991111111112,39.555557129698L185.82435555555554,39.555556500041035L186.4288,59.33333390002464L187.0151111111111,51.42222256223701L187.61955555555556,46.67555575956442L188.224,43.82755567796087L188.82844444444444,42.11875562899877L189.4328888888889,41.093475599621485L190.03733333333332,40.478307581995125L190.64177777777778,40.10920677141931L191.24622222222223,39.8877462850738L191.85066666666668,39.75486999326651L192.45511111111114,39.67514421818214L193.05955555555553,39.6273087531315L193.664,39.59860747410113L194.26844444444444,39.581386706682906L194.85475555555556,39.571054246231995L195.4592,59.3426325477392L196.06364444444446,51.427801750865754L196.6680888888889,46.67890327274171L197.2725333333333,63.60734196364504L197.87697777777777,53.98662740040923L198.48142222222222,48.214198662467794L199.08586666666667,64.52851919748066L199.6903111111111,54.53933374071066L200.29475555555555,48.545822466648644L200.8992,64.7274934799892L201.50364444444446,54.65871831021575L202.1080888888889,48.61745320835169L202.6944,44.99269414723324L203.29884444444446,42.8178387105622L203.90328888888888,61.29070322633733L204.50773333333333,52.59664415802463L205.1121777777778,47.38020871703702L205.71662222222224,44.25034745244443L206.32106666666664,42.3724306936889L206.9255111111111,41.24568063843557L207.52995555555555,40.569630605283606L208.1344,40.16400058539239L208.73884444444445,39.92062257345768L209.3432888888889,39.77459576629684L209.94773333333333,39.68697968200033L210.53404444444442,39.63441003142245L211.13848888888887,39.6028682410757L211.74293333333333,59.36172094464543L212.34737777777778,51.43925478900947L212.95182222222223,46.685775095627946L213.55626666666666,43.83368727959899L214.1607111111111,42.12243458998162L214.76515555555557,41.095682976211236L215.3696,40.47963200794899L215.97404444444444,40.11000142699166L216.57848888888887,39.88822307841721L217.18293333333332,39.75515606927257L217.78737777777778,39.675315863785784L218.3736888888889,39.62741174049373L218.97813333333335,39.59866926651847L219.58257777777777,39.58142378213333L220.1870222222222,39.571076491502225L220.79146666666665,39.56486811712358L221.3959111111111,39.561143092496394L222.00035555555556,39.558908077720076L222.6048,59.33534484663208L223.20924444444447,51.4234291302015L223.8136888888889,46.676279700343116L224.41813333333332,43.8279900424281L225.02257777777777,42.1190162476791L225.62702222222222,41.09363197082968L226.21333333333334,40.478401404720046L226.8177777777778,40.10926306505428L227.42222222222222,39.88778006125477L228.02666666666667,39.75489025897511L228.6311111111111,39.675156377607266L229.23555555555555,39.62731604878661L229.84,39.598611851494184L230.44444444444443,39.58138933311875L231.04888888888888,39.571055822093484L231.65333333333334,59.3426334932561L232.2577777777778,51.427802318175864L232.86222222222224,46.678903613127744L233.46666666666664,43.82956439009885L234.05297777777776,42.11996085628152L234.6574222222222,41.09419873599114L235.26186666666666,40.4787414638169L235.86631111111112,40.109467100512376L236.47075555555557,39.887902482529654L237.07520000000002,39.75496371174003L237.67964444444442,59.452978227044056L238.28408888888887,51.49400915844869L238.88853333333333,46.71862771729144L239.49297777777778,43.85339885259708L240.09742222222224,42.13426153378049L240.70186666666666,41.10277914249053L241.3063111111111,40.48388970771657L241.89262222222223,40.11255604685218L242.49706666666665,39.88975585033356L243.1015111111111,39.756075732422374L243.70595555555556,39.67586766167568L244.3104,39.62774281922762L244.91484444444444,39.598867913758795L245.5192888888889,39.5815429704775L246.12373333333335,39.57114800450873L246.72817777777777,39.56491102492748L247.3326222222222,39.56116883717871L247.93706666666665,39.55892352452946L248.5415111111111,59.33535411471769L249.14595555555556,51.42343469105283L249.73226666666667,46.67628303685396L250.33671111111113,43.82799204433459L250.94115555555558,42.11901744882297L251.54559999999998,41.093632691516035L252.15004444444443,40.478401837131884L252.7544888888889,40.10926332450134L253.35893333333334,39.88778021692303L253.9633777777778,39.754890352376066L254.56782222222222,39.675156433647885L255.17226666666667,39.62731608241097L255.7767111111111,39.598611871668794L256.38115555555555,39.58138934522353L256.9856,39.57105582935634L257.5719111111111,39.56485571983603L258.1763555555556,39.56113565412383L258.7808,39.55890361469653L259.3852444444445,39.55756439104013L259.9896888888889,39.556760856846296L260.59413333333333,39.55627873633003L261.19857777777776,39.55598946402026L261.80302222222224,39.55581590063437L262.40746666666666,59.333489540380626L263.0119111111111,51.422315946450595L263.6163555555556,46.6756117900926L264.2208,43.82758929627781L264.8252444444444,42.118775799988896" style="fill: none;" fill="none"></path></g><g><path stroke="rgb(51, 187, 238)" stroke-width="2px" d="M32.64,192.86421466574143L33.24444444444444,149.2853114930183L33.84888888888889,185.5188267621832L34.45333333333333,166.36740346516322L35.05777777777778,155.0845143301716L35.662222222222226,128.48990114193376L36.266666666666666,112.63642473949858L36.87111111111111,103.16122940586673L37.47555555555556,117.29297245849008L38.06186666666667,86.17361927632298L38.66631111111111,107.09178475088261L39.27075555555555,80.06966983714145L39.8752,83.64240664727757L40.479644444444446,66.00587504520348L41.08408888888889,55.42510249966361L41.68853333333333,49.07705162722257L42.29297777777778,45.26836964768722L42.89742222222222,42.98321393322564L43.50186666666667,61.39007372447037L44.10631111111111,72.43409656547396L44.71075555555556,59.282642771544644L45.3152,51.391794424803564L45.901511111111105,46.65729403138877L46.50595555555556,63.5943868198041L47.1104,53.97885077119764L47.714844444444445,48.20953140949476L48.319288888888885,64.52572100994723L48.92373333333334,54.53765403327418L49.52817777777778,48.54481435601687L50.132622222222224,64.72688907724569L50.737066666666664,94.213911731028L51.34151111111112,72.35056903533123L51.94595555555556,59.232563562238184L52.5504,51.36176033033934L53.15484444444444,46.639278409904534L53.74115555555555,43.80578926437724L54.345600000000005,42.105695779485046L54.950044444444444,41.08563968942241L55.55448888888889,40.473606035698936L56.15893333333333,40.10638584357798L56.76337777777778,39.8860537283461L57.36782222222222,39.753854459221685L57.97226666666667,59.452312676270154L58.57671111111111,71.27138760602743L59.181155555555556,58.58505478566775L59.7856,50.97325509356132L60.39004444444445,66.1839530562106L60.99448888888889,55.53259405591763L61.580799999999996,49.14177865576161L62.18524444444444,45.3072894156752L62.78968888888889,43.006595871625905L63.394133333333336,41.62617974519728L63.998577777777776,60.57570784712263L64.60302222222222,52.167646930494655L65.20746666666666,47.12281038051859L65.81191111111112,44.09590845053327L66.41635555555555,62.0575450703205L67.02080000000001,72.83452704219253L67.62524444444445,59.522938447537626L68.22968888888889,91.09154084630053L68.83413333333333,70.47714673000253L69.42044444444446,58.108510260223696L70.02488888888888,50.687328378356426L70.62933333333334,46.23461924923609L71.23377777777777,43.5629937717639L71.83822222222223,41.96001848528056L72.44266666666667,40.99823331339056L73.04711111111111,60.198939988034326L73.65155555555556,51.94158621504282L74.256,46.98717395124794L74.86044444444444,44.01452659297098L75.4648888888889,42.230938178004834L76.06933333333333,60.938562906802886L76.67377777777779,52.385359966303994L77.26008888888889,47.25343820200462L77.86453333333333,44.17428514342498L78.46897777777778,42.326793308277246L79.07342222222222,41.21829820718855L79.67786666666666,40.55320114653537L80.28231111111111,40.15414291014346L80.88675555555557,39.914707968308306L81.49119999999999,39.7710470032072L82.09564444444445,39.68485042414656L82.70008888888889,39.63313247671013L83.30453333333334,39.60210170824831L83.90897777777778,39.583483247171245L84.51342222222222,39.57231217052498L85.09973333333333,39.565609524537194L85.70417777777777,39.561587936944534L86.30862222222223,59.3369527621667L86.91306666666667,51.424393879522256L87.51751111111112,46.67685854993556L88.12195555555554,43.82833735218358L88.7264,42.11922463353238L89.33084444444445,41.093757002341675L89.93528888888889,40.47847642362726L90.53973333333333,40.10930807639858L91.14417777777777,39.88780706806136L91.74862222222222,39.75490646305906L92.35306666666668,39.67516610005768L92.93937777777778,39.62732188225684L93.54382222222222,39.59861535157634L94.14826666666667,39.58139143316805L94.7527111111111,39.57105708212305L95.35715555555555,39.564856471496086L95.9616,59.33891388289763L96.56604444444444,51.42557055196082L97.17048888888888,46.677564553398724L97.77493333333334,43.82876095426147L98.37937777777778,42.1194787947791L98.98382222222223,41.093909499089676L99.58826666666666,40.478567921676046L100.19271111111111,40.10936297522784L100.77902222222222,39.88784000735893L101.38346666666668,39.75492622663759L101.9879111111111,39.67517795820481L102.59235555555556,39.6273289971451L103.19680000000001,39.59861962050931L103.80124444444444,39.58139399452784L104.40568888888889,39.571058618938935L105.01013333333333,39.56485739358561L105.61457777777778,39.56113665837361L106.21902222222222,39.55890421724641L106.82346666666666,39.5575647525701L107.42791111111111,39.55676107376428L108.03235555555555,59.33405664425857L108.61866666666666,51.42265620877737L109.22311111111111,46.67581594748867L109.82755555555556,43.827711790715426L110.432,42.11884929665149L111.03644444444444,41.09353180021313L111.6408888888889,40.47834130235012L112.24533333333333,40.1092270036323L112.84977777777777,39.887758424401596L113.45422222222221,39.7548772768632L114.05866666666667,39.675148588340136L114.66311111111112,39.62731137522633L115.26755555555555,39.598609047358025L115.872,39.581387650637026L116.45831111111112,39.57105481260447L117.06275555555557,39.5648551097849L117.6672,39.56113528809317L118.27164444444445,39.55890339507809L118.87608888888889,39.55756425926913L119.48053333333334,39.55676077778372L120.08497777777778,39.55627868889246L120.68942222222222,39.555989435557706L121.29386666666667,39.555815883556875L121.8983111111111,39.55571175235633L122.50275555555555,39.55564927363608L123.1072,39.55561178640386L123.71164444444445,39.55558929406453L124.29795555555555,39.55557579866095L124.9024,39.55556770141882L125.50684444444445,39.55556284307352L126.1112888888889,39.555559928066344L126.71573333333333,39.55555817906205L127.32017777777777,39.55555712965946L127.92462222222223,39.5555565000179L128.52906666666667,39.55555612223296L129.13351111111112,39.55555589556204L129.73795555555554,39.55555575955947L130.3424,39.5555556779579L130.94684444444442,39.555555628996956L131.55128888888888,59.33333337739819L132.1376,51.42222224866114L132.74204444444445,46.675555571418926L133.34648888888887,43.82755556507357L133.95093333333332,42.11875556126637L134.55537777777778,41.09347555898205L135.15982222222223,40.47830755761146L135.76426666666666,40.10920675678909L136.3687111111111,39.88774627629567L136.97315555555556,39.754869987999655L137.57760000000002,39.675144215022016L138.18204444444444,39.62730875123543L138.78648888888887,39.59860747296352L139.39093333333332,39.58138670600033L139.97724444444444,39.57105424582241L140.5816888888889,59.34263254749344L141.18613333333334,51.42780175071829L141.7905777777778,46.6789032726532L142.39502222222222,43.82956418581415L142.99946666666668,42.11996073371074L143.6039111111111,41.09419866244869L144.20835555555556,40.47874141969146L144.81279999999998,40.1094670740371L145.41724444444444,39.887902466644505L146.0216888888889,39.754963702208926L146.62613333333334,39.675200443547595L147.2305777777778,39.62734248835079L147.81688888888888,39.59862771523271L148.42133333333334,39.581398851361854L149.02577777777776,39.57106153303937L149.63022222222222,39.56485914204586L150.23466666666667,39.561137707449774L150.83911111111112,39.558904846692116L151.44355555555558,39.55756513023749L152.048,39.55676130036474L152.65244444444443,39.55627900244107L153.25688888888888,39.555989623686884L153.86133333333333,39.55581599643435L154.4657777777778,39.55571182008288L155.0702222222222,39.55564931427193L155.65653333333336,39.55561181078539L156.26097777777778,39.55558930869344L156.8654222222222,39.555575807438316L157.46986666666666,59.33334548446298L158.07431111111111,51.422229512900046L158.67875555555554,66.45333770774L159.2832,55.694224846866234L159.88764444444445,49.23875713034198L160.4920888888889,45.365476500427434L161.09653333333335,43.04150812247869L161.70097777777778,61.424904873487264L162.3054222222222,52.67716514631461L162.90986666666666,47.42852131001098L163.49617777777777,44.27933500822883L164.10062222222223,42.389823227159496L164.70506666666668,41.256116158517926L165.30951111111114,40.575891917332996L165.91395555555553,40.16775737262202L166.51839999999999,39.92287664579544L167.12284444444444,39.77594820969949L167.7272888888889,39.687791148041924L168.33173333333335,39.63489691104738L168.93617777777777,39.60316036885064L169.54062222222223,39.584118443532645L170.14506666666668,39.57269328834181L170.7495111111111,39.565838195227315L171.33582222222222,39.5617251393586L171.94026666666667,39.559257305837434L172.5447111111111,39.55777660572471L173.14915555555555,39.556888185657044L173.7536,39.55635513361648L174.35804444444446,39.556035302392104L174.96248888888888,39.55584340365752L175.56693333333334,39.55572826441676L176.17137777777776,39.55565918087228L176.77582222222222,39.55561773074564L177.38026666666667,39.555592860669606L177.98471111111112,39.555577938624L178.58915555555558,39.55556898539663L179.17546666666667,39.55556361346021L179.7799111111111,59.333338168076125L180.38435555555554,51.4222251230679L180.9888,46.675557296062976L181.59324444444445,43.82755659986003L182.1976888888889,42.11875618213821L182.80213333333333,41.093475931505196L183.40657777777778,40.47830778112535L184.0110222222222,40.10920689089744L184.61546666666666,39.88774635676069L185.21991111111112,39.754870036278646L185.82435555555554,39.67514424398939L186.4288,39.627308768615876L187.0151111111111,39.59860748339176L187.61955555555556,39.581386712257284L188.224,39.57105424957658L188.82844444444444,39.56485477196816L189.4328888888889,59.33891286318094L190.03733333333332,51.42556994013081L190.64177777777778,46.67756418630074L191.24622222222223,43.82876073400266L191.85066666666668,42.119478662623834L192.45511111111114,41.093909419796546L193.05955555555553,40.47856787410015L193.664,40.109362946682324L194.26844444444444,39.88783999023161L194.85475555555556,39.75492621636121L195.4592,39.67517795203895L196.06364444444446,39.627328993445616L196.6680888888889,39.598619618289604L197.2725333333333,39.581393993196L197.87697777777777,39.57105861813983L198.48142222222222,39.56485739310611L199.08586666666667,39.56113665808593L199.6903111111111,39.558904217073774L200.29475555555555,39.557564752466476L200.8992,39.55676107370212L201.50364444444446,39.55627886644348L202.1080888888889,39.555989542088355L202.6944,39.55581594747525L203.29884444444446,39.55571179070739L203.90328888888888,39.55564929664669L204.50773333333333,39.555611800210244L205.1121777777778,39.55558930234835L205.71662222222224,39.55557580363123L206.32106666666664,39.55556770440097L206.9255111111111,59.33334062264055L207.52995555555555,51.42222659580656L208.1344,46.675558179706144L208.73884444444445,43.82755713004593L209.3432888888889,42.11875650024979L209.94773333333333,41.093476122372095L210.53404444444442,40.478307895645486L211.13848888888887,40.10920695960954L211.74293333333333,39.88774639798797L212.34737777777778,39.754870061015L212.95182222222223,39.67514425883121L213.55626666666666,39.627308777520966L214.1607111111111,39.59860748873484L214.76515555555557,39.58138671546317L215.3696,39.57105425150013L215.97404444444444,39.564854773122306L216.57848888888887,39.56113508609562L217.18293333333332,39.55890327387962L217.78737777777778,39.557564186549996L218.3736888888889,39.55676073415225L218.97813333333335,39.55627866271357L219.58257777777777,39.55598941985036L220.1870222222222,39.555815874132435L220.79146666666665,39.55571174670172L221.3959111111111,39.55564927024324L222.00035555555556,39.55561178436815L222.6048,59.33336707062091L223.20924444444447,51.42224246459479L223.8136888888889,46.67556770097909L224.41813333333332,63.605340620587484L225.02257777777777,53.985426594574704L225.62702222222222,48.21347817896705L226.21333333333334,64.52808690738023L226.8177777777778,54.53907436665038L227.42222222222222,48.54566684221243L228.02666666666667,44.94962232754969L228.6311111111111,62.569773396529826L229.23555555555555,53.36408626014013L229.84,47.840673978306285L230.44444444444443,44.52662660920598L231.04888888888888,42.53819818774582L231.65333333333334,41.34514113486975L232.2577777777778,40.629306903144084L232.86222222222224,40.19980636410867L233.46666666666664,39.942106040687406L234.05297777777776,39.787485846634695L234.6574222222222,39.694713730203034L235.26186666666666,39.63905046034404L235.86631111111112,39.60565249842864L236.47075555555557,39.58561372127943L237.07520000000002,39.5735904549899L237.67964444444442,39.56637649521616L238.28408888888887,39.562048119351914L238.88853333333333,39.55945109383336L239.49297777777778,39.55789287852224L240.09742222222224,39.55695794933558L240.70186666666666,39.55639699182356L241.3063111111111,39.55606041731636L241.89262222222223,39.55585847261207L242.49706666666665,39.555737305789506L243.1015111111111,39.55566460569594L243.70595555555556,39.55562098563982L244.3104,39.55559481360612L244.91484444444444,39.55557911038591L245.5192888888889,39.55556968845377L246.12373333333335,39.55556403529448L246.72817777777777,39.555560643398906L247.3326222222222,39.555558608261606L247.93706666666665,39.55555738717919L248.5415111111111,39.55555665452974L249.14595555555556,39.55555621494011L249.73226666666667,39.55555595118631L250.33671111111113,39.55555579293403L250.94115555555558,59.33333347576044L251.54559999999998,51.42222230767851L252.15004444444443,46.675555606829334L252.7544888888889,43.827555586319846L253.35893333333334,42.11875557401416L253.9633777777778,41.0934755666307L254.56782222222222,40.478307562200655L255.17226666666667,40.109206759542644L255.7767111111111,39.88774627794783L256.38115555555555,39.75486998899092L256.9856,39.67514421561674L257.5719111111111,39.627308751592295L258.1763555555556,39.598607473177594L258.7808,39.5813867061288L259.3852444444445,39.57105424589949L259.9896888888889,39.56485476976192L260.59413333333333,39.56113508407941L261.19857777777776,39.55890327266988L261.80302222222224,39.55756418582416L262.40746666666666,39.556760733716715L263.0119111111111,59.33405644023003L263.6163555555556,51.42265608636026L264.2208,46.67581587403836L264.8252444444444,43.827711746645235" style="fill: none;" fill="none"></path></g></g></g></g><g opacity="0.2"><g><g><g><path stroke="rgb(0, 119, 187)" stroke-width="2px" d="M43.50186666666667,286.77777777777777L44.10631111111111,138.44444444444446L44.71075555555556,39.5555555555556L45.3152,187.88888888888889L47.1104,237.33333333333331L47.714844444444445,89.00000000000001L48.319288888888885,138.44444444444446L48.92373333333334,237.33333333333331L49.52817777777778,89.00000000000001L50.132622222222224,89.00000000000001L50.737066666666664,187.88888888888889L51.34151111111112,138.44444444444446L51.94595555555556,89.00000000000001L52.5504,286.77777777777777L53.15484444444444,39.5555555555556L53.74115555555555,39.5555555555556L54.345600000000005,138.44444444444446L54.950044444444444,89.00000000000001L55.55448888888889,138.44444444444446L56.15893333333333,138.44444444444446L56.76337777777778,187.88888888888889L57.36782222222222,138.44444444444446L57.97226666666667,89.00000000000001L58.57671111111111,89.00000000000001L59.181155555555556,187.88888888888889L59.7856,138.44444444444446L60.39004444444445,187.88888888888889L60.99448888888889,89.00000000000001L61.580799999999996,89.00000000000001L62.18524444444444,89.00000000000001L62.78968888888889,89.00000000000001L63.394133333333336,39.5555555555556L63.998577777777776,89.00000000000001L64.60302222222222,187.88888888888889L65.20746666666666,89.00000000000001L65.81191111111112,39.5555555555556L66.41635555555555,39.5555555555556L67.02080000000001,89.00000000000001L67.62524444444445,39.5555555555556L68.22968888888889,39.5555555555556L68.83413333333333,89.00000000000001L69.42044444444446,89.00000000000001L70.02488888888888,138.44444444444446L70.62933333333334,89.00000000000001L71.23377777777777,89.00000000000001L71.83822222222223,89.00000000000001L72.44266666666667,39.5555555555556L73.04711111111111,89.00000000000001L73.65155555555556,89.00000000000001L74.256,138.44444444444446L74.86044444444444,39.5555555555556L75.4648888888889,89.00000000000001L76.06933333333333,89.00000000000001L76.67377777777779,39.5555555555556L77.26008888888889,89.00000000000001L77.86453333333333,39.5555555555556L78.46897777777778,187.88888888888889L79.07342222222222,39.5555555555556L79.67786666666666,39.5555555555556L80.28231111111111,187.88888888888889L80.88675555555557,39.5555555555556L81.49119999999999,39.5555555555556L82.09564444444445,39.5555555555556L82.70008888888889,89.00000000000001L83.30453333333334,39.5555555555556L83.90897777777778,39.5555555555556L84.51342222222222,138.44444444444446L85.09973333333333,89.00000000000001L85.70417777777777,39.5555555555556L86.30862222222223,39.5555555555556L86.91306666666667,39.5555555555556L87.51751111111112,39.5555555555556L88.12195555555554,39.5555555555556L88.7264,39.5555555555556L89.33084444444445,39.5555555555556L89.93528888888889,39.5555555555556L90.53973333333333,89.00000000000001L91.14417777777777,89.00000000000001L91.74862222222222,89.00000000000001L92.35306666666668,39.5555555555556L92.93937777777778,39.5555555555556L93.54382222222222,39.5555555555556L94.14826666666667,89.00000000000001L94.7527111111111,89.00000000000001L95.35715555555555,39.5555555555556L95.9616,39.5555555555556L96.56604444444444,39.5555555555556L97.17048888888888,39.5555555555556L97.77493333333334,89.00000000000001L98.37937777777778,39.5555555555556L98.98382222222223,39.5555555555556L99.58826666666666,39.5555555555556L100.19271111111111,39.5555555555556L100.77902222222222,89.00000000000001L101.38346666666668,39.5555555555556L101.9879111111111,89.00000000000001L102.59235555555556,39.5555555555556L103.19680000000001,39.5555555555556L103.80124444444444,39.5555555555556L104.40568888888889,89.00000000000001L105.01013333333333,89.00000000000001L105.61457777777778,89.00000000000001L106.21902222222222,39.5555555555556L106.82346666666666,89.00000000000001L107.42791111111111,39.5555555555556L108.03235555555555,39.5555555555556L108.61866666666666,39.5555555555556L109.22311111111111,39.5555555555556L109.82755555555556,39.5555555555556L110.432,39.5555555555556L111.03644444444444,89.00000000000001L111.6408888888889,39.5555555555556L112.24533333333333,39.5555555555556L112.84977777777777,89.00000000000001L113.45422222222221,89.00000000000001L114.05866666666667,39.5555555555556L114.66311111111112,39.5555555555556L115.26755555555555,39.5555555555556L115.872,89.00000000000001L116.45831111111112,39.5555555555556L117.06275555555557,89.00000000000001L117.6672,39.5555555555556L118.27164444444445,39.5555555555556L118.87608888888889,39.5555555555556L119.48053333333334,39.5555555555556L120.08497777777778,39.5555555555556L120.68942222222222,39.5555555555556L121.29386666666667,39.5555555555556L121.8983111111111,39.5555555555556L122.50275555555555,39.5555555555556L123.1072,39.5555555555556L123.71164444444445,39.5555555555556L124.29795555555555,39.5555555555556L124.9024,39.5555555555556L125.50684444444445,39.5555555555556L126.1112888888889,89.00000000000001L126.71573333333333,39.5555555555556L127.32017777777777,39.5555555555556L127.92462222222223,89.00000000000001L128.52906666666667,39.5555555555556L129.13351111111112,39.5555555555556L129.73795555555554,39.5555555555556L130.3424,39.5555555555556L130.94684444444442,89.00000000000001L131.55128888888888,89.00000000000001L132.1376,39.5555555555556L132.74204444444445,39.5555555555556L133.34648888888887,39.5555555555556L133.95093333333332,89.00000000000001L134.55537777777778,39.5555555555556L135.15982222222223,39.5555555555556L135.76426666666666,39.5555555555556L136.3687111111111,39.5555555555556L136.97315555555556,89.00000000000001L137.57760000000002,39.5555555555556L138.18204444444444,39.5555555555556L138.78648888888887,39.5555555555556L139.39093333333332,39.5555555555556L139.97724444444444,39.5555555555556L140.5816888888889,39.5555555555556L141.18613333333334,138.44444444444446L141.7905777777778,89.00000000000001L142.39502222222222,39.5555555555556L142.99946666666668,39.5555555555556L143.6039111111111,39.5555555555556L144.20835555555556,39.5555555555556L144.81279999999998,89.00000000000001L145.41724444444444,39.5555555555556L146.0216888888889,39.5555555555556L146.62613333333334,39.5555555555556L147.2305777777778,39.5555555555556L147.81688888888888,89.00000000000001L148.42133333333334,39.5555555555556L149.02577777777776,39.5555555555556L149.63022222222222,39.5555555555556L150.23466666666667,39.5555555555556L150.83911111111112,39.5555555555556L151.44355555555558,39.5555555555556L152.048,39.5555555555556L152.65244444444443,39.5555555555556L153.25688888888888,39.5555555555556L153.86133333333333,138.44444444444446L154.4657777777778,89.00000000000001L155.0702222222222,39.5555555555556L155.65653333333336,39.5555555555556L156.26097777777778,89.00000000000001L156.8654222222222,89.00000000000001L157.46986666666666,39.5555555555556L158.07431111111111,39.5555555555556L158.67875555555554,39.5555555555556L159.2832,39.5555555555556L159.88764444444445,39.5555555555556L160.4920888888889,39.5555555555556L161.09653333333335,89.00000000000001L161.70097777777778,39.5555555555556L162.3054222222222,89.00000000000001L162.90986666666666,39.5555555555556L163.49617777777777,89.00000000000001L164.10062222222223,39.5555555555556L164.70506666666668,39.5555555555556L165.30951111111114,89.00000000000001L165.91395555555553,39.5555555555556L166.51839999999999,89.00000000000001L167.12284444444444,39.5555555555556L167.7272888888889,39.5555555555556L168.33173333333335,39.5555555555556L168.93617777777777,39.5555555555556L169.54062222222223,39.5555555555556L170.14506666666668,39.5555555555556L170.7495111111111,89.00000000000001L171.33582222222222,39.5555555555556L171.94026666666667,39.5555555555556L172.5447111111111,39.5555555555556L173.14915555555555,39.5555555555556L173.7536,39.5555555555556L174.35804444444446,39.5555555555556L174.96248888888888,39.5555555555556L175.56693333333334,39.5555555555556L176.17137777777776,39.5555555555556L176.77582222222222,39.5555555555556L177.38026666666667,39.5555555555556L177.98471111111112,39.5555555555556L178.58915555555558,39.5555555555556L179.17546666666667,39.5555555555556L179.7799111111111,39.5555555555556L180.38435555555554,39.5555555555556L180.9888,39.5555555555556L181.59324444444445,89.00000000000001L182.1976888888889,39.5555555555556L182.80213333333333,39.5555555555556L183.40657777777778,39.5555555555556L184.0110222222222,89.00000000000001L184.61546666666666,89.00000000000001L185.21991111111112,89.00000000000001L185.82435555555554,39.5555555555556L186.4288,39.5555555555556L187.0151111111111,39.5555555555556L187.61955555555556,89.00000000000001L188.224,39.5555555555556L188.82844444444444,39.5555555555556L189.4328888888889,138.44444444444446L190.03733333333332,39.5555555555556L190.64177777777778,39.5555555555556L191.24622222222223,39.5555555555556L191.85066666666668,39.5555555555556L192.45511111111114,39.5555555555556L193.05955555555553,89.00000000000001L193.664,39.5555555555556L194.26844444444444,39.5555555555556L194.85475555555556,89.00000000000001L195.4592,89.00000000000001L196.06364444444446,39.5555555555556L196.6680888888889,39.5555555555556L197.2725333333333,138.44444444444446L197.87697777777777,39.5555555555556L198.48142222222222,39.5555555555556L199.08586666666667,39.5555555555556L199.6903111111111,39.5555555555556L200.29475555555555,39.5555555555556L200.8992,39.5555555555556L201.50364444444446,39.5555555555556L202.1080888888889,39.5555555555556L202.6944,39.5555555555556L203.29884444444446,39.5555555555556L203.90328888888888,39.5555555555556L204.50773333333333,39.5555555555556L205.1121777777778,39.5555555555556L205.71662222222224,39.5555555555556L206.32106666666664,39.5555555555556L206.9255111111111,39.5555555555556L207.52995555555555,39.5555555555556L208.1344,39.5555555555556L208.73884444444445,39.5555555555556L209.3432888888889,39.5555555555556L209.94773333333333,39.5555555555556L210.53404444444442,89.00000000000001L211.13848888888887,39.5555555555556L211.74293333333333,39.5555555555556L212.34737777777778,39.5555555555556L212.95182222222223,39.5555555555556L213.55626666666666,39.5555555555556L214.1607111111111,39.5555555555556L214.76515555555557,39.5555555555556L215.3696,89.00000000000001L215.97404444444444,89.00000000000001L216.57848888888887,39.5555555555556L217.18293333333332,39.5555555555556L217.78737777777778,89.00000000000001L218.3736888888889,39.5555555555556L218.97813333333335,39.5555555555556L219.58257777777777,89.00000000000001L220.1870222222222,39.5555555555556L220.79146666666665,39.5555555555556L221.3959111111111,39.5555555555556L222.00035555555556,39.5555555555556L222.6048,39.5555555555556L223.20924444444447,39.5555555555556L223.8136888888889,39.5555555555556L224.41813333333332,39.5555555555556L225.02257777777777,39.5555555555556L225.62702222222222,39.5555555555556L226.21333333333334,89.00000000000001L226.8177777777778,39.5555555555556L227.42222222222222,39.5555555555556L228.02666666666667,39.5555555555556L228.6311111111111,39.5555555555556L229.23555555555555,39.5555555555556L229.84,39.5555555555556L230.44444444444443,39.5555555555556L231.04888888888888,39.5555555555556L231.65333333333334,39.5555555555556L232.2577777777778,138.44444444444446L232.86222222222224,39.5555555555556L233.46666666666664,138.44444444444446L234.05297777777776,39.5555555555556L234.6574222222222,39.5555555555556L235.26186666666666,39.5555555555556L235.86631111111112,39.5555555555556L236.47075555555557,39.5555555555556L237.07520000000002,39.5555555555556L237.67964444444442,39.5555555555556L238.28408888888887,39.5555555555556L238.88853333333333,39.5555555555556L239.49297777777778,39.5555555555556L240.09742222222224,39.5555555555556L240.70186666666666,89.00000000000001L241.3063111111111,39.5555555555556L241.89262222222223,138.44444444444446L242.49706666666665,39.5555555555556L243.1015111111111,39.5555555555556L243.70595555555556,39.5555555555556L244.3104,39.5555555555556L244.91484444444444,39.5555555555556L245.5192888888889,39.5555555555556L246.12373333333335,39.5555555555556L246.72817777777777,39.5555555555556L247.3326222222222,39.5555555555556L247.93706666666665,39.5555555555556L248.5415111111111,39.5555555555556L249.14595555555556,39.5555555555556L249.73226666666667,39.5555555555556L250.33671111111113,39.5555555555556L250.94115555555558,39.5555555555556L251.54559999999998,39.5555555555556L252.15004444444443,39.5555555555556L252.7544888888889,39.5555555555556L253.35893333333334,39.5555555555556L253.9633777777778,89.00000000000001L254.56782222222222,89.00000000000001L255.17226666666667,39.5555555555556L255.7767111111111,39.5555555555556L256.38115555555555,39.5555555555556L256.9856,89.00000000000001L257.5719111111111,39.5555555555556L258.1763555555556,39.5555555555556L258.7808,39.5555555555556L259.3852444444445,39.5555555555556L259.9896888888889,39.5555555555556L260.59413333333333,39.5555555555556L261.19857777777776,39.5555555555556L261.80302222222224,39.5555555555556L262.40746666666666,39.5555555555556L263.0119111111111,89.00000000000001L263.6163555555556,39.5555555555556L264.2208,39.5555555555556L264.8252444444444,39.5555555555556" style="fill: none;" fill="none"></path></g><g><path stroke="rgb(204, 51, 17)" stroke-width="2px" d="M33.84888888888889,237.33333333333331L34.45333333333333,138.44444444444446L35.05777777777778,138.44444444444446L35.662222222222226,138.44444444444446L36.266666666666666,138.44444444444446L36.87111111111111,138.44444444444446L37.47555555555556,187.88888888888889L38.06186666666667,138.44444444444446L38.66631111111111,39.5555555555556L39.27075555555555,138.44444444444446L39.8752,138.44444444444446L40.479644444444446,89.00000000000001L41.08408888888889,39.5555555555556L41.68853333333333,89.00000000000001L42.29297777777778,138.44444444444446L42.89742222222222,89.00000000000001L43.50186666666667,89.00000000000001L44.10631111111111,237.33333333333331L44.71075555555556,39.5555555555556L45.3152,39.5555555555556L45.901511111111105,39.5555555555556L46.50595555555556,89.00000000000001L47.1104,89.00000000000001L47.714844444444445,39.5555555555556L48.319288888888885,89.00000000000001L48.92373333333334,39.5555555555556L49.52817777777778,39.5555555555556L50.132622222222224,138.44444444444446L50.737066666666664,138.44444444444446L51.34151111111112,39.5555555555556L51.94595555555556,39.5555555555556L52.5504,39.5555555555556L53.15484444444444,89.00000000000001L53.74115555555555,39.5555555555556L54.345600000000005,89.00000000000001L54.950044444444444,39.5555555555556L55.55448888888889,39.5555555555556L56.15893333333333,138.44444444444446L56.76337777777778,39.5555555555556L57.36782222222222,89.00000000000001L57.97226666666667,39.5555555555556L58.57671111111111,39.5555555555556L59.181155555555556,39.5555555555556L59.7856,39.5555555555556L60.39004444444445,39.5555555555556L60.99448888888889,89.00000000000001L61.580799999999996,39.5555555555556L62.18524444444444,89.00000000000001L62.78968888888889,89.00000000000001L63.394133333333336,39.5555555555556L63.998577777777776,89.00000000000001L64.60302222222222,39.5555555555556L65.20746666666666,89.00000000000001L65.81191111111112,89.00000000000001L66.41635555555555,39.5555555555556L67.02080000000001,39.5555555555556L67.62524444444445,39.5555555555556L68.22968888888889,39.5555555555556L68.83413333333333,39.5555555555556L69.42044444444446,39.5555555555556L70.02488888888888,39.5555555555556L70.62933333333334,39.5555555555556L71.23377777777777,39.5555555555556L71.83822222222223,89.00000000000001L72.44266666666667,39.5555555555556L73.04711111111111,39.5555555555556L73.65155555555556,39.5555555555556L74.256,89.00000000000001L74.86044444444444,89.00000000000001L75.4648888888889,89.00000000000001L76.06933333333333,39.5555555555556L76.67377777777779,89.00000000000001L77.26008888888889,39.5555555555556L77.86453333333333,89.00000000000001L78.46897777777778,39.5555555555556L79.07342222222222,39.5555555555556L79.67786666666666,39.5555555555556L80.28231111111111,89.00000000000001L80.88675555555557,39.5555555555556L81.49119999999999,39.5555555555556L82.09564444444445,89.00000000000001L82.70008888888889,89.00000000000001L83.30453333333334,39.5555555555556L83.90897777777778,39.5555555555556L84.51342222222222,39.5555555555556L85.09973333333333,39.5555555555556L85.70417777777777,39.5555555555556L86.30862222222223,39.5555555555556L86.91306666666667,89.00000000000001L87.51751111111112,39.5555555555556L88.12195555555554,39.5555555555556L88.7264,89.00000000000001L89.33084444444445,39.5555555555556L89.93528888888889,39.5555555555556L90.53973333333333,39.5555555555556L91.14417777777777,39.5555555555556L91.74862222222222,39.5555555555556L92.35306666666668,89.00000000000001L92.93937777777778,39.5555555555556L93.54382222222222,39.5555555555556L94.14826666666667,39.5555555555556L94.7527111111111,39.5555555555556L95.35715555555555,39.5555555555556L95.9616,39.5555555555556L96.56604444444444,39.5555555555556L97.17048888888888,39.5555555555556L97.77493333333334,89.00000000000001L98.37937777777778,39.5555555555556L98.98382222222223,39.5555555555556L99.58826666666666,39.5555555555556L100.19271111111111,39.5555555555556L100.77902222222222,39.5555555555556L101.38346666666668,39.5555555555556L101.9879111111111,39.5555555555556L102.59235555555556,39.5555555555556L103.19680000000001,39.5555555555556L103.80124444444444,39.5555555555556L104.40568888888889,39.5555555555556L105.01013333333333,39.5555555555556L105.61457777777778,39.5555555555556L106.21902222222222,39.5555555555556L106.82346666666666,39.5555555555556L107.42791111111111,39.5555555555556L108.03235555555555,39.5555555555556L108.61866666666666,39.5555555555556L109.22311111111111,39.5555555555556L109.82755555555556,39.5555555555556L110.432,39.5555555555556L111.03644444444444,39.5555555555556L111.6408888888889,39.5555555555556L112.24533333333333,138.44444444444446L112.84977777777777,39.5555555555556L113.45422222222221,89.00000000000001L114.05866666666667,39.5555555555556L114.66311111111112,39.5555555555556L115.26755555555555,39.5555555555556L115.872,39.5555555555556L116.45831111111112,39.5555555555556L117.06275555555557,39.5555555555556L117.6672,39.5555555555556L118.27164444444445,39.5555555555556L118.87608888888889,39.5555555555556L119.48053333333334,89.00000000000001L120.08497777777778,39.5555555555556L120.68942222222222,39.5555555555556L121.29386666666667,39.5555555555556L121.8983111111111,39.5555555555556L122.50275555555555,39.5555555555556L123.1072,39.5555555555556L123.71164444444445,89.00000000000001L124.29795555555555,89.00000000000001L124.9024,39.5555555555556L125.50684444444445,39.5555555555556L126.1112888888889,39.5555555555556L126.71573333333333,39.5555555555556L127.32017777777777,39.5555555555556L127.92462222222223,39.5555555555556L128.52906666666667,39.5555555555556L129.13351111111112,39.5555555555556L129.73795555555554,89.00000000000001L130.3424,39.5555555555556L130.94684444444442,39.5555555555556L131.55128888888888,39.5555555555556L132.1376,39.5555555555556L132.74204444444445,39.5555555555556L133.34648888888887,39.5555555555556L133.95093333333332,39.5555555555556L134.55537777777778,39.5555555555556L135.15982222222223,39.5555555555556L135.76426666666666,39.5555555555556L136.3687111111111,39.5555555555556L136.97315555555556,39.5555555555556L137.57760000000002,89.00000000000001L138.18204444444444,39.5555555555556L138.78648888888887,39.5555555555556L139.39093333333332,39.5555555555556L139.97724444444444,39.5555555555556L140.5816888888889,39.5555555555556L141.18613333333334,39.5555555555556L141.7905777777778,39.5555555555556L142.39502222222222,39.5555555555556L142.99946666666668,39.5555555555556L143.6039111111111,39.5555555555556L144.20835555555556,39.5555555555556L144.81279999999998,39.5555555555556L145.41724444444444,39.5555555555556L146.0216888888889,39.5555555555556L146.62613333333334,39.5555555555556L147.2305777777778,89.00000000000001L147.81688888888888,39.5555555555556L148.42133333333334,39.5555555555556L149.02577777777776,39.5555555555556L149.63022222222222,39.5555555555556L150.23466666666667,39.5555555555556L150.83911111111112,39.5555555555556L151.44355555555558,39.5555555555556L152.048,39.5555555555556L152.65244444444443,39.5555555555556L153.25688888888888,39.5555555555556L153.86133333333333,39.5555555555556L154.4657777777778,89.00000000000001L155.0702222222222,39.5555555555556L155.65653333333336,39.5555555555556L156.26097777777778,39.5555555555556L156.8654222222222,39.5555555555556L157.46986666666666,39.5555555555556L158.07431111111111,39.5555555555556L158.67875555555554,39.5555555555556L159.2832,39.5555555555556L159.88764444444445,39.5555555555556L160.4920888888889,39.5555555555556L161.09653333333335,39.5555555555556L161.70097777777778,39.5555555555556L162.3054222222222,39.5555555555556L162.90986666666666,39.5555555555556L163.49617777777777,39.5555555555556L164.10062222222223,39.5555555555556L164.70506666666668,39.5555555555556L165.30951111111114,39.5555555555556L165.91395555555553,89.00000000000001L166.51839999999999,39.5555555555556L167.12284444444444,39.5555555555556L167.7272888888889,39.5555555555556L168.33173333333335,39.5555555555556L168.93617777777777,39.5555555555556L169.54062222222223,39.5555555555556L170.14506666666668,39.5555555555556L170.7495111111111,39.5555555555556L171.33582222222222,39.5555555555556L171.94026666666667,39.5555555555556L172.5447111111111,39.5555555555556L173.14915555555555,39.5555555555556L173.7536,39.5555555555556L174.35804444444446,39.5555555555556L174.96248888888888,39.5555555555556L175.56693333333334,39.5555555555556L176.17137777777776,39.5555555555556L176.77582222222222,39.5555555555556L177.38026666666667,39.5555555555556L177.98471111111112,39.5555555555556L178.58915555555558,39.5555555555556L179.17546666666667,39.5555555555556L179.7799111111111,39.5555555555556L180.38435555555554,39.5555555555556L180.9888,39.5555555555556L181.59324444444445,39.5555555555556L182.1976888888889,39.5555555555556L182.80213333333333,39.5555555555556L183.40657777777778,39.5555555555556L184.0110222222222,39.5555555555556L184.61546666666666,39.5555555555556L185.21991111111112,39.5555555555556L185.82435555555554,39.5555555555556L186.4288,89.00000000000001L187.0151111111111,39.5555555555556L187.61955555555556,39.5555555555556L188.224,39.5555555555556L188.82844444444444,39.5555555555556L189.4328888888889,39.5555555555556L190.03733333333332,39.5555555555556L190.64177777777778,39.5555555555556L191.24622222222223,39.5555555555556L191.85066666666668,39.5555555555556L192.45511111111114,39.5555555555556L193.05955555555553,39.5555555555556L193.664,39.5555555555556L194.26844444444444,39.5555555555556L194.85475555555556,39.5555555555556L195.4592,89.00000000000001L196.06364444444446,39.5555555555556L196.6680888888889,39.5555555555556L197.2725333333333,89.00000000000001L197.87697777777777,39.5555555555556L198.48142222222222,39.5555555555556L199.08586666666667,89.00000000000001L199.6903111111111,39.5555555555556L200.29475555555555,39.5555555555556L200.8992,89.00000000000001L201.50364444444446,39.5555555555556L202.1080888888889,39.5555555555556L202.6944,39.5555555555556L203.29884444444446,39.5555555555556L203.90328888888888,89.00000000000001L204.50773333333333,39.5555555555556L205.1121777777778,39.5555555555556L205.71662222222224,39.5555555555556L206.32106666666664,39.5555555555556L206.9255111111111,39.5555555555556L207.52995555555555,39.5555555555556L208.1344,39.5555555555556L208.73884444444445,39.5555555555556L209.3432888888889,39.5555555555556L209.94773333333333,39.5555555555556L210.53404444444442,39.5555555555556L211.13848888888887,39.5555555555556L211.74293333333333,89.00000000000001L212.34737777777778,39.5555555555556L212.95182222222223,39.5555555555556L213.55626666666666,39.5555555555556L214.1607111111111,39.5555555555556L214.76515555555557,39.5555555555556L215.3696,39.5555555555556L215.97404444444444,39.5555555555556L216.57848888888887,39.5555555555556L217.18293333333332,39.5555555555556L217.78737777777778,39.5555555555556L218.3736888888889,39.5555555555556L218.97813333333335,39.5555555555556L219.58257777777777,39.5555555555556L220.1870222222222,39.5555555555556L220.79146666666665,39.5555555555556L221.3959111111111,39.5555555555556L222.00035555555556,39.5555555555556L222.6048,89.00000000000001L223.20924444444447,39.5555555555556L223.8136888888889,39.5555555555556L224.41813333333332,39.5555555555556L225.02257777777777,39.5555555555556L225.62702222222222,39.5555555555556L226.21333333333334,39.5555555555556L226.8177777777778,39.5555555555556L227.42222222222222,39.5555555555556L228.02666666666667,39.5555555555556L228.6311111111111,39.5555555555556L229.23555555555555,39.5555555555556L229.84,39.5555555555556L230.44444444444443,39.5555555555556L231.04888888888888,39.5555555555556L231.65333333333334,89.00000000000001L232.2577777777778,39.5555555555556L232.86222222222224,39.5555555555556L233.46666666666664,39.5555555555556L234.05297777777776,39.5555555555556L234.6574222222222,39.5555555555556L235.26186666666666,39.5555555555556L235.86631111111112,39.5555555555556L236.47075555555557,39.5555555555556L237.07520000000002,39.5555555555556L237.67964444444442,89.00000000000001L238.28408888888887,39.5555555555556L238.88853333333333,39.5555555555556L239.49297777777778,39.5555555555556L240.09742222222224,39.5555555555556L240.70186666666666,39.5555555555556L241.3063111111111,39.5555555555556L241.89262222222223,39.5555555555556L242.49706666666665,39.5555555555556L243.1015111111111,39.5555555555556L243.70595555555556,39.5555555555556L244.3104,39.5555555555556L244.91484444444444,39.5555555555556L245.5192888888889,39.5555555555556L246.12373333333335,39.5555555555556L246.72817777777777,39.5555555555556L247.3326222222222,39.5555555555556L247.93706666666665,39.5555555555556L248.5415111111111,89.00000000000001L249.14595555555556,39.5555555555556L249.73226666666667,39.5555555555556L250.33671111111113,39.5555555555556L250.94115555555558,39.5555555555556L251.54559999999998,39.5555555555556L252.15004444444443,39.5555555555556L252.7544888888889,39.5555555555556L253.35893333333334,39.5555555555556L253.9633777777778,39.5555555555556L254.56782222222222,39.5555555555556L255.17226666666667,39.5555555555556L255.7767111111111,39.5555555555556L256.38115555555555,39.5555555555556L256.9856,39.5555555555556L257.5719111111111,39.5555555555556L258.1763555555556,39.5555555555556L258.7808,39.5555555555556L259.3852444444445,39.5555555555556L259.9896888888889,39.5555555555556L260.59413333333333,39.5555555555556L261.19857777777776,39.5555555555556L261.80302222222224,39.5555555555556L262.40746666666666,89.00000000000001L263.0119111111111,39.5555555555556L263.6163555555556,39.5555555555556L264.2208,39.5555555555556L264.8252444444444,39.5555555555556" style="fill: none;" fill="none"></path></g><g><path stroke="rgb(51, 187, 238)" stroke-width="2px" d="M32.035555555555554,187.88888888888889L32.64,89.00000000000001L33.24444444444444,89.00000000000001L33.84888888888889,237.33333333333331L34.45333333333333,138.44444444444446L35.05777777777778,138.44444444444446L35.662222222222226,89.00000000000001L36.266666666666666,89.00000000000001L36.87111111111111,89.00000000000001L37.47555555555556,138.44444444444446L38.06186666666667,39.5555555555556L38.66631111111111,138.44444444444446L39.27075555555555,39.5555555555556L39.8752,89.00000000000001L40.479644444444446,39.5555555555556L41.08408888888889,39.5555555555556L41.68853333333333,39.5555555555556L42.29297777777778,39.5555555555556L42.89742222222222,39.5555555555556L43.50186666666667,89.00000000000001L44.10631111111111,89.00000000000001L44.71075555555556,39.5555555555556L45.3152,39.5555555555556L45.901511111111105,39.5555555555556L46.50595555555556,89.00000000000001L47.1104,39.5555555555556L47.714844444444445,39.5555555555556L48.319288888888885,89.00000000000001L48.92373333333334,39.5555555555556L49.52817777777778,39.5555555555556L50.132622222222224,89.00000000000001L50.737066666666664,138.44444444444446L51.34151111111112,39.5555555555556L51.94595555555556,39.5555555555556L52.5504,39.5555555555556L53.15484444444444,39.5555555555556L53.74115555555555,39.5555555555556L54.345600000000005,39.5555555555556L54.950044444444444,39.5555555555556L55.55448888888889,39.5555555555556L56.15893333333333,39.5555555555556L56.76337777777778,39.5555555555556L57.36782222222222,39.5555555555556L57.97226666666667,89.00000000000001L58.57671111111111,89.00000000000001L59.181155555555556,39.5555555555556L59.7856,39.5555555555556L60.39004444444445,89.00000000000001L60.99448888888889,39.5555555555556L61.580799999999996,39.5555555555556L62.18524444444444,39.5555555555556L62.78968888888889,39.5555555555556L63.394133333333336,39.5555555555556L63.998577777777776,89.00000000000001L64.60302222222222,39.5555555555556L65.20746666666666,39.5555555555556L65.81191111111112,39.5555555555556L66.41635555555555,89.00000000000001L67.02080000000001,89.00000000000001L67.62524444444445,39.5555555555556L68.22968888888889,138.44444444444446L68.83413333333333,39.5555555555556L69.42044444444446,39.5555555555556L70.02488888888888,39.5555555555556L70.62933333333334,39.5555555555556L71.23377777777777,39.5555555555556L71.83822222222223,39.5555555555556L72.44266666666667,39.5555555555556L73.04711111111111,89.00000000000001L73.65155555555556,39.5555555555556L74.256,39.5555555555556L74.86044444444444,39.5555555555556L75.4648888888889,39.5555555555556L76.06933333333333,89.00000000000001L76.67377777777779,39.5555555555556L77.26008888888889,39.5555555555556L77.86453333333333,39.5555555555556L78.46897777777778,39.5555555555556L79.07342222222222,39.5555555555556L79.67786666666666,39.5555555555556L80.28231111111111,39.5555555555556L80.88675555555557,39.5555555555556L81.49119999999999,39.5555555555556L82.09564444444445,39.5555555555556L82.70008888888889,39.5555555555556L83.30453333333334,39.5555555555556L83.90897777777778,39.5555555555556L84.51342222222222,39.5555555555556L85.09973333333333,39.5555555555556L85.70417777777777,39.5555555555556L86.30862222222223,89.00000000000001L86.91306666666667,39.5555555555556L87.51751111111112,39.5555555555556L88.12195555555554,39.5555555555556L88.7264,39.5555555555556L89.33084444444445,39.5555555555556L89.93528888888889,39.5555555555556L90.53973333333333,39.5555555555556L91.14417777777777,39.5555555555556L91.74862222222222,39.5555555555556L92.35306666666668,39.5555555555556L92.93937777777778,39.5555555555556L93.54382222222222,39.5555555555556L94.14826666666667,39.5555555555556L94.7527111111111,39.5555555555556L95.35715555555555,39.5555555555556L95.9616,89.00000000000001L96.56604444444444,39.5555555555556L97.17048888888888,39.5555555555556L97.77493333333334,39.5555555555556L98.37937777777778,39.5555555555556L98.98382222222223,39.5555555555556L99.58826666666666,39.5555555555556L100.19271111111111,39.5555555555556L100.77902222222222,39.5555555555556L101.38346666666668,39.5555555555556L101.9879111111111,39.5555555555556L102.59235555555556,39.5555555555556L103.19680000000001,39.5555555555556L103.80124444444444,39.5555555555556L104.40568888888889,39.5555555555556L105.01013333333333,39.5555555555556L105.61457777777778,39.5555555555556L106.21902222222222,39.5555555555556L106.82346666666666,39.5555555555556L107.42791111111111,39.5555555555556L108.03235555555555,89.00000000000001L108.61866666666666,39.5555555555556L109.22311111111111,39.5555555555556L109.82755555555556,39.5555555555556L110.432,39.5555555555556L111.03644444444444,39.5555555555556L111.6408888888889,39.5555555555556L112.24533333333333,39.5555555555556L112.84977777777777,39.5555555555556L113.45422222222221,39.5555555555556L114.05866666666667,39.5555555555556L114.66311111111112,39.5555555555556L115.26755555555555,39.5555555555556L115.872,39.5555555555556L116.45831111111112,39.5555555555556L117.06275555555557,39.5555555555556L117.6672,39.5555555555556L118.27164444444445,39.5555555555556L118.87608888888889,39.5555555555556L119.48053333333334,39.5555555555556L120.08497777777778,39.5555555555556L120.68942222222222,39.5555555555556L121.29386666666667,39.5555555555556L121.8983111111111,39.5555555555556L122.50275555555555,39.5555555555556L123.1072,39.5555555555556L123.71164444444445,39.5555555555556L124.29795555555555,39.5555555555556L124.9024,39.5555555555556L125.50684444444445,39.5555555555556L126.1112888888889,39.5555555555556L126.71573333333333,39.5555555555556L127.32017777777777,39.5555555555556L127.92462222222223,39.5555555555556L128.52906666666667,39.5555555555556L129.13351111111112,39.5555555555556L129.73795555555554,39.5555555555556L130.3424,39.5555555555556L130.94684444444442,39.5555555555556L131.55128888888888,89.00000000000001L132.1376,39.5555555555556L132.74204444444445,39.5555555555556L133.34648888888887,39.5555555555556L133.95093333333332,39.5555555555556L134.55537777777778,39.5555555555556L135.15982222222223,39.5555555555556L135.76426666666666,39.5555555555556L136.3687111111111,39.5555555555556L136.97315555555556,39.5555555555556L137.57760000000002,39.5555555555556L138.18204444444444,39.5555555555556L138.78648888888887,39.5555555555556L139.39093333333332,39.5555555555556L139.97724444444444,39.5555555555556L140.5816888888889,89.00000000000001L141.18613333333334,39.5555555555556L141.7905777777778,39.5555555555556L142.39502222222222,39.5555555555556L142.99946666666668,39.5555555555556L143.6039111111111,39.5555555555556L144.20835555555556,39.5555555555556L144.81279999999998,39.5555555555556L145.41724444444444,39.5555555555556L146.0216888888889,39.5555555555556L146.62613333333334,39.5555555555556L147.2305777777778,39.5555555555556L147.81688888888888,39.5555555555556L148.42133333333334,39.5555555555556L149.02577777777776,39.5555555555556L149.63022222222222,39.5555555555556L150.23466666666667,39.5555555555556L150.83911111111112,39.5555555555556L151.44355555555558,39.5555555555556L152.048,39.5555555555556L152.65244444444443,39.5555555555556L153.25688888888888,39.5555555555556L153.86133333333333,39.5555555555556L154.4657777777778,39.5555555555556L155.0702222222222,39.5555555555556L155.65653333333336,39.5555555555556L156.26097777777778,39.5555555555556L156.8654222222222,39.5555555555556L157.46986666666666,89.00000000000001L158.07431111111111,39.5555555555556L158.67875555555554,89.00000000000001L159.2832,39.5555555555556L159.88764444444445,39.5555555555556L160.4920888888889,39.5555555555556L161.09653333333335,39.5555555555556L161.70097777777778,89.00000000000001L162.3054222222222,39.5555555555556L162.90986666666666,39.5555555555556L163.49617777777777,39.5555555555556L164.10062222222223,39.5555555555556L164.70506666666668,39.5555555555556L165.30951111111114,39.5555555555556L165.91395555555553,39.5555555555556L166.51839999999999,39.5555555555556L167.12284444444444,39.5555555555556L167.7272888888889,39.5555555555556L168.33173333333335,39.5555555555556L168.93617777777777,39.5555555555556L169.54062222222223,39.5555555555556L170.14506666666668,39.5555555555556L170.7495111111111,39.5555555555556L171.33582222222222,39.5555555555556L171.94026666666667,39.5555555555556L172.5447111111111,39.5555555555556L173.14915555555555,39.5555555555556L173.7536,39.5555555555556L174.35804444444446,39.5555555555556L174.96248888888888,39.5555555555556L175.56693333333334,39.5555555555556L176.17137777777776,39.5555555555556L176.77582222222222,39.5555555555556L177.38026666666667,39.5555555555556L177.98471111111112,39.5555555555556L178.58915555555558,39.5555555555556L179.17546666666667,39.5555555555556L179.7799111111111,89.00000000000001L180.38435555555554,39.5555555555556L180.9888,39.5555555555556L181.59324444444445,39.5555555555556L182.1976888888889,39.5555555555556L182.80213333333333,39.5555555555556L183.40657777777778,39.5555555555556L184.0110222222222,39.5555555555556L184.61546666666666,39.5555555555556L185.21991111111112,39.5555555555556L185.82435555555554,39.5555555555556L186.4288,39.5555555555556L187.0151111111111,39.5555555555556L187.61955555555556,39.5555555555556L188.224,39.5555555555556L188.82844444444444,39.5555555555556L189.4328888888889,89.00000000000001L190.03733333333332,39.5555555555556L190.64177777777778,39.5555555555556L191.24622222222223,39.5555555555556L191.85066666666668,39.5555555555556L192.45511111111114,39.5555555555556L193.05955555555553,39.5555555555556L193.664,39.5555555555556L194.26844444444444,39.5555555555556L194.85475555555556,39.5555555555556L195.4592,39.5555555555556L196.06364444444446,39.5555555555556L196.6680888888889,39.5555555555556L197.2725333333333,39.5555555555556L197.87697777777777,39.5555555555556L198.48142222222222,39.5555555555556L199.08586666666667,39.5555555555556L199.6903111111111,39.5555555555556L200.29475555555555,39.5555555555556L200.8992,39.5555555555556L201.50364444444446,39.5555555555556L202.1080888888889,39.5555555555556L202.6944,39.5555555555556L203.29884444444446,39.5555555555556L203.90328888888888,39.5555555555556L204.50773333333333,39.5555555555556L205.1121777777778,39.5555555555556L205.71662222222224,39.5555555555556L206.32106666666664,39.5555555555556L206.9255111111111,89.00000000000001L207.52995555555555,39.5555555555556L208.1344,39.5555555555556L208.73884444444445,39.5555555555556L209.3432888888889,39.5555555555556L209.94773333333333,39.5555555555556L210.53404444444442,39.5555555555556L211.13848888888887,39.5555555555556L211.74293333333333,39.5555555555556L212.34737777777778,39.5555555555556L212.95182222222223,39.5555555555556L213.55626666666666,39.5555555555556L214.1607111111111,39.5555555555556L214.76515555555557,39.5555555555556L215.3696,39.5555555555556L215.97404444444444,39.5555555555556L216.57848888888887,39.5555555555556L217.18293333333332,39.5555555555556L217.78737777777778,39.5555555555556L218.3736888888889,39.5555555555556L218.97813333333335,39.5555555555556L219.58257777777777,39.5555555555556L220.1870222222222,39.5555555555556L220.79146666666665,39.5555555555556L221.3959111111111,39.5555555555556L222.00035555555556,39.5555555555556L222.6048,89.00000000000001L223.20924444444447,39.5555555555556L223.8136888888889,39.5555555555556L224.41813333333332,89.00000000000001L225.02257777777777,39.5555555555556L225.62702222222222,39.5555555555556L226.21333333333334,89.00000000000001L226.8177777777778,39.5555555555556L227.42222222222222,39.5555555555556L228.02666666666667,39.5555555555556L228.6311111111111,89.00000000000001L229.23555555555555,39.5555555555556L229.84,39.5555555555556L230.44444444444443,39.5555555555556L231.04888888888888,39.5555555555556L231.65333333333334,39.5555555555556L232.2577777777778,39.5555555555556L232.86222222222224,39.5555555555556L233.46666666666664,39.5555555555556L234.05297777777776,39.5555555555556L234.6574222222222,39.5555555555556L235.26186666666666,39.5555555555556L235.86631111111112,39.5555555555556L236.47075555555557,39.5555555555556L237.07520000000002,39.5555555555556L237.67964444444442,39.5555555555556L238.28408888888887,39.5555555555556L238.88853333333333,39.5555555555556L239.49297777777778,39.5555555555556L240.09742222222224,39.5555555555556L240.70186666666666,39.5555555555556L241.3063111111111,39.5555555555556L241.89262222222223,39.5555555555556L242.49706666666665,39.5555555555556L243.1015111111111,39.5555555555556L243.70595555555556,39.5555555555556L244.3104,39.5555555555556L244.91484444444444,39.5555555555556L245.5192888888889,39.5555555555556L246.12373333333335,39.5555555555556L246.72817777777777,39.5555555555556L247.3326222222222,39.5555555555556L247.93706666666665,39.5555555555556L248.5415111111111,39.5555555555556L249.14595555555556,39.5555555555556L249.73226666666667,39.5555555555556L250.33671111111113,39.5555555555556L250.94115555555558,89.00000000000001L251.54559999999998,39.5555555555556L252.15004444444443,39.5555555555556L252.7544888888889,39.5555555555556L253.35893333333334,39.5555555555556L253.9633777777778,39.5555555555556L254.56782222222222,39.5555555555556L255.17226666666667,39.5555555555556L255.7767111111111,39.5555555555556L256.38115555555555,39.5555555555556L256.9856,39.5555555555556L257.5719111111111,39.5555555555556L258.1763555555556,39.5555555555556L258.7808,39.5555555555556L259.3852444444445,39.5555555555556L259.9896888888889,39.5555555555556L260.59413333333333,39.5555555555556L261.19857777777776,39.5555555555556L261.80302222222224,39.5555555555556L262.40746666666666,39.5555555555556L263.0119111111111,89.00000000000001L263.6163555555556,39.5555555555556L264.2208,39.5555555555556L264.8252444444444,39.5555555555556" style="fill: none;" fill="none"></path></g></g></g></g></g></g><g transform="translate(58, 178)" clip-path="url(#clip_1)"><clipPath id="clip_1"><rect width="272" height="22"></rect></clipPath><g><g><line x1="0" y1="0" x2="0" y2="5" style="visibility: inherit;" fill="rgb(0, 0, 0)" stroke="rgb(204, 204, 204)" stroke-width="1px"></line><line x1="30.22222222222222" y1="0" x2="30.22222222222222" y2="5" style="visibility: inherit;" fill="rgb(0, 0, 0)" stroke="rgb(204, 204, 204)" stroke-width="1px"></line><line x1="60.44444444444444" y1="0" x2="60.44444444444444" y2="5" style="visibility: inherit;" fill="rgb(0, 0, 0)" stroke="rgb(204, 204, 204)" stroke-width="1px"></line><line x1="90.66666666666666" y1="0" x2="90.66666666666666" y2="5" style="visibility: inherit;" fill="rgb(0, 0, 0)" stroke="rgb(204, 204, 204)" stroke-width="1px"></line><line x1="120.88888888888889" y1="0" x2="120.88888888888889" y2="5" style="visibility: inherit;" fill="rgb(0, 0, 0)" stroke="rgb(204, 204, 204)" stroke-width="1px"></line><line x1="151.11111111111111" y1="0" x2="151.11111111111111" y2="5" style="visibility: inherit;" fill="rgb(0, 0, 0)" stroke="rgb(204, 204, 204)" stroke-width="1px"></line><line x1="181.33333333333331" y1="0" x2="181.33333333333331" y2="5" style="visibility: inherit;" fill="rgb(0, 0, 0)" stroke="rgb(204, 204, 204)" stroke-width="1px"></line><line x1="211.55555555555557" y1="0" x2="211.55555555555557" y2="5" style="visibility: inherit;" fill="rgb(0, 0, 0)" stroke="rgb(204, 204, 204)" stroke-width="1px"></line><line x1="241.77777777777777" y1="0" x2="241.77777777777777" y2="5" style="visibility: inherit;" fill="rgb(0, 0, 0)" stroke="rgb(204, 204, 204)" stroke-width="1px"></line><line x1="272" y1="0" x2="272" y2="5" style="visibility: inherit;" fill="rgb(0, 0, 0)" stroke="rgb(204, 204, 204)" stroke-width="1px"></line></g><g transform="translate(0, 8)"><text x="0" y="0" dx="0em" dy="0.95em" style="text-anchor: middle; visibility: hidden; font-family: &quot;Helvetica Neue&quot;, sans-serif; font-size: 12px; font-weight: 200;" fill="rgb(50, 49, 63)" stroke="none" stroke-width="1px">-5k</text><text x="30.22222222222222" y="0" dx="0em" dy="0.95em" style="text-anchor: middle; visibility: inherit; font-family: &quot;Helvetica Neue&quot;, sans-serif; font-size: 12px; font-weight: 200;" fill="rgb(50, 49, 63)" stroke="none" stroke-width="1px">0</text><text x="60.44444444444444" y="0" dx="0em" dy="0.95em" style="text-anchor: middle; visibility: inherit; font-family: &quot;Helvetica Neue&quot;, sans-serif; font-size: 12px; font-weight: 200;" fill="rgb(50, 49, 63)" stroke="none" stroke-width="1px">5k</text><text x="90.66666666666666" y="0" dx="0em" dy="0.95em" style="text-anchor: middle; visibility: inherit; font-family: &quot;Helvetica Neue&quot;, sans-serif; font-size: 12px; font-weight: 200;" fill="rgb(50, 49, 63)" stroke="none" stroke-width="1px">10k</text><text x="120.88888888888889" y="0" dx="0em" dy="0.95em" style="text-anchor: middle; visibility: inherit; font-family: &quot;Helvetica Neue&quot;, sans-serif; font-size: 12px; font-weight: 200;" fill="rgb(50, 49, 63)" stroke="none" stroke-width="1px">15k</text><text x="151.11111111111111" y="0" dx="0em" dy="0.95em" style="text-anchor: middle; visibility: inherit; font-family: &quot;Helvetica Neue&quot;, sans-serif; font-size: 12px; font-weight: 200;" fill="rgb(50, 49, 63)" stroke="none" stroke-width="1px">20k</text><text x="181.33333333333331" y="0" dx="0em" dy="0.95em" style="text-anchor: middle; visibility: inherit; font-family: &quot;Helvetica Neue&quot;, sans-serif; font-size: 12px; font-weight: 200;" fill="rgb(50, 49, 63)" stroke="none" stroke-width="1px">25k</text><text x="211.55555555555557" y="0" dx="0em" dy="0.95em" style="text-anchor: middle; visibility: inherit; font-family: &quot;Helvetica Neue&quot;, sans-serif; font-size: 12px; font-weight: 200;" fill="rgb(50, 49, 63)" stroke="none" stroke-width="1px">30k</text><text x="241.77777777777777" y="0" dx="0em" dy="0.95em" style="text-anchor: middle; visibility: inherit; font-family: &quot;Helvetica Neue&quot;, sans-serif; font-size: 12px; font-weight: 200;" fill="rgb(50, 49, 63)" stroke="none" stroke-width="1px">35k</text><text x="272" y="0" dx="0em" dy="0.95em" style="text-anchor: middle; visibility: hidden; font-family: &quot;Helvetica Neue&quot;, sans-serif; font-size: 12px; font-weight: 200;" fill="rgb(50, 49, 63)" stroke="none" stroke-width="1px">40k</text></g><line x1="0" y1="0" x2="272" y2="0" fill="rgb(0, 0, 0)" stroke="rgb(204, 204, 204)" stroke-width="1px"></line></g></g></g></g></svg>