<svg viewBox="0 0 330 200" xmlns="http://www.w3.org/2000/svg"><g><g><g><g><g><line x1="34" y1="178" x2="29" y2="178" style="visibility: inherit;" fill="rgb(0, 0, 0)" stroke="rgb(204, 204, 204)" stroke-width="1px"></line><line x1="34" y1="155.75" x2="29" y2="155.75" style="visibility: inherit;" fill="rgb(0, 0, 0)" stroke="rgb(204, 204, 204)" stroke-width="1px"></line><line x1="34" y1="133.5" x2="29" y2="133.5" style="visibility: inherit;" fill="rgb(0, 0, 0)" stroke="rgb(204, 204, 204)" stroke-width="1px"></line><line x1="34" y1="111.25" x2="29" y2="111.25" style="visibility: inherit;" fill="rgb(0, 0, 0)" stroke="rgb(204, 204, 204)" stroke-width="1px"></line><line x1="34" y1="89" x2="29" y2="89" style="visibility: inherit;" fill="rgb(0, 0, 0)" stroke="rgb(204, 204, 204)" stroke-width="1px"></line><line x1="34" y1="66.75" x2="29" y2="66.75" style="visibility: inherit;" fill="rgb(0, 0, 0)" stroke="rgb(204, 204, 204)" stroke-width="1px"></line><line x1="34" y1="44.5" x2="29" y2="44.5" style="visibility: inherit;" fill="rgb(0, 0, 0)" stroke="rgb(204, 204, 204)" stroke-width="1px"></line><line x1="34" y1="22.25" x2="29" y2="22.25" style="visibility: inherit;" fill="rgb(0, 0, 0)" stroke="rgb(204, 204, 204)" stroke-width="1px"></line><line x1="34" y1="0" x2="29" y2="0" style="visibility: inherit;" fill="rgb(0, 0, 0)" stroke="rgb(204, 204, 204)" stroke-width="1px"></line></g><g transform="translate(24, 0)"><text x="0" y="178" dx="0em" dy="0.3em" style="text-anchor: end; visibility: hidden; font-family: &quot;Helvetica Neue&quot;, sans-serif; font-size: 12px; font-weight: 200;" fill="rgb(50, 49, 63)" stroke="none" stroke-width="1px">-2</text><text x="0" y="155.75" dx="0em" dy="0.3em" style="text-anchor: end; visibility: inherit; font-family: &quot;Helvetica Neue&quot;, sans-serif; font-size: 12px; font-weight: 200;" fill="rgb(50, 49, 63)" stroke="none" stroke-width="1px">0</text><text x="0" y="133.5" dx="0em" dy="0.3em" style="text-anchor: end; visibility: hidden; font-family: &quot;Helvetica Neue&quot;, sans-serif; font-size: 12px; font-weight: 200;" fill="rgb(50, 49, 63)" stroke="none" stroke-width="1px">2</text><text x="0" y="111.25" dx="0em" dy="0.3em" style="text-anchor: end; visibility: inherit; font-family: &quot;Helvetica Neue&quot;, sans-serif; font-size: 12px; font-weight: 200;" fill="rgb(50, 49, 63)" stroke="none" stroke-width="1px">4</text><text x="0" y="89" dx="0em" dy="0.3em" style="text-anchor: end; visibility: hidden; font-family: &quot;Helvetica Neue&quot;, sans-serif; font-size: 12px; font-weight: 200;" fill="rgb(50, 49, 63)" stroke="none" stroke-width="1px">6</text><text x="0" y="66.75" dx="0em" dy="0.3em" style="text-anchor: end; visibility: inherit; font-family: &quot;Helvetica Neue&quot;, sans-serif; font-size: 12px; font-weight: 200;" fill="rgb(50, 49, 63)" stroke="none" stroke-width="1px">8</text><text x="0" y="44.5" dx="0em" dy="0.3em" style="text-anchor: end; visibility: hidden; font-family: &quot;Helvetica Neue&quot;, sans-serif; font-size: 12px; font-weight: 200;" fill="rgb(50, 49, 63)" stroke="none" stroke-width="1px">10</text><text x="0" y="22.25" dx="0em" dy="0.3em" style="text-anchor: end; visibility: inherit; font-family: &quot;Helvetica Neue&quot;, sans-serif; font-size: 12px; font-weight: 200;" fill="rgb(50, 49, 63)" stroke="none" stroke-width="1px">12</text><text x="0" y="0" dx="0em" dy="0.3em" style="text-anchor: end; visibility: hidden; font-family: &quot;Helvetica Neue&quot;, sans-serif; font-size: 12px; font-weight: 200;" fill="rgb(50, 49, 63)" stroke="none" stroke-width="1px">14</text></g><line x1="34" y1="0" x2="34" y2="178" fill="rgb(0, 0, 0)" stroke="rgb(204, 204, 204)" stroke-width="1px"></line></g></g><g transform="translate(34, 0)" clip-path="url(#clip_0)"><clipPath id="clip_0"><rect width="296" height="178"></rect></clipPath><g><g><g><line x1="0" y1="0" x2="0" y2="178" fill="rgb(0, 0, 0)" stroke="rgb(60, 60, 60)" stroke-width="1px" opacity="0.25"></line><line x1="32.888888888888886" y1="0" x2="32.888888888888886" y2="178" fill="rgb(0, 0, 0)" stroke="rgb(60, 60, 60)" stroke-width="1px" opacity="0.25"></line><line x1="65.77777777777777" y1="0" x2="65.77777777777777" y2="178" fill="rgb(0, 0, 0)" stroke="rgb(60, 60, 60)" stroke-width="1px" opacity="0.25"></line><line x1="98.66666666666666" y1="0" x2="98.66666666666666" y2="178" fill="rgb(0, 0, 0)" stroke="rgb(60, 60, 60)" stroke-width="1px" opacity="0.25"></line><line x1="131.55555555555554" y1="0" x2="131.55555555555554" y2="178" fill="rgb(0, 0, 0)" stroke="rgb(60, 60, 60)" stroke-width="1px" opacity="0.25"></line><line x1="164.44444444444446" y1="0" x2="164.44444444444446" y2="178" fill="rgb(0, 0, 0)" stroke="rgb(60, 60, 60)" stroke-width="1px" opacity="0.25"></line><line x1="197.33333333333331" y1="0" x2="197.33333333333331" y2="178" fill="rgb(0, 0, 0)" stroke="rgb(60, 60, 60)" stroke-width="1px" opacity="0.25"></line><line x1="230.22222222222223" y1="0" x2="230.22222222222223" y2="178" fill="rgb(0, 0, 0)" stroke="rgb(60, 60, 60)" stroke-width="1px" opacity="0.25"></line><line x1="263.1111111111111" y1="0" x2="263.1111111111111" y2="178" fill="rgb(0, 0, 0)" stroke="rgb(60, 60, 60)" stroke-width="1px" opacity="0.25"></line><line x1="296" y1="0" x2="296" y2="178" fill="rgb(0, 0, 0)" stroke="rgb(60, 60, 60)" stroke-width="1px" opacity="0.25"></line></g><g><line x1="0" y1="178" x2="296" y2="178" fill="rgb(0, 0, 0)" stroke="rgb(60, 60, 60)" stroke-width="1px" opacity="0.25"></line><line x1="0" y1="155.75" x2="296" y2="155.75" fill="rgb(0, 0, 0)" stroke="rgb(60, 60, 60)" stroke-width="1px" opacity="0.25"></line><line x1="0" y1="133.5" x2="296" y2="133.5" fill="rgb(0, 0, 0)" stroke="rgb(60, 60, 60)" stroke-width="1px" opacity="0.25"></line><line x1="0" y1="111.25" x2="296" y2="111.25" fill="rgb(0, 0, 0)" stroke="rgb(60, 60, 60)" stroke-width="1px" opacity="0.25"></line><line x1="0" y1="89" x2="296" y2="89" fill="rgb(0, 0, 0)" stroke="rgb(60, 60, 60)" stroke-width="1px" opacity="0.25"></line><line x1="0" y1="66.75" x2="296" y2="66.75" fill="rgb(0, 0, 0)" stroke="rgb(60, 60, 60)" stroke-width="1px" opacity="0.25"></line><line x1="0" y1="44.5" x2="296" y2="44.5" fill="rgb(0, 0, 0)" stroke="rgb(60, 60, 60)" stroke-width="1px" opacity="0.25"></line><line x1="0" y1="22.25" x2="296" y2="22.25" fill="rgb(0, 0, 0)" stroke="rgb(60, 60, 60)" stroke-width="1px" opacity="0.25"></line><line x1="0" y1="0" x2="296" y2="0" fill="rgb(0, 0, 0)" stroke="rgb(60, 60, 60)" stroke-width="1px" opacity="0.25"></line></g></g></g><g><g><line x1="0" y1="155.75" x2="296" y2="155.75" fill="rgb(0, 0, 0)" stroke="rgb(153, 153, 153)" stroke-width="1.5px"></line></g></g><g><g><line x1="32.888888888888886" y1="0" x2="32.888888888888886" y2="178" fill="rgb(0, 0, 0)" stroke="rgb(153, 153, 153)" stroke-width="1.5px"></line></g></g><g><g><g><g><g><path stroke="rgb(0, 119, 187)" stroke-width="2px" d="M47.998044444444446,-23.6771009199108L48.65582222222223,41.39260302004229L49.3136,54.45804823159659L49.95164444444444,44.67852519420617L50.60942222222222,8.020957504004855L51.267199999999995,-10.29224753757552L51.92497777777778,38.77886256974725L52.58275555555555,57.964975573838416L53.24053333333334,56.68556435548564L53.89831111111111,77.24053123187063L54.556088888888894,92.62676300138628L55.21386666666667,62.490134612397426L55.87164444444445,76.80338043174922L56.52942222222222,96.16449781837532L57.187200000000004,60.08006323637328L57.84497777777778,93.1046045041427L58.48302222222222,114.74947047542172L59.1408,108.37504896791509L59.79857777777777,110.72261858857433L60.45635555555556,110.91232643655509L61.11413333333333,117.11240385956631L61.771911111111116,89.79799975461201L62.42968888888889,104.78712476291226L63.08746666666667,114.91795812285882L63.745244444444445,98.988756550413L64.40302222222222,79.03149483955536L65.0608,53.68299879027758L65.71857777777778,28.641213115292686L66.37635555555555,57.98633504890273L67.0144,82.11121279591285L67.67217777777778,97.92134718058551L68.32995555555556,89.91113474343538L68.98773333333334,115.58322481141059L69.6455111111111,117.5356905807593L70.30328888888889,95.3219346731596L70.96106666666667,91.29637163458389L71.61884444444445,111.14244022118024L72.27662222222222,116.04563866941331L72.9344,116.94989616208196L73.59217777777778,131.07211088259783L74.24995555555554,135.09291037988527L74.90773333333333,133.6599966351501L75.54577777777779,133.24842873002956L76.20355555555555,126.69947047701996L76.86133333333333,124.68212638897612L77.51911111111112,131.13438335420437L78.1768888888889,123.95916654683201L78.83466666666666,134.87348718057302L79.49244444444444,122.27630941039462L80.15022222222223,129.73956111649358L80.808,101.87112076031973L81.46577777777777,118.76975803940184L82.12355555555555,123.45320189814976L82.78133333333334,105.60371492398508L83.43911111111112,125.36225031148032L84.07715555555555,130.18909530836723L84.73493333333333,140.36842767446268L85.39271111111111,115.51012971430438L86.05048888888888,127.83775165336978L86.70826666666666,137.82862046156913L87.36604444444444,98.37917672869318L88.02382222222222,119.74805885718318L88.68159999999999,130.19015545944006L89.33937777777777,139.90651387750881L89.99715555555555,140.51721427309383L90.65493333333333,142.839905661153L91.3127111111111,143.62577746618223L91.97048888888888,137.717730380943L92.60853333333334,135.59599364867842L93.26631111111111,142.53588438076397L93.92408888888889,142.40837810064926L94.58186666666667,146.81438143328174L95.23964444444445,145.1866567091664L95.89742222222222,149.1958385292602L96.5552,151.19363982283548L97.21297777777778,152.62534938039465L97.87075555555556,153.10863757003597L98.52853333333333,144.61949551027567L99.18631111111111,141.54795209718674L99.84408888888889,137.38536748977262L100.50186666666667,140.02946890408847L101.1399111111111,143.63698142775925L101.79768888888889,148.27082652454993L102.45546666666667,146.05333680275334L103.11324444444443,137.51668473698646L103.77102222222221,144.38995211194725L104.4288,145.92188920897703L105.08657777777778,149.29159250451602L105.74435555555554,151.6001680260508L106.40213333333332,124.10280940327695L107.0599111111111,135.72431453105003L107.7176888888889,142.554302486993L108.37546666666665,147.82600723696777L109.03324444444445,149.23420418496744L109.6712888888889,145.37894098875412L110.32906666666668,149.2957455659955L110.98684444444444,139.1727566686302L111.64462222222222,145.56452627581535L112.3024,148.2336563682686L112.96017777777777,151.21765957049314L113.61795555555555,145.0478648172127L114.27573333333333,141.91676413573666L114.93351111111112,134.85989024375584L115.59128888888888,139.99871760687057L116.24906666666666,135.36636453915133L116.90684444444445,143.28683556347187L117.56462222222223,145.67440159457382L118.20266666666666,148.8786035319415L118.86044444444444,151.57686453105495L119.51822222222222,152.05097874427727L120.176,151.98414767637783L120.83377777777777,95.43705962213835L121.49155555555555,119.44955570169068L122.14933333333333,133.95948027770385L122.8071111111111,137.05109903932015L123.46488888888888,139.5720938606286L124.12266666666667,146.04282185216093L124.78044444444446,149.89436666312423L125.43822222222221,152.15826498653058L126.096,142.01990286818483L126.73404444444445,146.50045438594424L127.39182222222223,144.4216555952239L128.0496,148.55590314264347L128.70737777777777,149.7143391316846L129.36515555555556,150.5875440505573L130.02293333333336,151.15717513069086L130.6807111111111,152.5668400329624L131.3384888888889,153.83960112346855L131.99626666666668,151.86712256320504L132.65404444444442,152.1323979988586L133.31182222222222,152.69905157207793L133.9696,153.9189253945312L134.62737777777778,153.1040359958506L135.2654222222222,154.0994131460486L135.9232,148.50341303912984L136.58097777777778,151.3839535691928L137.23875555555557,129.2986868607158L137.89653333333334,138.00361365003317L138.5543111111111,143.44336577607947L139.2120888888889,143.84125183435535L139.86986666666667,148.58516732103976L140.52764444444443,151.2813951685867L141.18542222222223,152.6817485818172L141.8432,153.74569696956306L142.50097777777776,149.91104311211961L143.15875555555556,146.85790730991397L143.7968,150.3539517550375L144.45457777777779,152.21919576696789L145.11235555555555,153.63113233072897L145.77013333333332,148.24858136548605L146.42791111111111,151.21645472391847L147.0856888888889,152.5952470865512L147.74346666666665,153.3326283300915L148.40124444444444,154.2400999608635L149.05902222222224,148.3877286280989L149.7168,151.1383769000053L150.3745777777778,148.9090551843929L151.03235555555554,151.55386195246504L151.69013333333334,153.22785370149688L152.32817777777777,154.23662840484664L152.98595555555556,154.81961301063947L153.64373333333333,114.47308122572572L154.30151111111113,121.9901126829223L154.9592888888889,135.46045578166462L155.6170666666667,143.52839222338568L156.27484444444443,148.40076175801022L156.93262222222222,151.33403876109162L157.5904,145.03940389563581L158.24817777777778,149.03895263081756L158.90595555555555,151.69714245918968L159.56373333333335,151.58353431358086L160.2215111111111,153.19894717534868L160.85955555555554,140.46096557617477L161.5173333333333,145.78707776212866L162.1751111111111,149.77211881127462L162.83288888888887,151.54059494403901L163.49066666666667,152.39160948316993L164.14844444444446,153.54746414316142L164.80622222222223,154.42286917622354L165.46400000000003,154.95146802100817L166.12177777777777,155.2197262318926L166.77955555555553,155.41249120664577L167.43733333333333,145.66683631200777L168.09511111111112,125.30632060205453L168.7528888888889,137.47602134010504L169.39093333333335,144.7855809751827L170.04871111111112,141.769458652954L170.70648888888888,122.23585522259515L171.36426666666665,135.61089958599354L172.02204444444445,143.4207428148457L172.6798222222222,148.35226161188297L173.3376,151.30470154825696L173.99537777777778,153.07694067593724L174.65315555555557,154.12990886590666L175.31093333333334,151.24761110914818L175.9687111111111,153.04786696060341L176.62648888888887,144.96037088646796L177.28426666666667,148.73803064712467L177.9223111111111,144.55066163235057L178.5800888888889,149.03027549918383L179.2378666666667,151.71810641608172L179.89564444444446,141.94102422429046L180.5534222222222,147.46459862013413L181.2112,124.085793354629L181.8689777777778,136.7431936076394L182.52675555555555,144.3459076768822L183.18453333333335,148.89375580469766L183.84231111111112,150.02375360202788L184.5000888888889,152.1534054450512L185.15786666666668,153.59068841769218L185.81564444444444,144.66567220112037L186.45368888888888,146.96764496457786L187.11146666666667,149.96240750248558L187.76924444444444,150.99299215850428L188.42702222222223,152.8950738404822L189.0848,154.03698276845407L189.7425777777778,154.72212494234913L190.40035555555554,155.06212203395768L191.05813333333333,155.33537621910813L191.7159111111111,155.49828474292423L192.3736888888889,155.59892946821014L193.03146666666666,155.54098289216495L193.68924444444445,155.61914275291525L194.34702222222222,153.99998563649035L194.98506666666665,154.57704914880858L195.64284444444442,155.0458995298926L196.30062222222222,155.2165237663021L196.95839999999998,155.36978910701455L197.61617777777778,151.5426942189752L198.27395555555557,152.67067575932853L198.93173333333334,153.7323453395445L199.58951111111114,153.68808544688693L200.24728888888887,136.81143273719115L200.90506666666667,139.65992292051294L201.56284444444444,138.96551006010043L202.22062222222223,145.60337452871124L202.8784,149.5035577403457L203.51644444444446,151.92892855104515L204.17422222222223,119.36138206539576L204.832,132.9376964915873L205.48977777777776,141.918877411579L206.14755555555556,126.51187634986334L206.80533333333332,138.203703144322L207.46311111111112,145.2217380876125L208.12088888888889,149.40557771174795L208.77866666666668,151.94176048784664L209.43644444444445,153.41796917765862L210.09422222222221,146.16716101199106L210.75199999999998,150.00010085958073L211.40977777777778,152.22367067252296L212.04782222222224,148.26835448810277L212.7056,125.3796642259885L213.3633777777778,137.5274775943833L214.02115555555557,144.7944646848248L214.6789333333333,127.17906697827617L215.3367111111111,138.60620947026038L215.9944888888889,145.39947166051164L216.65226666666666,149.53871858123358L217.31004444444446,152.0222205817903L217.96782222222222,148.8874735415104L218.62560000000002,151.62058118463295L219.2833777777778,153.24702247071707L219.94115555555555,154.1834395890739L220.5792,154.677397797424L221.23697777777778,155.1064386784544L221.89475555555555,155.36384039637508L222.55253333333334,155.51521736691632L223.2103111111111,155.57667185849093L223.8680888888889,155.6429708837637L224.52586666666664,155.63304101462177L225.18364444444444,155.66199672243005L225.8414222222222,155.69719378960733L226.4992,155.7183162737644L227.15697777777777,155.72335932068563L227.81475555555556,155.7340155924114L228.47253333333333,155.72145366577817L229.11057777777776,140.20549244826145L229.76835555555553,146.42072369542782L230.42613333333333,149.44916661910455L231.08391111111112,151.3497577210202L231.7416888888889,153.0822719901761L232.39946666666668,154.10032019436125L233.05724444444445,154.75141105902054L233.71502222222225,155.150846104931L234.37279999999998,149.49457573956914L235.03057777777778,118.49513440171879L235.68835555555555,133.39069152379037L236.34613333333334,142.14498639407157L237.0039111111111,121.86252367676735L237.64195555555557,135.41696250546838L238.29973333333334,143.54926560586014L238.9575111111111,142.30866621890854L239.61528888888887,147.62057118987556L240.27306666666667,150.30789730772682L240.93084444444443,152.4847383846361L241.58862222222223,153.77580282387248L242.2464,154.55470655737585L242.9041777777778,155.03230194078844L243.56195555555556,155.3154630293069L244.21973333333332,155.48921840367422L244.8775111111111,154.6634826718432L245.53528888888889,155.09808960310593L246.17333333333335,151.24593964071258L246.8311111111111,151.2257794669341L247.4888888888889,153.02998462504573L248.14666666666668,154.11799077502744L248.8044444444444,154.76794471926604L249.4622222222222,153.9477575933165L250.12,154.61415475166822L250.77777777777777,155.06501501534572L251.43555555555557,154.60118373473998L252.09333333333333,154.84800711715528L252.75111111111113,128.7083628621358L253.4088888888889,139.5184344438707L254.06666666666666,114.13886125016184L254.7047111111111,130.78035348134023L255.3624888888889,140.71953034685126L256.02026666666666,146.72216317824166L256.6780444444444,150.33290588123586L257.33582222222225,152.49974034585347L257.9936,153.7995938203203L258.6513777777778,154.5111109460275L259.30915555555555,154.93245859413628L259.9669333333333,155.25947515648176L260.6247111111111,155.43640474964124L261.2824888888889,155.542091703349L261.9402666666667,136.73467875476697L262.59804444444444,144.34078974697601L263.2360888888889,125.4072803924895L263.89386666666667,137.54409609856705L264.55164444444443,144.8109522200972L265.2094222222222,149.1865670882076L265.8672,151.02228005542815L266.5249777777778,151.62072081455267L267.18275555555556,153.11620573454306L267.8405333333333,154.16505414398435L268.4983111111111,154.7844065854068L269.15608888888886,154.8103431480596L269.8138666666667,154.86433739766295L270.47164444444445,155.2025071043063L271.1294222222222,155.41650076259904L271.7674666666667,155.5427973124369L272.42524444444444,155.6255054505458L273.0830222222222,155.6566144127721L273.7408,155.23144621247496L274.39857777777775,155.30780594703225L275.05635555555557,155.48218712304038L275.71413333333334,155.5892873412013L276.3719111111111,149.7021998766446L277.02968888888887,146.51157419701718L277.6874666666667,150.19910082113924L278.3452444444444,152.41944086487402L279.0030222222222,153.72492136320656L279.6608,142.78634335852377L280.29884444444446,147.81999286566204L280.9566222222222,150.99199571939724L281.6144,152.76659284074555L282.2721777777778,153.95995570444734L282.9299555555556,154.67556654348178L283.58773333333335,155.10523754319073L284.2455111111111,155.3629823205502L284.9032888888889,155.5003329506781L285.56106666666665,155.58686081715024L286.21884444444447,145.16301083652735L286.87662222222224,149.397765124372L287.5344,151.87943348558625L288.1921777777778,153.41227082772184" style="fill: none;" fill="none"></path></g><g><path stroke="rgb(204, 51, 17)" stroke-width="2px" d="M38.15111111111111,-0.8532516822521927L38.808888888888895,18.102486560580644L39.46666666666667,58.1484493826527L40.12444444444445,76.34470868865193L40.782222222222224,80.9029202077969L41.42026666666666,78.89018353884835L42.078044444444444,106.27147222331517L42.73582222222222,113.10159898519535L43.3936,88.42055978229904L44.05137777777777,80.00872894064561L44.70915555555556,104.2819136586261L45.366933333333336,104.98587186429268L46.02471111111112,86.10245778915322L46.68248888888889,108.60489072596467L47.34026666666667,113.9643762065892L47.998044444444446,42.35647922467467L48.65582222222223,79.83832332397625L49.3136,109.62704286634062L49.95164444444444,124.92246987274706L50.60942222222222,102.37549986174184L51.267199999999995,109.11160248598122L51.92497777777778,121.70419384920893L52.58275555555555,129.29506899006282L53.24053333333334,136.82395584950422L53.89831111111111,143.35772840925796L54.556088888888894,125.11904717134097L55.21386666666667,101.52380345222409L55.87164444444445,122.52615853951019L56.52942222222222,135.04108184158616L57.187200000000004,142.83773815072715L57.84497777777778,137.08967202477822L58.48302222222222,143.95281972207047L59.1408,139.41729740564293L59.79857777777777,138.05176010819685L60.45635555555556,142.4966303039058L61.11413333333333,128.53561937140736L61.771911111111116,136.19021111703398L62.42968888888889,130.2982261056592L63.08746666666667,139.92940049653868L63.745244444444445,144.0255021411243L64.40302222222222,142.38820049510554L65.0608,147.48183197477798L65.71857777777778,150.61948793892944L66.37635555555555,121.7507079228806L67.0144,134.64985292914065L67.67217777777778,131.84411479092873L68.32995555555556,120.43256931934374L68.98773333333334,133.54618563612968L69.6455111111111,133.34013105845844L70.30328888888889,140.9104309524093L70.96106666666667,123.063237526713L71.61884444444445,106.6994068734031L72.27662222222222,125.39264668447915L72.9344,131.3194501246402L73.59217777777778,135.98787941011133L74.24995555555554,143.49575871287198L74.90773333333333,147.43086770062692L75.54577777777779,148.41644126704364L76.20355555555555,151.17681990750003L76.86133333333333,152.8639186024658L77.51911111111112,153.8854549268256L78.1768888888889,139.78194596406044L78.83466666666666,143.75414014480248L79.49244444444444,146.13966876042923L80.15022222222223,149.74664171612585L80.808,128.71834306762412L81.46577777777777,88.64014437702771L82.12355555555555,106.96025677864239L82.78133333333334,125.88907023724607L83.43911111111112,123.39071318183358L84.07715555555555,135.77516716226347L84.73493333333333,140.5534676045442L85.39271111111111,146.47418320676027L86.05048888888888,148.3464638337513L86.70826666666666,150.6528348375869L87.36604444444444,132.99517919120262L88.02382222222222,141.98682001343116L88.68159999999999,146.75306187785114L89.33937777777777,132.4939594907549L89.99715555555555,124.41625273483913L90.65493333333333,131.01942649041368L91.3127111111111,140.89767107996198L91.97048888888888,146.81903759273723L92.60853333333334,149.8559832390865L93.26631111111111,151.9074450849277L93.92408888888889,151.3864023666848L94.58186666666667,139.6850211489957L95.23964444444445,145.99900622135098L95.89742222222222,148.1873396662813L96.5552,132.25463252234113L97.21297777777778,135.98890081624776L97.87075555555556,140.62800770151966L98.52853333333333,144.98031455813856L99.18631111111111,149.24420839622587L99.84408888888889,151.7279189591108L100.50186666666667,142.65902777698625L101.1399111111111,144.78803602270477L101.79768888888889,149.0941551019792L102.45546666666667,151.58276816454048L103.11324444444443,153.16567622048566L103.77102222222221,153.2932178820545L104.4288,154.08735363157837L105.08657777777778,154.67294788139162L105.74435555555554,154.67520946615696L106.40213333333332,147.50709610792254L107.0599111111111,150.59745206788037L107.7176888888889,152.41850533827306L108.37546666666665,151.5918083563099L109.03324444444445,153.12022355299217L109.6712888888889,154.09962274538964L110.32906666666668,154.22150318492942L110.98684444444444,151.84581878584322L111.64462222222222,153.12661758245048L112.3024,153.97842026050995L112.96017777777777,154.6671672228911L113.61795555555555,155.01983729730551L114.27573333333333,153.50775192368332L114.93351111111112,147.14833750240985L115.59128888888888,150.53409004066427L116.24906666666666,151.25508921953463L116.90684444444445,152.93002090129954L117.56462222222223,154.0045091461872L118.20266666666666,150.67216954837647L118.86044444444444,152.6466709355792L119.51822222222222,153.77959705035943L120.176,154.52249684129168L120.83377777777777,154.36438847374328L121.49155555555555,154.82249114137608L122.14933333333333,97.55201628936362L122.8071111111111,120.63306958940942L123.46488888888888,128.3224918572147L124.12266666666667,139.01030056941744L124.78044444444446,142.88285786669394L125.43822222222221,146.91717480129563L126.096,149.62734537501075L126.73404444444445,151.60510021778308L127.39182222222223,153.03235676393575L128.0496,153.96884996037582L128.70737777777777,154.07706255519926L129.36515555555556,154.6153059361028L130.02293333333336,141.4818812225847L130.6807111111111,147.11371802625587L131.3384888888889,150.45650468222814L131.99626666666668,152.4377222901174L132.65404444444442,153.44526727694802L133.31182222222222,153.66971645846087L133.9696,154.49238592820694L134.62737777777778,150.3399395313104L135.2654222222222,145.18741497196197L135.9232,149.38896414952222L136.58097777777778,151.8923863897353L137.23875555555557,152.77221756605087L137.89653333333334,153.77434619808363L138.5543111111111,154.55670985984165L139.2120888888889,154.86788754892265L139.86986666666667,155.19992588461307L140.52764444444443,153.9325605228595L141.18542222222223,144.22284327715946L141.8432,148.7147174106259L142.50097777777776,151.52341614143504L143.15875555555556,152.87147650704654L143.7968,148.90448313108607L144.45457777777779,148.31354151160434L145.11235555555555,149.20347740495748L145.77013333333332,151.03469982218473L146.42791111111111,152.9058943232117L147.0856888888889,154.00600177345234L147.74346666666665,154.61221000431513L148.40124444444444,155.01745805048628L149.05902222222224,155.28282296004107L149.7168,149.90488777364618L150.3745777777778,151.451257433327L151.03235555555554,153.13160016288276L151.69013333333334,154.17320745189508L152.32817777777777,153.65867202281666L152.98595555555556,152.8470162618143L153.64373333333333,153.98851850116708L154.30151111111113,153.4329481719998L154.9592888888889,154.00000822948323L155.6170666666667,154.69129321048194L156.27484444444443,154.6904939014884L156.93262222222222,154.21012969086598L157.5904,154.82162707608958L158.24817777777778,153.83917460776578L158.90595555555555,154.55041471449488L159.56373333333335,154.951728174555L160.2215111111111,125.31064555017215L160.85955555555554,131.93301160912551L161.5173333333333,141.4542730038379L162.1751111111111,146.69093952983704L162.83288888888887,150.30647390391053L163.49066666666667,152.45550300637817L164.14844444444446,153.67957063339986L164.80622222222223,153.36961190892956L165.46400000000003,154.3142657677908L166.12177777777777,152.9335397154438L166.77955555555553,154.0590138501654L167.43733333333333,154.6967982868391L168.09511111111112,145.00094258904684L168.7528888888889,149.1856670254557L169.39093333333335,151.77377585120655L170.04871111111112,153.12377423281316L170.70648888888888,154.15515363035072L171.36426666666665,154.7319281274749L172.02204444444445,155.12035309097644L172.6798222222222,155.37067520931853L173.3376,155.42960272023376L173.99537777777778,155.5178793985876L174.65315555555557,155.57523180659012L175.31093333333334,155.64114710568197L175.9687111111111,155.6811857072718L176.62648888888887,155.7085111676578L177.28426666666667,155.69862088220302L177.9223111111111,155.7185238567152L178.5800888888889,155.25086557967413L179.2378666666667,155.4450035551529L179.89564444444446,155.28337408546156L180.5534222222222,135.8075278129789L181.2112,140.4716991887458L181.8689777777778,145.74542130863475L182.52675555555555,149.74183492642982L183.18453333333335,152.14150705098942L183.84231111111112,153.47308915855638L184.5000888888889,154.3574985854456L185.15786666666668,154.8841951395648L185.81564444444444,154.90922628674372L186.45368888888888,155.20020030637662L187.11146666666667,155.36999107741798L187.76924444444444,155.51943719591787L188.42702222222223,155.56826825609335L189.0848,155.60345210190061L189.7425777777778,155.5166696749207L190.40035555555554,152.04179785800437L191.05813333333333,150.51134182007587L191.7159111111111,150.9532139941542L192.3736888888889,152.85629776385358L193.03146666666666,153.85591132427413L193.68924444444445,154.59661080691035L194.34702222222222,155.0401313306233L194.98506666666665,154.1332110554779L195.64284444444442,154.74869327008398L196.30062222222222,155.12260038709445L196.95839999999998,155.3589885460512L197.61617777777778,155.48211117190243L198.27395555555557,155.4711618216276L198.93173333333334,155.58060158561912L199.58951111111114,155.64787863773202L200.24728888888887,155.2940247309631L200.90506666666667,155.35714019597998L201.56284444444444,155.51055240180114L202.22062222222223,155.5573965517753L202.8784,146.86582436609706L203.51644444444446,149.73267393230464L204.17422222222223,152.13054288955826L204.832,153.57410156367737L205.48977777777776,154.44222124599528L206.14755555555556,154.87451290848844L206.80533333333332,155.2232768247824L207.46311111111112,155.39769294965944L208.12088888888889,155.5374567741414L208.77866666666668,155.52890060450198L209.43644444444445,155.61654548945063L210.09422222222221,155.66576174205974L210.75199999999998,153.11020123843213L211.40977777777778,154.1653367845011L212.04782222222224,154.13734225438787L212.7056,141.02949628833983L213.3633777777778,146.91294015111956L214.02115555555557,148.48659659720917L214.6789333333333,147.65120063303385L215.3367111111111,150.22443117695138L215.9944888888889,150.8604922026222L216.65226666666666,72.77942684470564L217.31004444444446,105.96722620473372L217.96782222222222,125.33564759676796L218.62560000000002,122.34479510417664L219.2833777777778,135.66284387464538L219.94115555555555,143.6584838069448L220.5792,148.412399118362L221.23697777777778,150.0943015740622L221.89475555555555,144.06147608317787L222.55253333333334,148.7314152201442L223.2103111111111,151.48827540357357L223.8680888888889,153.13366563023854L224.52586666666664,151.78951599837382L225.18364444444444,153.37353284263583L225.8414222222222,154.31867887657407L226.4992,154.87636498857452L227.15697777777777,155.2222425941604L227.81475555555556,155.43287533782484L228.47253333333333,155.55886157907582L229.11057777777776,155.62858991359195L229.76835555555553,155.6757375629814L230.42613333333333,148.33447330189176L231.08391111111112,151.29889800963863L231.7416888888889,152.65808059092203L232.39946666666668,153.71481208933645L233.05724444444445,154.5204740848139L233.71502222222225,153.5242823070881L234.37279999999998,154.2251748645885L235.03057777777778,154.8280585351338L235.68835555555555,155.19313490754436L236.34613333333334,154.89228127518933L237.0039111111111,154.15587040704276L237.64195555555557,153.97418028963676L238.29973333333334,154.62542729839652L238.9575111111111,155.04909218982402L239.61528888888887,155.3277204277768L240.27306666666667,155.4660439857094L240.93084444444443,153.3942545409947L241.58862222222223,154.14578550158137L242.2464,123.65543976484653L242.9041777777778,136.46839155131212L243.56195555555556,144.12389026255462L244.21973333333332,148.76883724359305L244.8775111111111,151.50022797163282L245.53528888888889,152.96176680047634L246.17333333333335,152.1969578273256L246.8311111111111,153.61360451988475L247.4888888888889,154.19422904498634L248.14666666666668,154.65868443252748L248.8044444444444,155.0495639587878L249.4622222222222,155.32883708747858L250.12,155.46524165751399L250.77777777777777,155.56625382034238L251.43555555555557,155.4499461190224L252.09333333333333,137.51564643003465L252.75111111111113,144.8031211229283L253.4088888888889,149.17707070383995L254.06666666666666,151.78170829656148L254.7047111111111,153.36452336613928L255.3624888888889,154.3180280012425L256.02026666666666,154.5450273145757L256.6780444444444,155.01777381238472L257.33582222222225,155.25762055491808L257.9936,155.4447868617811L258.6513777777778,150.76279704287282L259.30915555555555,152.46250574373977L259.9669333333333,153.7319698457943L260.6247111111111,154.53209996813834L261.2824888888889,155.01317302560528L261.9402666666667,155.3076672206862L262.59804444444444,155.38767046726753L263.2360888888889,154.7217515416265L263.89386666666667,155.0866101475605L264.55164444444443,154.97037909169785L265.2094222222222,155.27579558118913L265.8672,155.46495975806505L266.5249777777778,155.57491162516402L267.18275555555556,155.63694657363274L267.8405333333333,155.60851050257475L268.4983111111111,155.66065651787764L269.15608888888886,155.6391311026421L269.8138666666667,155.64838246796805L270.47164444444445,140.25529560026098L271.1294222222222,146.43578704217452L271.7674666666667,150.1476717263451L272.42524444444444,151.59124827280587L273.0830222222222,153.2472093515705L273.7408,154.241062684737L274.39857777777775,154.61873362482032L275.05635555555557,153.56741231394076L275.71413333333334,154.43899132316065L276.3719111111111,154.9623278898543L277.02968888888887,155.26709855252918L277.6874666666667,155.45958107029654L278.3452444444444,155.5591600659235L279.0030222222222,155.6014412595477L279.6608,155.12023892312624L280.29884444444446,153.25905820613727L280.9566222222222,154.25295380936225L281.6144,154.85064251940713L282.2721777777778,155.1707698035204L282.9299555555556,151.51545217799924L283.58773333333335,153.18297529297303L284.2455111111111,153.32752481894033L284.9032888888889,154.29548034668377L285.56106666666665,147.78086799741035L286.21884444444447,150.91027840269317L286.87662222222224,152.7276311440145L287.5344,153.9205406969427L288.1921777777778,154.65068862585844" style="fill: none;" fill="none"></path></g></g></g></g><g opacity="0.2"><g><g><g><path stroke="rgb(0, 119, 187)" stroke-width="2px" d="M47.34026666666667,-45.322734117507935L47.998044444444446,59.78565001487732L48.65582222222223,138.99669644236565L49.3136,74.0561603307724L49.95164444444444,30.009265661239624L50.60942222222222,-46.9653377532959L51.267199999999995,-37.762038230895996L51.92497777777778,112.38550060987473L52.58275555555555,86.74413871765137L53.24053333333334,54.76644778251648L53.89831111111111,108.07297909259796L54.556088888888894,115.70610955357552L55.21386666666667,17.28519332408905L55.87164444444445,98.27324879169464L56.52942222222222,125.20617359876633L57.187200000000004,5.95341169834137L57.84497777777778,142.64141622185707L58.48302222222222,147.21676936000586L59.1408,98.81341671943665L59.79857777777777,114.24397301673889L60.45635555555556,111.19688820838928L61.11413333333333,126.41251999139786L61.771911111111116,48.826393604278564L62.42968888888889,127.27081227302551L63.08746666666667,130.1142081618309L63.745244444444445,75.0949541926384L64.40302222222222,49.09560227394104L65.0608,15.660254716873169L65.71857777777778,-8.921465396881104L66.37635555555555,102.00401794910431L67.0144,118.29852941632271L67.67217777777778,121.6365487575531L68.32995555555556,77.89581608772278L68.98773333333334,154.09135991334915L69.6455111111111,120.46438923478127L70.30328888888889,62.00130081176758L70.96106666666667,85.25802707672119L71.61884444444445,140.9115431010723L72.27662222222222,123.40043634176254L72.9344,118.3062824010849L73.59217777777778,152.25543296337128L74.24995555555554,141.12410962581635L74.90773333333333,131.51062601804733L75.54577777777779,132.63107687234879L76.20355555555555,116.87603309750557L76.86133333333333,121.65611025691032L77.51911111111112,140.81276880204678L78.1768888888889,113.19634133577347L78.83466666666666,151.24496813118458L79.49244444444444,103.38054275512695L80.15022222222223,140.934438675642L80.808,60.06846022605896L81.46577777777777,144.11771395802498L82.12355555555555,130.47836768627167L82.78133333333334,78.82948446273804L83.43911111111112,155.0000533927232L84.07715555555555,137.4293628036976L84.73493333333333,155.63742622360587L85.39271111111111,78.22268277406693L86.05048888888888,146.32918456196785L86.70826666666666,152.81492367386818L87.36604444444444,39.20501112937927L88.02382222222222,151.80138204991817L88.68159999999999,145.8533003628254L89.33937777777777,154.48105150461197L89.99715555555555,141.4332648664713L90.65493333333333,146.3239427432418L91.3127111111111,144.80458517372608L91.97048888888888,128.85565975308418L92.60853333333334,132.41338855028152L93.26631111111111,152.94572047889233L93.92408888888889,142.21711868047714L94.58186666666667,153.42338643223047L95.23964444444445,142.74506962299347L95.89742222222222,155.20961125940084L96.5552,154.19034176319838L97.21297777777778,154.77291371673346L97.87075555555556,153.8335698544979L98.52853333333333,131.88578242063522L99.18631111111111,136.94063697755337L99.84408888888889,131.14149057865143L100.50186666666667,143.9956210255623L101.1399111111111,149.04825021326542L101.79768888888889,155.2215941697359L102.45546666666667,142.72710222005844L103.11324444444443,124.71170663833618L103.77102222222221,154.6998531743884L104.4288,148.21979485452175L105.08657777777778,154.34614744782448L105.74435555555554,155.06303130835295L106.40213333333332,82.85677146911621L107.0599111111111,153.15657222270966L107.7176888888889,152.7992844209075L108.37546666666665,155.7335643619299L109.03324444444445,151.34649960696697L109.6712888888889,139.59604619443417L110.32906666666668,155.1709524318576L110.98684444444444,123.98827332258224L111.64462222222222,155.15218068659306L112.3024,152.23735150694847L112.96017777777777,155.69366437382996L113.61795555555555,135.7931726872921L114.27573333333333,137.22011311352253L114.93351111111112,124.2745794057846L115.59128888888888,147.70695865154266L116.24906666666666,128.41783493757248L116.90684444444445,155.1675420999527L117.56462222222223,149.25575064122677L118.20266666666666,153.68490643799305L118.86044444444444,155.62425602972507L119.51822222222222,152.76215006411076L120.176,151.8839010745287L120.83377777777777,10.616427540779114L121.49155555555555,155.46829982101917L122.14933333333333,155.72436714172363L122.8071111111111,141.68852718174458L123.46488888888888,143.35358609259129L124.12266666666667,155.74891383945942L124.78044444444446,155.67168387956917L125.43822222222221,155.5541124716401L126.096,126.8123596906662L126.73404444444445,153.22128166258335L127.39182222222223,141.30345740914345L128.0496,154.75727446377277L128.70737777777777,151.4519931152463L129.36515555555556,151.8973514288664L130.02293333333336,152.0116217508912L130.6807111111111,154.6813373863697L131.3384888888889,155.74874275922775L131.99626666666668,148.9084047228098L132.65404444444442,152.53031115233898L133.31182222222222,153.54903193190694L133.9696,155.74873612821102L134.62737777777778,151.88170189782977L135.2654222222222,155.59247887134552L135.9232,140.10941287875175L136.58097777777778,155.70476436428726L137.23875555555557,96.17078679800034L137.89653333333334,151.06100383400917L138.5543111111111,151.60299396514893L139.2120888888889,144.43808092176914L139.86986666666667,155.7010405510664L140.52764444444443,155.32573693990707L141.18542222222223,154.78227870166302L141.8432,155.3416195511818L142.50097777777776,144.15906232595444L143.15875555555556,142.27820360660553L143.7968,155.59801842272282L144.45457777777779,155.01706178486347L145.11235555555555,155.74903717637062L145.77013333333332,140.1747549176216L146.42791111111111,155.66826476156712L147.0856888888889,154.66343563050032L147.74346666666665,154.4387001954019L148.40124444444444,155.60130740702152L149.05902222222224,139.60917162895203L149.7168,155.2643493078649L150.3745777777778,145.5650726109743L151.03235555555554,155.52107210457325L151.69013333333334,155.73884132504463L152.32817777777777,155.7497904598713L152.98595555555556,155.6940899193287L153.64373333333333,53.9532835483551L154.30151111111113,133.2656598687172L154.9592888888889,155.6659704297781L155.6170666666667,155.63029688596725L156.27484444444443,155.709316059947L156.93262222222222,155.7339542657137L157.5904,135.59745159745216L158.24817777777778,155.03827573359013L158.90595555555555,155.6844272017479L159.56373333333335,151.41312209516764L160.2215111111111,155.6220664680004L160.85955555555554,121.35399317741394L161.5173333333333,153.7762460410595L162.1751111111111,155.74968038499355L162.83288888888887,154.19330914318562L163.49066666666667,153.6681312918663L164.14844444444446,155.28124613314867L164.80622222222223,155.73597672581673L165.46400000000003,155.74436628818512L166.12177777777777,155.6221135482192L166.77955555555553,155.70163866877556L167.43733333333333,131.0483539700508L168.09511111111112,94.76554703712463L168.7528888888889,155.73057244718075L169.39093333333335,155.74992042779922L170.04871111111112,137.24527516961098L170.70648888888888,92.93545007705688L171.36426666666665,155.67346613109112L172.02204444444445,155.13550765812397L172.6798222222222,155.74953980743885L173.3376,155.73336145281792L173.99537777777778,155.73529936745763L174.65315555555557,155.7093611508608L175.31093333333334,146.92416447401047L175.9687111111111,155.7482507377863L176.62648888888887,132.82912677526474L177.28426666666667,154.40452028810978L177.9223111111111,138.26960811018944L178.5800888888889,155.7496962994337L179.2378666666667,155.74985279142857L179.89564444444446,127.27540093660355L180.5534222222222,155.7499602138996L181.2112,89.01758545637131L181.8689777777778,155.72929398715496L182.52675555555555,155.74997878074646L183.18453333333335,155.71552799642086L183.84231111111112,151.71875029802322L184.5000888888889,155.34788320958614L185.15786666666668,155.74661287665367L185.81564444444444,131.27814787626266L186.45368888888888,150.4206041097641L187.11146666666667,154.45455130934715L187.76924444444444,152.53886914253235L188.42702222222223,155.7481963634491L189.0848,155.74984616041183L189.7425777777778,155.74983820319176L190.40035555555554,155.5721176713705L191.05813333333333,155.7452574968338L191.7159111111111,155.74264752864838L192.3736888888889,155.749896556139L193.03146666666666,155.45406302809715L193.68924444444445,155.73638254404068L194.34702222222222,151.57124996185303L194.98506666666665,155.44264441728592L195.64284444444442,155.74917510151863L196.30062222222222,155.47246012091637L196.95839999999998,155.59968711808324L197.61617777777778,145.80205188691616L198.27395555555557,154.36264806985855L198.93173333333334,155.32484970986843L199.58951111111114,153.62169560790062L200.24728888888887,111.49645367264748L200.90506666666667,143.9326581954956L201.56284444444444,137.92389076948166L202.22062222222223,155.56017123162746L202.8784,155.35383255779743L203.51644444444446,155.56698476709425L204.17422222222223,70.51006233692169L204.832,153.30216813087463L205.48977777777776,155.3906487915665L206.14755555555556,103.40137475728989L206.80533333333332,155.74144333600998L207.46311111111112,155.74879050254822L208.12088888888889,155.68133714795113L208.77866666666668,155.7460346519947L209.43644444444445,155.6322822123766L210.09422222222221,135.29094876348972L210.75199999999998,155.74951063096523L211.40977777777778,155.5590253919363L212.04782222222224,142.3353802114725L212.7056,91.04662883281708L213.3633777777778,155.74919764697552L214.02115555555557,155.69494532048702L214.6789333333333,100.75597041845322L215.3367111111111,155.7469232082367L215.9944888888889,155.58936494588852L216.65226666666666,155.7475889623165L217.31004444444446,155.7474735826254L217.96782222222222,144.18535298109055L218.62560000000002,155.7202426493168L219.2833777777778,155.68668439984322L219.94115555555555,155.5880652666092L220.5792,155.4183351099491L221.23697777777778,155.75L221.89475555555555,155.7499429732561L222.55253333333334,155.74228282272816L223.2103111111111,155.66885359585285L223.8680888888889,155.74241942167282L224.52586666666664,155.6181462109089L225.18364444444444,155.7054302841425L225.8414222222222,155.74998939037323L226.4992,155.75L227.15697777777777,155.7309238910675L227.81475555555556,155.75L228.47253333333333,155.70261077582836L229.11057777777776,116.93155062198639L229.76835555555553,155.74357056617737L230.42613333333333,153.9918310046196L231.08391111111112,154.20064437389374L231.7416888888889,155.68104339390993L232.39946666666668,155.62739250063896L233.05724444444445,155.72804735600948L233.71502222222225,155.74999867379665L234.37279999999998,141.0101701915264L235.03057777777778,71.99597239494324L235.68835555555555,155.73402720689774L236.34613333333334,155.2764286994934L237.0039111111111,91.438829600811L237.64195555555557,155.7486207485199L238.29973333333334,155.7477202564478L238.9575111111111,140.44776713848114L239.61528888888887,155.58842864632607L240.27306666666667,154.33888648450375L240.93084444444443,155.75L241.58862222222223,155.71239948272705L242.2464,155.72306215763092L242.9041777777778,155.7486950159073L243.56195555555556,155.74020466208458L244.21973333333332,155.74985146522522L244.8775111111111,153.42487907409668L245.53528888888889,155.75L246.17333333333335,145.46771469712257L246.8311111111111,151.1955392062664L247.4888888888889,155.73629236221313L248.14666666666668,155.75L248.8044444444444,155.74287563562393L249.4622222222222,152.71747690439224L250.12,155.6137504891958L250.77777777777777,155.74130541086197L251.43555555555557,153.90543681383133L252.09333333333333,155.21824219077826L252.75111111111113,89.49889647960663L253.4088888888889,155.733541816473L254.06666666666666,76.06950145959854L254.7047111111111,155.74259182810783L255.3624888888889,155.62829564511776L256.02026666666666,155.7261124253273L256.6780444444444,155.74901993572712L257.33582222222225,155.74999204277992L257.9936,155.74937403202057L258.6513777777778,155.57838663458824L259.30915555555555,155.56448006629944L259.9669333333333,155.75L260.6247111111111,155.70179913938046L261.2824888888889,155.70062213391066L261.9402666666667,108.52355933189392L262.59804444444444,155.74995623528957L263.2360888888889,97.00701636075974L263.89386666666667,155.74931965768337L264.55164444444443,155.7112364023924L265.2094222222222,155.74998939037323L265.8672,153.77584950625896L266.5249777777778,152.51838195323944L267.18275555555556,155.35943311452866L267.8405333333333,155.7383267581463L268.4983111111111,155.71343524754047L269.15608888888886,154.84924799203873L269.8138666666667,154.94532877206802L270.47164444444445,155.70976166427135L271.1294222222222,155.73749125003815L271.7674666666667,155.73224213719368L272.42524444444444,155.74956765770912L273.0830222222222,155.70327785611153L273.7408,154.59369391202927L274.39857777777775,155.42234554886818L275.05635555555557,155.74375888705254L275.71413333333334,155.74993766844273L276.3719111111111,140.87156867980957L277.02968888888887,141.72563567757607L277.6874666666667,155.7303907573223L278.3452444444444,155.7499509304762L279.0030222222222,155.68314211070538L279.6608,126.37847635149956L280.29884444444446,155.37046712636948L280.9566222222222,155.75L281.6144,155.42848852276802L282.2721777777778,155.75L282.9299555555556,155.74898280203342L283.58773333333335,155.74974404275417L284.2455111111111,155.74959948658943L284.9032888888889,155.70635889586993L285.56106666666665,155.71665261685848L286.21884444444447,129.52723586559296L286.87662222222224,155.749896556139L287.5344,155.60193602740765L288.1921777777778,155.71152684092522" style="fill: none;" fill="none"></path></g><g><path stroke="rgb(204, 51, 17)" stroke-width="2px" d="M36.83555555555555,-165.26543474197388L37.49333333333334,50.85390388965607L38.15111111111111,96.57587826251984L38.808888888888895,46.24954867362976L39.46666666666667,117.85417968034744L40.12444444444445,103.54007440805435L40.782222222222224,87.72535413503647L41.42026666666666,75.8750216960907L42.078044444444444,147.31121957302094L42.73582222222222,123.34197199344635L43.3936,51.40944516658783L44.05137777777777,67.39311844110489L44.70915555555556,140.68799296021461L45.366933333333336,106.04174482822418L46.02471111111112,57.778372287750244L46.68248888888889,142.3577996790409L47.34026666666667,122.00349861383438L47.998044444444446,-65.05451798439026L48.65582222222223,136.06082306802273L49.3136,154.30999514460564L49.95164444444444,147.8655712455511L50.60942222222222,68.55507946014404L51.267199999999995,119.21575021743774L51.92497777777778,140.59307393431664L52.58275555555555,140.68137918412685L53.24053333333334,148.11728464066982L53.89831111111111,153.15838646888733L54.556088888888894,97.76102662086487L55.21386666666667,66.13093888759613L55.87164444444445,154.02969062887132L56.52942222222222,153.81346660107374L57.187200000000004,154.5327225420624L57.84497777777778,128.46757286787033L58.48302222222222,154.24754124507308L59.1408,132.6140139400959L59.79857777777777,136.00345416367054L60.45635555555556,149.1639355942607L61.11413333333333,107.59410297870636L61.771911111111116,147.67209873348475L62.42968888888889,121.46024858951569L63.08746666666667,154.37616208195686L63.745244444444445,150.16965460777283L64.40302222222222,139.93224802613258L65.0608,155.12227919418365L65.71857777777778,155.32597188511863L66.37635555555555,78.44753789901733L67.0144,153.99857043847442L67.67217777777778,127.63550758361816L68.32995555555556,103.31525111198425L68.98773333333334,153.21661011129618L69.6455111111111,133.03104919195175L70.30328888888889,152.26588079333305L70.96106666666667,96.29244738817215L71.61884444444445,82.15366089344025L72.27662222222222,153.4325064010918L72.9344,140.2096552848816L73.59217777777778,142.99052333831787L74.24995555555554,154.7575776670128L74.90773333333333,153.33353118225932L75.54577777777779,149.8948016166687L76.20355555555555,155.3173878681846L76.86133333333333,155.39456664491445L77.51911111111112,155.41775941336527L78.1768888888889,118.62668251991272L78.83466666666666,149.7124314159155L79.49244444444444,149.71796168386936L80.15022222222223,155.15710114967078L80.808,97.17589509487152L81.46577777777777,28.522846341133118L82.12355555555555,134.44042538106441L82.78133333333334,154.2822904251516L83.43911111111112,119.64317759871483L84.07715555555555,154.35184813290834L84.73493333333333,147.72091826796532L85.39271111111111,155.35525661008433L86.05048888888888,151.15488477423787L86.70826666666666,154.11239134334028L87.36604444444444,106.50869572162628L88.02382222222222,155.4742812467739L88.68159999999999,153.90242467448115L89.33937777777777,111.10530591011047L89.99715555555555,112.2996926009655L90.65493333333333,140.92418712377548L91.3127111111111,155.71503796428442L91.97048888888888,155.70108736190014L92.60853333333334,154.41140170861036L93.26631111111111,154.9846378536895L93.92408888888889,150.60483828932047L94.58186666666667,122.13294932246208L95.23964444444445,155.46998382988386L95.89742222222222,151.46983983367682L96.5552,108.35557180643082L97.21297777777778,141.59030325710773L97.87075555555556,147.58666802942753L98.52853333333333,151.50877484306693L99.18631111111111,155.6400491533568L99.84408888888889,155.4534848034382L100.50186666666667,129.05569100379944L101.1399111111111,147.98154839128256L101.79768888888889,155.5533337208908L102.45546666666667,155.3156877583824L103.11324444444443,155.54003830440342L103.77102222222221,153.48453037440777L104.4288,155.27855725586414L105.08657777777778,155.55133925611153L105.74435555555554,154.67860184330493L106.40213333333332,136.75492607057095L107.0599111111111,155.2329860078171L107.7176888888889,155.15008524386212L108.37546666666665,150.35176288336515L109.03324444444445,155.4128463480156L109.6712888888889,155.5687215339858L110.32906666666668,154.40432384423912L110.98684444444444,148.2822921872139L111.64462222222222,155.0478157773614L112.3024,155.25612427759916L112.96017777777777,155.70028766646283L113.61795555555555,155.54884240892716L114.27573333333333,151.23962386325002L114.93351111111112,137.6092158704996L115.59128888888888,155.61271884804592L116.24906666666666,152.33658798784018L116.90684444444445,155.44241842394695L117.56462222222223,155.61624151351862L118.20266666666666,145.67366015166044L118.86044444444444,155.6084230163833L119.51822222222222,155.47898622252978L120.176,155.63684652769007L120.83377777777777,154.12722592242062L121.49155555555555,155.50964514282532L122.14933333333333,11.64630401134491L122.8071111111111,155.25464953947812L123.46488888888888,139.85662525892258L124.12266666666667,155.04201363772154L124.78044444444446,148.69169381260872L125.43822222222221,152.9686502031982L126.096,153.69260123558342L126.73404444444445,154.57173248194158L127.39182222222223,155.17324158316478L128.0496,155.37358975503594L128.70737777777777,154.23938144743443L129.36515555555556,155.42267100745812L130.02293333333336,121.78174415230751L130.6807111111111,155.56147323176265L131.3384888888889,155.47068466618657L131.99626666666668,155.40954870195128L132.65404444444442,154.95658475719392L133.31182222222222,154.00639023073018L133.9696,155.72639013282605L134.62737777777778,144.11126993596554L135.2654222222222,137.45862813293934L135.9232,155.69128791586263L136.58097777777778,155.64751975005493L137.23875555555557,154.0919643305242L137.89653333333334,155.27753914613277L138.5543111111111,155.7302553524787L139.2120888888889,155.33465408254415L139.86986666666667,155.6979833881487L140.52764444444443,152.03151248022914L141.18542222222223,129.6582674086094L141.8432,155.45252861082554L142.50097777777776,155.73646423764876L143.15875555555556,154.8935670554638L143.7968,142.95399306714535L144.45457777777779,147.42712908238173L145.11235555555555,150.53838124498725L145.77013333333332,153.78153344802558L146.42791111111111,155.71268607475213L147.0856888888889,155.6561629488133L147.74346666666665,155.5215223506093L148.40124444444444,155.625330119743L149.05902222222224,155.68087032437325L149.7168,141.83798499405384L150.3745777777778,153.77081192284822L151.03235555555554,155.65211425721645L151.69013333333334,155.73561838541355L152.32817777777777,152.88686887919903L152.98595555555556,151.62953262031078L153.64373333333333,155.70077186019626L154.30151111111113,152.59959267824888L154.9592888888889,154.85059831570834L155.6170666666667,155.72822068198002L156.27484444444443,154.68929493799806L156.93262222222222,153.4895833749324L157.5904,155.73887315392494L158.24817777777778,152.3654959052801L158.90595555555555,155.61727487458847L159.56373333333335,155.55369836464524L160.2215111111111,80.84902161359787L160.85955555555554,141.86656069755554L161.5173333333333,155.73616509590647L162.1751111111111,154.54593931883574L162.83288888888887,155.7297754650208L163.49066666666667,155.67904666007962L164.14844444444446,155.51567207393236L164.80622222222223,152.90467382222414L165.46400000000003,155.73124655608262L166.12177777777777,150.8624506369233L166.77955555555553,155.7472250522478L167.43733333333333,155.6534749418497L168.09511111111112,130.4571590423584L168.7528888888889,155.462753680069L169.39093333333335,155.65593908983283L170.04871111111112,155.14877180522308L170.70648888888888,155.70222272665706L171.36426666666665,155.59708987316117L172.02204444444445,155.70299053622875L172.6798222222222,155.74615838683167L173.3376,155.5179939866066L173.99537777777778,155.6502944161184L174.65315555555557,155.66126041859388L175.31093333333334,155.74002005431976L175.9687111111111,155.74124360965652L176.62648888888887,155.7494993582368L177.28426666666667,155.68378545402084L177.9223111111111,155.74837831848345L178.5800888888889,154.54937816411257L179.2378666666667,155.73621051837108L179.89564444444446,155.04092988092452L180.5534222222222,106.59375840425491L181.2112,147.4679562523961L181.8689777777778,153.65600448846817L182.52675555555555,155.73645535312244L183.18453333333335,155.74101523782883L183.84231111111112,155.4704623199068L184.5000888888889,155.6841127257794L185.15786666666668,155.67423997074366L185.81564444444444,154.9467730075121L186.45368888888888,155.63666133582592L187.11146666666667,155.62467723398004L187.76924444444444,155.74360637366772L188.42702222222223,155.64151484635659L189.0848,155.65622787061147L189.7425777777778,155.38649603445083L190.40035555555554,146.82949013262987L191.05813333333333,148.21565776318312L191.7159111111111,151.61602225527167L192.3736888888889,155.71092341840267L193.03146666666666,155.35533166490495L193.68924444444445,155.70766003086464L194.34702222222222,155.70541211619275L194.98506666666665,152.7728306427598L195.64284444444442,155.67191659199307L196.30062222222222,155.68346106261015L196.95839999999998,155.71357078448636L197.61617777777778,155.66679511067923L198.27395555555557,155.45473779621534L198.93173333333334,155.7447612316064L199.58951111111114,155.7487942159014L200.24728888888887,154.76324387080967L200.90506666666667,155.4518133935053L201.56284444444444,155.74067071053287L202.22062222222223,155.62766277673654L202.8784,133.82846608757973L203.51644444444446,154.03294828161597L204.17422222222223,155.7273463254387L204.832,155.73943957485608L205.48977777777776,155.74440076947212L206.14755555555556,155.52295040222816L206.80533333333332,155.74642269922333L207.46311111111112,155.659317136975L208.12088888888889,155.74710251086435L208.77866666666668,155.51606635004282L209.43644444444445,155.7480128168736L210.09422222222221,155.7395861209734L210.75199999999998,149.27686048299074L211.40977777777778,155.74804010360458L212.04782222222224,154.09535045921803L212.7056,121.36772733926773L213.3633777777778,155.73810594528913L214.02115555555557,150.8470812663436L214.6789333333333,146.39810668677092L215.3367111111111,154.08427699282765L215.9944888888889,151.81458374112844L216.65226666666666,-44.34217119216919L217.31004444444446,155.74892524477582L217.96782222222222,154.38827968481928L218.62560000000002,117.85851636528969L219.2833777777778,155.63991703034844L219.94115555555555,155.65194370539393L220.5792,155.54327208548784L221.23697777777778,152.61715525761247L221.89475555555555,135.01223784685135L222.55253333333334,155.73632392559375L223.2103111111111,155.62356567871757L223.8680888888889,155.60175097023603L224.52586666666664,149.7732915505767L225.18364444444444,155.74955810902884L225.8414222222222,155.73639792748145L226.4992,155.7128941565752L227.15697777777777,155.74105900253926L227.81475555555556,155.7488244533215L228.47253333333333,155.7478409409523L229.11057777777776,155.73318241536617L229.76835555555553,155.7464590370655L230.42613333333333,137.32257691025734L231.08391111111112,155.74553507125893L231.7416888888889,154.6968544628471L232.39946666666668,155.29990933695808L233.05724444444445,155.7289670780301L233.71502222222225,152.02999464049935L234.37279999999998,155.27651370083913L235.03057777777778,155.73238404095173L235.68835555555555,155.7407494661602L236.34613333333334,154.44100082665682L237.0039111111111,153.05125410482287L237.64195555555557,153.70164511352777L238.29973333333334,155.60229781153612L238.9575111111111,155.68458952696528L239.61528888888887,155.74566278470593L240.27306666666667,155.67352932260837L240.93084444444443,150.2865703739226L241.58862222222223,155.27308194246143L242.2464,77.91992115974426L242.9041777777778,155.6878192310105L243.56195555555556,155.60713832941838L244.21973333333332,155.7362577151507L244.8775111111111,155.59731406369247L245.53528888888889,155.1540750437416L246.17333333333335,151.0497443675995L246.8311111111111,155.73857455872349L247.4888888888889,155.06516583263874L248.14666666666668,155.35536751383916L248.8044444444444,155.6358832481783L249.4622222222222,155.74774678051472L250.12,155.6698485125671L250.77777777777777,155.717772064585L251.43555555555557,155.27548456704244L252.09333333333333,110.61419689655304L252.75111111111113,155.73433316226874L253.4088888888889,155.73799507520744L254.06666666666666,155.68866468564374L254.7047111111111,155.738745970506L255.3624888888889,155.74828495389738L256.02026666666666,154.88552628457546L256.6780444444444,155.72689355909824L257.33582222222225,155.61739066871814L257.9936,155.72553632207564L258.6513777777778,143.73981231451035L259.30915555555555,155.01206879504025L259.9669333333333,155.6361659988761L260.6247111111111,155.7322951516544L261.2824888888889,155.7347826118057L261.9402666666667,155.74940851330757L262.59804444444444,155.50767533713952L263.2360888888889,153.72287315316498L263.89386666666667,155.63389805646148L264.55164444444443,154.79603250790387L265.2094222222222,155.73392031542608L265.8672,155.74870602337887L266.5249777777778,155.73983942581253L267.18275555555556,155.72999899633578L267.8405333333333,155.5658563959878L268.4983111111111,155.73887554083194L269.15608888888886,155.60684297978878L269.8138666666667,155.66225951595698L270.47164444444445,117.16566529870033L271.1294222222222,155.70652420504484L271.7674666666667,155.71549875260098L272.42524444444444,153.756613092497L273.0830222222222,155.73115096971742L273.7408,155.73184268448676L274.39857777777775,155.1852400349453L275.05635555555557,151.99043034762144L275.71413333333334,155.74635983699045L276.3719111111111,155.74733273989477L277.02968888888887,155.7242545465415L277.6874666666667,155.74830484694758L278.3452444444444,155.7085285593639L279.0030222222222,155.66486304998398L279.6608,154.39843541849405L280.29884444444446,150.46728713065386L280.9566222222222,155.74379721419973L281.6144,155.74717558447446L282.2721777777778,155.65096072969027L282.9299555555556,146.03247573971748L283.58773333333335,155.68425996543374L284.2455111111111,153.54434910789132L284.9032888888889,155.7474136382989L285.56106666666665,138.00894947350025L286.21884444444447,155.6043940106174L286.87662222222224,155.4536602559965L287.5344,155.70990502633504L288.1921777777778,155.74591051923198" style="fill: none;" fill="none"></path></g></g></g></g></g></g><g transform="translate(34, 178)" clip-path="url(#clip_1)"><clipPath id="clip_1"><rect width="296" height="22"></rect></clipPath><g><g><line x1="0" y1="0" x2="0" y2="5" style="visibility: inherit;" fill="rgb(0, 0, 0)" stroke="rgb(204, 204, 204)" stroke-width="1px"></line><line x1="32.888888888888886" y1="0" x2="32.888888888888886" y2="5" style="visibility: inherit;" fill="rgb(0, 0, 0)" stroke="rgb(204, 204, 204)" stroke-width="1px"></line><line x1="65.77777777777777" y1="0" x2="65.77777777777777" y2="5" style="visibility: inherit;" fill="rgb(0, 0, 0)" stroke="rgb(204, 204, 204)" stroke-width="1px"></line><line x1="98.66666666666666" y1="0" x2="98.66666666666666" y2="5" style="visibility: inherit;" fill="rgb(0, 0, 0)" stroke="rgb(204, 204, 204)" stroke-width="1px"></line><line x1="131.55555555555554" y1="0" x2="131.55555555555554" y2="5" style="visibility: inherit;" fill="rgb(0, 0, 0)" stroke="rgb(204, 204, 204)" stroke-width="1px"></line><line x1="164.44444444444446" y1="0" x2="164.44444444444446" y2="5" style="visibility: inherit;" fill="rgb(0, 0, 0)" stroke="rgb(204, 204, 204)" stroke-width="1px"></line><line x1="197.33333333333331" y1="0" x2="197.33333333333331" y2="5" style="visibility: inherit;" fill="rgb(0, 0, 0)" stroke="rgb(204, 204, 204)" stroke-width="1px"></line><line x1="230.22222222222223" y1="0" x2="230.22222222222223" y2="5" style="visibility: inherit;" fill="rgb(0, 0, 0)" stroke="rgb(204, 204, 204)" stroke-width="1px"></line><line x1="263.1111111111111" y1="0" x2="263.1111111111111" y2="5" style="visibility: inherit;" fill="rgb(0, 0, 0)" stroke="rgb(204, 204, 204)" stroke-width="1px"></line><line x1="296" y1="0" x2="296" y2="5" style="visibility: inherit;" fill="rgb(0, 0, 0)" stroke="rgb(204, 204, 204)" stroke-width="1px"></line></g><g transform="translate(0, 8)"><text x="0" y="0" dx="0em" dy="0.95em" style="text-anchor: middle; visibility: hidden; font-family: &quot;Helvetica Neue&quot;, sans-serif; font-size: 12px; font-weight: 200;" fill="rgb(50, 49, 63)" stroke="none" stroke-width="1px">-5k</text><text x="32.888888888888886" y="0" dx="0em" dy="0.95em" style="text-anchor: middle; visibility: inherit; font-family: &quot;Helvetica Neue&quot;, sans-serif; font-size: 12px; font-weight: 200;" fill="rgb(50, 49, 63)" stroke="none" stroke-width="1px">0</text><text x="65.77777777777777" y="0" dx="0em" dy="0.95em" style="text-anchor: middle; visibility: inherit; font-family: &quot;Helvetica Neue&quot;, sans-serif; font-size: 12px; font-weight: 200;" fill="rgb(50, 49, 63)" stroke="none" stroke-width="1px">5k</text><text x="98.66666666666666" y="0" dx="0em" dy="0.95em" style="text-anchor: middle; visibility: inherit; font-family: &quot;Helvetica Neue&quot;, sans-serif; font-size: 12px; font-weight: 200;" fill="rgb(50, 49, 63)" stroke="none" stroke-width="1px">10k</text><text x="131.55555555555554" y="0" dx="0em" dy="0.95em" style="text-anchor: middle; visibility: inherit; font-family: &quot;Helvetica Neue&quot;, sans-serif; font-size: 12px; font-weight: 200;" fill="rgb(50, 49, 63)" stroke="none" stroke-width="1px">15k</text><text x="164.44444444444446" y="0" dx="0em" dy="0.95em" style="text-anchor: middle; visibility: inherit; font-family: &quot;Helvetica Neue&quot;, sans-serif; font-size: 12px; font-weight: 200;" fill="rgb(50, 49, 63)" stroke="none" stroke-width="1px">20k</text><text x="197.33333333333331" y="0" dx="0em" dy="0.95em" style="text-anchor: middle; visibility: inherit; font-family: &quot;Helvetica Neue&quot;, sans-serif; font-size: 12px; font-weight: 200;" fill="rgb(50, 49, 63)" stroke="none" stroke-width="1px">25k</text><text x="230.22222222222223" y="0" dx="0em" dy="0.95em" style="text-anchor: middle; visibility: inherit; font-family: &quot;Helvetica Neue&quot;, sans-serif; font-size: 12px; font-weight: 200;" fill="rgb(50, 49, 63)" stroke="none" stroke-width="1px">30k</text><text x="263.1111111111111" y="0" dx="0em" dy="0.95em" style="text-anchor: middle; visibility: inherit; font-family: &quot;Helvetica Neue&quot;, sans-serif; font-size: 12px; font-weight: 200;" fill="rgb(50, 49, 63)" stroke="none" stroke-width="1px">35k</text><text x="296" y="0" dx="0em" dy="0.95em" style="text-anchor: middle; visibility: hidden; font-family: &quot;Helvetica Neue&quot;, sans-serif; font-size: 12px; font-weight: 200;" fill="rgb(50, 49, 63)" stroke="none" stroke-width="1px">40k</text></g><line x1="0" y1="0" x2="296" y2="0" fill="rgb(0, 0, 0)" stroke="rgb(204, 204, 204)" stroke-width="1px"></line></g></g></g></g></svg>