<svg viewBox="0 0 330 200" xmlns="http://www.w3.org/2000/svg"><g><g><g><g><g><line x1="58" y1="178" x2="53" y2="178" style="visibility: inherit;" fill="rgb(0, 0, 0)" stroke="rgb(204, 204, 204)" stroke-width="1px"></line><line x1="58" y1="161.81818181818184" x2="53" y2="161.81818181818184" style="visibility: inherit;" fill="rgb(0, 0, 0)" stroke="rgb(204, 204, 204)" stroke-width="1px"></line><line x1="58" y1="145.63636363636365" x2="53" y2="145.63636363636365" style="visibility: inherit;" fill="rgb(0, 0, 0)" stroke="rgb(204, 204, 204)" stroke-width="1px"></line><line x1="58" y1="129.4545454545455" x2="53" y2="129.4545454545455" style="visibility: inherit;" fill="rgb(0, 0, 0)" stroke="rgb(204, 204, 204)" stroke-width="1px"></line><line x1="58" y1="113.2727272727273" x2="53" y2="113.2727272727273" style="visibility: inherit;" fill="rgb(0, 0, 0)" stroke="rgb(204, 204, 204)" stroke-width="1px"></line><line x1="58" y1="97.0909090909091" x2="53" y2="97.0909090909091" style="visibility: inherit;" fill="rgb(0, 0, 0)" stroke="rgb(204, 204, 204)" stroke-width="1px"></line><line x1="58" y1="80.90909090909093" x2="53" y2="80.90909090909093" style="visibility: inherit;" fill="rgb(0, 0, 0)" stroke="rgb(204, 204, 204)" stroke-width="1px"></line><line x1="58" y1="64.72727272727275" x2="53" y2="64.72727272727275" style="visibility: inherit;" fill="rgb(0, 0, 0)" stroke="rgb(204, 204, 204)" stroke-width="1px"></line><line x1="58" y1="48.54545454545459" x2="53" y2="48.54545454545459" style="visibility: inherit;" fill="rgb(0, 0, 0)" stroke="rgb(204, 204, 204)" stroke-width="1px"></line><line x1="58" y1="32.3636363636364" x2="53" y2="32.3636363636364" style="visibility: inherit;" fill="rgb(0, 0, 0)" stroke="rgb(204, 204, 204)" stroke-width="1px"></line><line x1="58" y1="16.181818181818187" x2="53" y2="16.181818181818187" style="visibility: inherit;" fill="rgb(0, 0, 0)" stroke="rgb(204, 204, 204)" stroke-width="1px"></line><line x1="58" y1="0" x2="53" y2="0" style="visibility: inherit;" fill="rgb(0, 0, 0)" stroke="rgb(204, 204, 204)" stroke-width="1px"></line></g><g transform="translate(48, 0)"><text x="0" y="178" dx="0em" dy="0.3em" style="text-anchor: end; visibility: hidden; font-family: &quot;Helvetica Neue&quot;, sans-serif; font-size: 12px; font-weight: 200;" fill="rgb(50, 49, 63)" stroke="none" stroke-width="1px">0.55</text><text x="0" y="161.81818181818184" dx="0em" dy="0.3em" style="text-anchor: end; visibility: inherit; font-family: &quot;Helvetica Neue&quot;, sans-serif; font-size: 12px; font-weight: 200;" fill="rgb(50, 49, 63)" stroke="none" stroke-width="1px">0.6</text><text x="0" y="145.63636363636365" dx="0em" dy="0.3em" style="text-anchor: end; visibility: hidden; font-family: &quot;Helvetica Neue&quot;, sans-serif; font-size: 12px; font-weight: 200;" fill="rgb(50, 49, 63)" stroke="none" stroke-width="1px">0.65</text><text x="0" y="129.4545454545455" dx="0em" dy="0.3em" style="text-anchor: end; visibility: inherit; font-family: &quot;Helvetica Neue&quot;, sans-serif; font-size: 12px; font-weight: 200;" fill="rgb(50, 49, 63)" stroke="none" stroke-width="1px">0.7</text><text x="0" y="113.2727272727273" dx="0em" dy="0.3em" style="text-anchor: end; visibility: hidden; font-family: &quot;Helvetica Neue&quot;, sans-serif; font-size: 12px; font-weight: 200;" fill="rgb(50, 49, 63)" stroke="none" stroke-width="1px">0.75</text><text x="0" y="97.0909090909091" dx="0em" dy="0.3em" style="text-anchor: end; visibility: inherit; font-family: &quot;Helvetica Neue&quot;, sans-serif; font-size: 12px; font-weight: 200;" fill="rgb(50, 49, 63)" stroke="none" stroke-width="1px">0.8</text><text x="0" y="80.90909090909093" dx="0em" dy="0.3em" style="text-anchor: end; visibility: hidden; font-family: &quot;Helvetica Neue&quot;, sans-serif; font-size: 12px; font-weight: 200;" fill="rgb(50, 49, 63)" stroke="none" stroke-width="1px">0.85</text><text x="0" y="64.72727272727275" dx="0em" dy="0.3em" style="text-anchor: end; visibility: inherit; font-family: &quot;Helvetica Neue&quot;, sans-serif; font-size: 12px; font-weight: 200;" fill="rgb(50, 49, 63)" stroke="none" stroke-width="1px">0.9</text><text x="0" y="48.54545454545459" dx="0em" dy="0.3em" style="text-anchor: end; visibility: hidden; font-family: &quot;Helvetica Neue&quot;, sans-serif; font-size: 12px; font-weight: 200;" fill="rgb(50, 49, 63)" stroke="none" stroke-width="1px">0.95</text><text x="0" y="32.3636363636364" dx="0em" dy="0.3em" style="text-anchor: end; visibility: inherit; font-family: &quot;Helvetica Neue&quot;, sans-serif; font-size: 12px; font-weight: 200;" fill="rgb(50, 49, 63)" stroke="none" stroke-width="1px">1</text><text x="0" y="16.181818181818187" dx="0em" dy="0.3em" style="text-anchor: end; visibility: hidden; font-family: &quot;Helvetica Neue&quot;, sans-serif; font-size: 12px; font-weight: 200;" fill="rgb(50, 49, 63)" stroke="none" stroke-width="1px">1.05</text><text x="0" y="0" dx="0em" dy="0.3em" style="text-anchor: end; visibility: hidden; font-family: &quot;Helvetica Neue&quot;, sans-serif; font-size: 12px; font-weight: 200;" fill="rgb(50, 49, 63)" stroke="none" stroke-width="1px">1.1</text></g><line x1="58" y1="0" x2="58" y2="178" fill="rgb(0, 0, 0)" stroke="rgb(204, 204, 204)" stroke-width="1px"></line></g></g><g transform="translate(58, 0)" clip-path="url(#clip_0)"><clipPath id="clip_0"><rect width="272" height="178"></rect></clipPath><g><g><g><line x1="0" y1="0" x2="0" y2="178" fill="rgb(0, 0, 0)" stroke="rgb(60, 60, 60)" stroke-width="1px" opacity="0.25"></line><line x1="30.22222222222222" y1="0" x2="30.22222222222222" y2="178" fill="rgb(0, 0, 0)" stroke="rgb(60, 60, 60)" stroke-width="1px" opacity="0.25"></line><line x1="60.44444444444444" y1="0" x2="60.44444444444444" y2="178" fill="rgb(0, 0, 0)" stroke="rgb(60, 60, 60)" stroke-width="1px" opacity="0.25"></line><line x1="90.66666666666666" y1="0" x2="90.66666666666666" y2="178" fill="rgb(0, 0, 0)" stroke="rgb(60, 60, 60)" stroke-width="1px" opacity="0.25"></line><line x1="120.88888888888889" y1="0" x2="120.88888888888889" y2="178" fill="rgb(0, 0, 0)" stroke="rgb(60, 60, 60)" stroke-width="1px" opacity="0.25"></line><line x1="151.11111111111111" y1="0" x2="151.11111111111111" y2="178" fill="rgb(0, 0, 0)" stroke="rgb(60, 60, 60)" stroke-width="1px" opacity="0.25"></line><line x1="181.33333333333331" y1="0" x2="181.33333333333331" y2="178" fill="rgb(0, 0, 0)" stroke="rgb(60, 60, 60)" stroke-width="1px" opacity="0.25"></line><line x1="211.55555555555557" y1="0" x2="211.55555555555557" y2="178" fill="rgb(0, 0, 0)" stroke="rgb(60, 60, 60)" stroke-width="1px" opacity="0.25"></line><line x1="241.77777777777777" y1="0" x2="241.77777777777777" y2="178" fill="rgb(0, 0, 0)" stroke="rgb(60, 60, 60)" stroke-width="1px" opacity="0.25"></line><line x1="272" y1="0" x2="272" y2="178" fill="rgb(0, 0, 0)" stroke="rgb(60, 60, 60)" stroke-width="1px" opacity="0.25"></line></g><g><line x1="0" y1="178" x2="272" y2="178" fill="rgb(0, 0, 0)" stroke="rgb(60, 60, 60)" stroke-width="1px" opacity="0.25"></line><line x1="0" y1="161.81818181818184" x2="272" y2="161.81818181818184" fill="rgb(0, 0, 0)" stroke="rgb(60, 60, 60)" stroke-width="1px" opacity="0.25"></line><line x1="0" y1="145.63636363636365" x2="272" y2="145.63636363636365" fill="rgb(0, 0, 0)" stroke="rgb(60, 60, 60)" stroke-width="1px" opacity="0.25"></line><line x1="0" y1="129.4545454545455" x2="272" y2="129.4545454545455" fill="rgb(0, 0, 0)" stroke="rgb(60, 60, 60)" stroke-width="1px" opacity="0.25"></line><line x1="0" y1="113.2727272727273" x2="272" y2="113.2727272727273" fill="rgb(0, 0, 0)" stroke="rgb(60, 60, 60)" stroke-width="1px" opacity="0.25"></line><line x1="0" y1="97.0909090909091" x2="272" y2="97.0909090909091" fill="rgb(0, 0, 0)" stroke="rgb(60, 60, 60)" stroke-width="1px" opacity="0.25"></line><line x1="0" y1="80.90909090909093" x2="272" y2="80.90909090909093" fill="rgb(0, 0, 0)" stroke="rgb(60, 60, 60)" stroke-width="1px" opacity="0.25"></line><line x1="0" y1="64.72727272727275" x2="272" y2="64.72727272727275" fill="rgb(0, 0, 0)" stroke="rgb(60, 60, 60)" stroke-width="1px" opacity="0.25"></line><line x1="0" y1="48.54545454545459" x2="272" y2="48.54545454545459" fill="rgb(0, 0, 0)" stroke="rgb(60, 60, 60)" stroke-width="1px" opacity="0.25"></line><line x1="0" y1="32.3636363636364" x2="272" y2="32.3636363636364" fill="rgb(0, 0, 0)" stroke="rgb(60, 60, 60)" stroke-width="1px" opacity="0.25"></line><line x1="0" y1="16.181818181818187" x2="272" y2="16.181818181818187" fill="rgb(0, 0, 0)" stroke="rgb(60, 60, 60)" stroke-width="1px" opacity="0.25"></line><line x1="0" y1="0" x2="272" y2="0" fill="rgb(0, 0, 0)" stroke="rgb(60, 60, 60)" stroke-width="1px" opacity="0.25"></line></g></g></g><g><g><line x1="0" y1="356" x2="272" y2="356" fill="rgb(0, 0, 0)" stroke="rgb(153, 153, 153)" stroke-width="1.5px"></line></g></g><g><g><line x1="30.22222222222222" y1="0" x2="30.22222222222222" y2="178" fill="rgb(0, 0, 0)" stroke="rgb(153, 153, 153)" stroke-width="1.5px"></line></g></g><g><g><g><g><g><path stroke="rgb(0, 119, 187)" stroke-width="2px" d="M44.10631111111111,198.44468066699048L44.71075555555556,132.01207407583485L45.3152,140.69816835329974L45.901511111111105,145.90981543695952L46.50595555555556,181.40045651131877L47.1104,186.51300306326974L47.714844444444445,141.03506451124844L48.319288888888885,129.9301281428329L48.92373333333334,155.63080620385688L49.52817777777778,122.5057548678005L50.132622222222224,102.63072507851L50.737066666666664,123.06934448936946L51.34151111111112,119.15069756229403L51.94595555555556,100.61769114995474L52.5504,154.22516034357318L53.15484444444444,105.48055064299959L53.74115555555555,76.23378489215872L54.345600000000005,91.04936185626899L54.950044444444444,83.75688983752474L55.55448888888889,95.56322481501469L56.15893333333333,102.64702579932697L56.76337777777778,123.0791245726291L57.36782222222222,119.15656565242375L57.97226666666667,100.62121211803334L58.57671111111111,89.49999999784305L59.181155555555556,115.19090908996101L59.7856,114.4236363630613L60.39004444444445,130.14509090882214L60.99448888888889,107.21432727249929L61.580799999999996,93.45586909074827L62.18524444444444,85.20079418171306L62.78968888888889,80.2477492362975L63.394133333333336,61.09410408722583L63.998577777777776,65.78373517960928L64.60302222222222,100.96115019867946L65.20746666666666,89.70396284647947L65.81191111111112,66.76783225334114L66.41635555555555,53.00615389745883L67.02080000000001,60.9309650657482L67.62524444444445,49.50403358490337L68.22968888888889,42.64787469639654L68.83413333333333,54.71599754511074L69.42044444444446,61.95687125433915L70.02488888888888,82.48321366169448L70.62933333333334,78.61720092428943L71.23377777777777,76.29759328184639L71.83822222222223,74.90582869638054L72.44266666666667,57.888951763282876L73.04711111111111,63.860643785242445L73.65155555555556,67.44365899841816L74.256,85.77528630814183L74.86044444444444,64.41062633033968L75.4648888888889,67.7736485254765L76.06933333333333,69.79146184255862L76.67377777777779,54.820331650989715L77.26008888888889,62.019471717866566L77.86453333333333,50.157137576174506L78.46897777777778,91.58519163661381L79.07342222222222,67.89656952742284L79.67786666666666,53.68339626190827L80.28231111111111,93.70094684805407L80.88675555555557,69.16602265428699L81.49119999999999,54.44506813802677L82.09564444444445,45.61249542827062L82.70008888888889,56.494769984235106L83.30453333333334,46.84231653599562L83.90897777777778,41.05084446705192L84.51342222222222,69.93959758932208L85.09973333333333,71.09103128086595L85.70417777777777,55.600073313974136L86.30862222222223,46.30549853383903L86.91306666666667,40.72875366575795L87.51751111111112,37.38270674490937L88.12195555555554,35.37507859240017L88.7264,34.170501700894675L89.33084444444445,33.44775556599134L89.93528888888889,33.014107885049384L90.53973333333333,48.935737458302356L91.14417777777777,58.48871520225411L91.74862222222222,64.22050184862523L92.35306666666668,51.47775565462969L92.93937777777778,43.83210793823238L93.54382222222222,39.24471930839397L94.14826666666667,52.67410431230914L94.7527111111111,60.73173531465824L95.35715555555555,49.3844957342495L95.9616,42.57615198600428L96.56604444444444,38.49114573705714L97.17048888888888,36.04014198768883L97.77493333333334,50.75135791988605L98.37937777777778,43.3962692973862L98.98382222222223,38.98321612388628L99.58826666666666,36.335384219786334L100.19271111111111,34.74668507732633L100.77902222222222,49.975283773668565L101.38346666666668,42.93062480965571L101.9879111111111,54.88564761306614L102.59235555555556,45.87684311329423L103.19680000000001,40.47156041343109L103.80124444444444,37.22839079351317L104.40568888888889,51.46430720338061L105.01013333333333,60.00585704930114L105.61457777777778,65.13078695685341L106.21902222222222,52.0239267195666L106.82346666666666,60.341628759012664L107.42791111111111,49.15043180086215L108.03235555555555,42.43571362597186L108.61866666666666,38.406882721037675L109.22311111111111,35.989584178077166L109.82755555555556,34.539205052300844L110.432,33.66897757683509L111.03644444444444,49.3286592733738L111.6408888888889,42.54265010947884L112.24533333333333,38.47104461114185L112.84977777777777,52.20989949395782L113.45422222222221,60.45321242364746L114.05866666666667,49.21738199964304L114.66311111111112,42.47588374524037L115.26755555555555,38.430984792598764L115.872,52.185863602831986L116.45831111111112,44.25697270715375L117.06275555555557,55.68145635156495L117.6672,46.35432835639352L118.27164444444445,40.75805155929069L118.87608888888889,37.40028548102899L119.48053333333334,35.38562583407196L120.08497777777778,34.17683004589776L120.68942222222222,33.45155257299322L121.29386666666667,33.01638608925049L121.8983111111111,32.75528619900484L122.50275555555555,32.59862626485747L123.1072,32.504630304369016L123.71164444444445,32.448232728075965L124.29795555555555,32.41439418230013L124.9024,32.39409105483466L125.50684444444445,32.38190917835533L126.1112888888889,48.55641823428593L126.71573333333333,42.07930548602613L127.32017777777777,38.19303783707022L127.92462222222223,52.04309542951485L128.52906666666667,44.17131180316346L129.13351111111112,39.448241627352616L129.73795555555554,36.61439952186612L130.3424,34.91409425857424L130.94684444444442,50.07572928241726L131.55128888888888,59.17271029672308L132.1376,48.44908072348838L132.74204444444445,42.0149029795476L133.34648888888887,38.154396333183115L133.95093333333332,52.01991052718262L134.55537777777778,44.15740086176413L135.15982222222223,39.439895062513045L135.76426666666666,36.60939158296239L136.3687111111111,34.91108949523198L136.97315555555556,50.07392642441192L137.57760000000002,42.98981040010173L138.18204444444444,38.739340785515594L138.78648888888887,36.189059016763935L139.39093333333332,34.658889955512876L139.97724444444444,33.74078851876229L140.5816888888889,33.189927656711944L141.18613333333334,65.22304750311808L141.7905777777778,68.26110122914355L142.39502222222222,53.9021152829407L142.99946666666668,45.286723715218955L143.6039111111111,40.11748877458595L144.20835555555556,37.01594781020614L144.81279999999998,51.336841413396414L145.41724444444444,43.747559393492395L146.0216888888889,39.19399018154999L146.62613333333334,36.46184865438454L147.2305777777778,34.82256373808528L147.81688888888888,50.02081097012389L148.42133333333334,42.9579411275289L149.02577777777776,38.72021922197189L149.63022222222222,36.17758607863766L150.23466666666667,34.652006192637145L150.83911111111112,33.73665826103684L151.44355555555558,33.187449502076646L152.048,32.85792424670055L152.65244444444443,32.66020909347486L153.25688888888888,32.54158000153947L153.86133333333333,64.83403891001458L154.4657777777778,68.02769607328149L155.0702222222222,53.76207218942346L155.65653333333336,45.20269785910861L156.26097777777778,56.248891442737886L156.8654222222222,62.87660759291549L157.46986666666666,50.67141910120385L158.07431111111111,43.34830600617684L158.67875555555554,38.954438149160694L159.2832,36.31811743495095L159.88764444444445,34.73632500642512L160.4920888888889,33.78724954930962L161.09653333333335,49.39962245685848L161.70097777777778,42.585228019569655L162.3054222222222,54.678409539014496L162.90986666666666,45.75250026886323L163.49617777777777,56.57877288859066L164.10062222222223,46.89271827860895L164.70506666666668,41.08108551261992L165.30951111111114,53.77592403484469L165.91395555555553,45.21100896636136L166.51839999999999,56.25387810708958L167.12284444444444,46.69778140970831L167.7272888888889,40.96412339127954L168.33173333333335,37.523928580222275L168.93617777777777,35.45981169358794L169.54062222222223,34.221341561607346L170.14506666666668,33.478259482418935L170.7495111111111,49.2142284167241L171.33582222222222,42.473991595489025L171.94026666666667,38.42984950274797L172.5447111111111,36.00336424710335L173.14915555555555,34.54747309371655L173.7536,33.673938401684495L174.35804444444446,33.14981758646525L174.96248888888888,32.835345097333715L175.56693333333334,32.646661603854795L176.17137777777776,32.53345150776741L176.77582222222222,32.465525450114995L177.38026666666667,32.424769815523575L177.98471111111112,32.40031643476871L178.58915555555558,32.385644406315805L179.17546666666667,32.37684118924403L179.7799111111111,32.371559259000946L180.38435555555554,32.36839010085512L180.9888,32.366488605967646L181.59324444444445,48.54716589085331L182.1976888888889,42.073754079966534L182.80213333333333,38.1897069934345L183.40657777777778,35.859278741515254L184.0110222222222,50.64283997218186L184.61546666666666,59.51297671058185L185.21991111111112,64.83505875362182L185.82435555555554,51.84648979762764L186.4288,44.05334842403116L187.0151111111111,39.37746359987321L187.61955555555556,52.75375088719669L188.224,44.59770507777256L188.82844444444444,39.7040775921181L189.4328888888889,69.13153746436174L190.03733333333332,54.42437702407162L190.64177777777778,45.60008075989754L191.24622222222223,40.30550300139308L191.85066666666668,37.1287563462904L192.45511111111114,35.222708353228825L193.05955555555553,50.26089773921004L193.664,43.1019931889806L194.26844444444444,38.80665045884291L194.85475555555556,52.411263002578465L195.4592,60.57403052881979L196.06364444444446,49.28987286274645L196.6680888888889,42.519378263102396L197.2725333333333,70.82071786695236L197.87697777777777,55.437885265625994L198.48142222222222,46.20818570483013L199.08586666666667,40.67036596835263L199.6903111111111,37.34767412646613L200.29475555555555,35.35405902133422L200.8992,34.15788995825508L201.50364444444446,33.44018852040759L202.1080888888889,33.00956765769914L202.6944,32.75119514007403L203.29884444444446,32.59617162949897L203.90328888888888,32.50315752315393L204.50773333333333,32.44734905934692L205.1121777777778,32.41386398106272L205.71662222222224,32.3937729340922L206.32106666666664,32.38171830590986L206.9255111111111,32.37448552900045L207.52995555555555,32.37014586285483L208.1344,32.36754206316746L208.73884444444445,32.365979783355016L209.3432888888889,32.36504241546757L209.94773333333333,32.36447999473512L210.53404444444442,48.5459607241138L211.13848888888887,42.073030979922805L211.74293333333333,38.18927313340825L212.34737777777778,35.8590184254995L212.95182222222223,34.46086560075423L213.55626666666666,33.62197390590708L214.1607111111111,33.11863888899879L214.76515555555557,32.81663787885384L215.3696,48.81725545458502L215.97404444444444,58.417626000023745L216.57848888888887,47.99603014546881L217.18293333333332,41.743072632735846L217.78737777777778,54.17311630691427L218.3736888888889,45.449324329603115L218.97813333333335,40.21504914321642L219.58257777777777,53.256302213202574L220.1870222222222,44.899235873376114L220.79146666666665,39.88499606948022L221.3959111111111,36.87645218714272L222.00035555555556,35.07132585774016L222.6048,33.988250060098636L223.20924444444447,33.33840458151374L223.8136888888889,32.948497294362824L224.41813333333332,32.714552922072244L225.02257777777777,32.574186298697924L225.62702222222222,32.489966324673304L226.21333333333334,48.62125252207673L226.8177777777778,42.11820605870059L227.42222222222222,38.21637818067492L228.02666666666667,35.875281453859486L228.6311111111111,34.47062341777027L229.23555555555555,33.6278285961167L229.84,33.12215170312456L230.44444444444443,32.8187455673293L231.04888888888888,32.63670188585215L231.65333333333334,32.52747567696588L232.2577777777778,64.82557631527044L232.86222222222224,51.84080033461683L233.46666666666664,76.41357110986101L234.05297777777776,58.79359721137115L234.6574222222222,48.22161287227726L235.26186666666666,41.87842226882091L235.86631111111112,38.07250790674709L236.47075555555557,35.78895928950283L237.07520000000002,34.41883011915624L237.67964444444442,33.596752616948294L238.28408888888887,33.10350611562353L238.88853333333333,32.8075582148287L239.49297777777778,32.62998947435176L240.09742222222224,32.52344823006561L240.70186666666666,48.6413416653121L241.3063111111111,42.13025954464183L241.89262222222223,70.587246635876L242.49706666666665,55.29780252698016L243.1015111111111,46.124136061642645L243.70595555555556,40.619936182440114L244.3104,37.31741625491864L244.91484444444444,35.33590429840575L245.5192888888889,34.14699712449797L246.12373333333335,33.43365282015333L246.72817777777777,33.00564623754656L247.3326222222222,32.74884228798251L247.93706666666665,32.59475991824405L248.5415111111111,32.50231049640098L249.14595555555556,32.44684084329515L249.73226666666667,32.41355905143163L250.33671111111113,32.393589976313564L250.94115555555558,32.38160853124268L251.54559999999998,32.37441966420016L252.15004444444443,32.37010634397467L252.7544888888889,32.36751835183935L253.35893333333334,32.365965556558166L253.9633777777778,48.54685206120763L254.56782222222222,58.255383963997346L255.17226666666667,47.898684923852954L255.7767111111111,41.68466549976631L256.38115555555555,37.956253845314365L256.9856,51.90102503446133L257.5719111111111,44.08606956613133L258.1763555555556,39.39709628513333L258.7808,36.58371231653459L259.3852444444445,34.89568193537531L259.9896888888889,33.88286370667976L260.59413333333333,33.275172769462415L261.19857777777776,32.910558207132L261.80302222222224,32.69178946973375L262.40746666666666,32.56052822729481L263.0119111111111,48.66358966364959L263.6163555555556,42.14360834364433L264.2208,38.23161955164116L264.8252444444444,35.88442627643926" style="fill: none;" fill="none"></path></g><g><path stroke="rgb(204, 51, 17)" stroke-width="2px" d="M34.45333333333333,179.0724566738877L35.05777777777778,152.484620786048L35.662222222222226,136.7044467023743L36.266666666666666,127.29763128110375L36.87111111111111,121.67543137230217L37.47555555555556,134.5129345844287L38.06186666666667,126.01018855389614L38.66631111111111,88.5339469116937L39.27075555555555,98.43225147661462L39.8752,104.36944676388653L40.479644444444446,91.74765891737792L41.08408888888889,67.99260235837244L41.68853333333333,69.92290471720877L42.29297777777778,87.26321413292794L42.89742222222222,81.48512515483783L43.50186666666667,78.01832044177088L44.10631111111111,124.483939709613L44.71075555555556,87.63571361065418L45.3152,65.52684499815693L45.901511111111105,52.26154796744494L46.50595555555556,60.48420655722684L47.1104,65.41779847942301L47.714844444444445,52.19613071014243L48.319288888888885,60.44495224751779L48.92373333333334,49.21242500000642L49.52817777777778,42.47290922363328L50.132622222222224,70.79283725467023L50.737066666666664,87.78479355399678L51.34151111111112,65.6163304491977L51.94595555555556,52.315252732657385L52.5504,44.33460615541529L53.15484444444444,55.728036445905516L53.74115555555555,46.38227640050491L54.345600000000005,56.95663857605686L54.950044444444444,47.1194376863547L55.55448888888889,41.21711715556313L56.15893333333333,70.03936120742205L56.76337777777778,54.969071268341295L57.36782222222222,62.10871548872278L57.97226666666667,50.21068383824303L58.57671111111111,43.07186484824007L59.181155555555556,38.788573454340906L59.7856,36.21859861803827L60.39004444444445,34.676613716270055L60.99448888888889,49.933240957079164L61.580799999999996,42.90539911968975L62.18524444444444,54.870512199099096L62.78968888888889,62.049580046736665L63.394133333333336,50.175202573492086L63.998577777777776,59.23239427137004L64.60302222222222,48.48489110827512L65.20746666666666,58.2182073922386L65.81191111111112,64.05819716261621L66.41635555555555,51.380372843023906L67.02080000000001,43.77367825126879L67.62524444444445,39.2096614962158L68.22968888888889,36.471251443184L68.83413333333333,34.828205411364934L69.42044444444446,33.84237779227351L70.02488888888888,33.25088122081871L70.62933333333334,32.89598327794579L71.23377777777777,32.68304451222204L71.83822222222223,48.737099434605966L72.44266666666667,42.18771420621812L73.04711111111111,38.25808306918543L73.65155555555556,35.900304386965814L74.256,50.66745535945226L74.86044444444444,59.52774594294408L75.4648888888889,64.8439202930392L76.06933333333333,51.851806721278095L76.67377777777779,60.23835676003961L77.26008888888889,49.088468601478326L77.86453333333333,58.58035388815972L78.46897777777778,48.093666878350376L79.07342222222222,41.801654672464764L79.67786666666666,38.02644734893343L80.28231111111111,51.9431411366328L80.88675555555557,44.11133922743423L81.49119999999999,39.41225808191507L82.09564444444445,52.77462757642179L82.70008888888889,60.792049273125826L83.30453333333334,49.42068410933007L83.90897777777778,42.59786501105259L84.51342222222222,38.504173552086115L85.09973333333333,36.04795867670623L85.70417777777777,34.5742297514783L86.30862222222223,33.68999239634152L86.91306666666667,49.34126816507765L87.51751111111112,42.550215444501134L88.12195555555554,38.475583812155236L88.7264,52.21262301456591L89.33084444444445,44.27302835419411L89.93528888888889,39.50927155797103L90.53973333333333,36.651017480237186L91.14417777777777,34.93606503359689L91.74862222222222,33.90709356561268L92.35306666666668,49.47152886664034L92.93937777777778,42.628371865438766L93.54382222222222,38.5224776647178L94.14826666666667,36.05894114428526L94.7527111111111,34.5808192320257L95.35715555555555,33.69394608466999L95.9616,33.16182219625654L96.56604444444444,32.842547863208466L97.17048888888888,32.65098326337963L97.77493333333334,48.717862685300474L98.37937777777778,42.17617215663486L98.98382222222223,38.25115783943545L99.58826666666666,35.89614924911584L100.19271111111111,34.48314409492406L100.77902222222222,33.63534100240898L101.38346666666668,33.126659146899954L101.9879111111111,32.821450033594516L102.59235555555556,32.63832456561127L103.19680000000001,32.528449284821306L103.80124444444444,32.46252411634731L104.40568888888889,32.422969015262964L105.01013333333333,32.39923595461232L105.61457777777778,32.38499611822195L106.21902222222222,32.37645221638775L106.82346666666666,32.3713258752872L107.42791111111111,32.368250070626885L108.03235555555555,32.366404587830715L108.61866666666666,32.36529729815297L109.22311111111111,32.364632924346324L109.82755555555556,32.36423430006235L110.432,32.363995125491954L111.03644444444444,32.363851620749756L111.6408888888889,32.3637655179044L112.24533333333333,64.72735021983354L112.84977777777777,51.78186467735469L113.45422222222221,60.196391533685514L114.05866666666667,49.06328946566586L114.66311111111112,42.38342822485407L115.26755555555555,38.37551148036701L115.872,35.97076143367474L116.45831111111112,34.52791140565938L117.06275555555557,33.66220138885021L117.6672,33.14277537876467L118.27164444444445,32.83111977271335L118.87608888888889,32.64412640908256L119.48053333333334,48.71374857272227L120.08497777777778,42.173703689087915L120.68942222222222,38.24967675890733L121.29386666666667,35.89526060079896L121.8983111111111,34.48261090593391L122.50275555555555,33.63502108901491L123.1072,33.12646719886351L123.71164444444445,49.003153046590825L124.29795555555555,58.52916455522727L124.9024,48.062953278590925L125.50684444444445,41.783226512609104L126.1112888888889,38.01539045302002L126.71573333333333,35.754688817266555L127.32017777777777,34.398267835814494L127.92462222222223,33.58441524694328L128.52906666666667,33.096103693620506L129.13351111111112,32.80311676162685L129.73795555555554,48.80914278424885L130.3424,42.23094021600386L130.94684444444442,38.28401867505687L131.55128888888888,35.915865750488706L132.1376,34.494973995747785L132.74204444444445,33.642438942903226L133.34648888888887,33.13091791119652L133.95093333333332,32.82400529217247L134.55537777777778,32.639857720758044L135.15982222222223,32.52936917790936L135.76426666666666,32.46307605220019L136.3687111111111,32.42330017677466L136.97315555555556,32.39943465151936L137.57760000000002,48.566933518184385L138.18204444444444,42.08561465636518L138.78648888888887,38.196823339273635L139.39093333333332,35.86354854901876L139.97724444444444,34.463583674865816L140.5816888888889,33.62360475037406L141.18613333333334,33.11961739567897L141.7905777777778,32.817224982861944L142.39502222222222,32.63578953517174L142.99946666666668,32.526928266557604L143.6039111111111,32.4616115053891L144.20835555555556,32.42242144868803L144.81279999999998,32.39890741466738L145.41724444444444,32.38479899425499L146.0216888888889,32.37633394200756L146.62613333333334,32.371254910659104L147.2305777777778,48.550025673668216L147.81688888888888,42.075469949655485L148.42133333333334,38.19073651524786L149.02577777777776,35.85989645460327L149.63022222222222,34.46139241821652L150.23466666666667,33.62228999638447L150.83911111111112,33.11882854328525L151.44355555555558,32.81675167142569L152.048,32.635505548309965L152.65244444444443,32.52675787444056L153.25688888888888,32.46150927011888L153.86133333333333,32.42236010752589L154.4657777777778,48.580688791788305L155.0702222222222,42.09386782052755L155.65653333333336,38.2017752377711L156.26097777777778,35.86651968811722L156.8654222222222,34.4653663583249L157.46986666666666,33.62467436044952L158.07431111111111,33.12025916172428L158.67875555555554,32.81761004248912L159.2832,32.636020570948034L159.88764444444445,32.52706688802337L160.4920888888889,32.46169467826857L161.09653333333335,32.4224713524157L161.70097777777778,32.39893735690396L162.3054222222222,32.38481695959695L162.90986666666666,32.376344721212746L163.49617777777777,32.37126137818217L164.10062222222223,32.368211372363874L164.70506666666668,32.36638136887288L165.30951111111114,32.36528336677827L165.91395555555553,48.54644274733968L166.51839999999999,42.073320193858365L167.12284444444444,38.18944666176961L167.7272888888889,35.8591225425163L168.33173333333335,34.46092807096434L168.93617777777777,33.622011388033144L169.54062222222223,33.11866137827445L170.14506666666668,32.816651372419216L170.7495111111111,32.63544536890606L171.33582222222222,32.526721766798175L171.94026666666667,32.46148760553345L172.5447111111111,32.42234710877463L173.14915555555555,32.39886281071932L173.7536,32.38477223188616L174.35804444444446,32.37631788458626L174.96248888888888,32.37124527620631L175.56693333333334,32.36820171117833L176.17137777777776,32.36637557216156L176.77582222222222,32.3652798887515L177.38026666666667,32.36462247870543L177.98471111111112,32.36422803267783L178.58915555555558,32.36399136506125L179.17546666666667,32.3638493644913L179.7799111111111,32.36376416414936L180.38435555555554,32.36371304394416L180.9888,32.36368237182106L181.59324444444445,32.36366396854717L182.1976888888889,32.36365292658286L182.80213333333333,32.36364630140426L183.40657777777778,32.36364232629711L184.0110222222222,32.363639941232805L184.61546666666666,32.36363851019425L185.21991111111112,32.36363765157111L185.82435555555554,32.363637136397216L186.4288,48.545455009111066L187.0151111111111,42.0727275509212L187.61955555555556,38.18909107600726L188.224,35.85890919105893L188.82844444444444,34.460800060089895L189.4328888888889,33.6219345815085L190.03733333333332,33.11861529435967L190.64177777777778,32.81662372207035L191.24622222222223,32.63542877869676L191.85066666666668,32.5267118126726L192.45511111111114,32.4614816330581L193.05955555555553,32.42234352528942L193.664,32.39886066062823L194.26844444444444,32.384770941831476L194.85475555555556,32.37631711055346L195.4592,48.55306299360481L196.06364444444446,42.07729234161744L196.6680888888889,38.19182995042502L197.2725333333333,52.04237069752776L197.87697777777777,44.17087696397121L198.48142222222222,39.447980723837276L199.08586666666667,52.796061161575096L199.6903111111111,44.623091242399624L200.29475555555555,39.71930929089436L200.8992,52.95885830180934L201.50364444444446,44.72076952654015L202.1080888888889,39.777916261378664L202.6944,36.81220430228174L203.29884444444446,35.03277712682362L203.90328888888888,50.146939003366896L204.50773333333333,43.03361794747471L205.1121777777778,38.76562531393938L205.71662222222224,36.20482973381817L206.32106666666664,34.668352385745465L206.9255111111111,33.746465976901845L207.52995555555555,33.19333413159566L208.1344,32.86145502441198L208.73884444444445,32.662327560101716L209.3432888888889,32.54285108151558L209.94773333333333,32.47116519436389L210.53404444444442,32.4281536620729L211.13848888888887,32.40234674269831L211.74293333333333,48.568680772891724L212.34737777777778,42.08666300918955L212.95182222222223,38.19745235096832L213.55626666666666,35.86392595603553L214.1607111111111,34.46381011907587L214.76515555555557,33.62374061690011L215.3696,33.119698915594626L215.97404444444444,32.817273894811336L216.57848888888887,32.63581888234137L217.18293333333332,32.526945874859365L217.78737777777778,32.4616220703702L218.3736888888889,32.42242778767667L218.97813333333335,32.39891121806059L219.58257777777777,32.38480127629089L220.1870222222222,32.3763353112291L220.79146666666665,32.371255732192026L221.3959111111111,32.36820798476978L222.00035555555556,32.36637933631644L222.6048,48.5471003290626L223.20924444444447,42.07371474289212L223.8136888888889,38.189683391189845L224.41813333333332,35.85926458016843L225.02257777777777,34.461013293555624L225.62702222222222,33.62206252158791L226.21333333333334,33.118692058407305L226.8177777777778,32.816669780498955L227.42222222222222,32.63545641375393L228.02666666666667,32.52672839370692L228.6311111111111,32.4614915816787L229.23555555555555,32.4223494944618L229.84,32.39886424213162L230.44444444444443,32.38477309073352L231.04888888888888,32.37631839989467L231.65333333333334,48.55306376720955L232.2577777777778,42.077292805780246L232.86222222222224,38.1918302289227L233.46666666666664,35.86055268280816L234.05297777777776,34.461786155139436L234.6574222222222,33.6225262385382L235.26186666666666,33.11897028857746L235.86631111111112,32.81683671860105L236.47075555555557,32.63555657661519L237.07520000000002,32.52678849142367L237.67964444444442,48.643345822126975L238.28408888888887,42.131462038730746L238.88853333333333,38.22433176869299L239.49297777777778,35.880053606670344L240.09742222222224,34.47348670945678L240.70186666666666,33.62954657112863L241.3063111111111,33.12318248813173L241.89262222222223,32.81936403833362L242.49706666666665,32.63707296845473L243.1015111111111,32.5276983265274L243.70595555555556,32.46207354137101L244.3104,32.42269867027716L244.91484444444444,32.39907374762083L245.5192888888889,32.38489879402704L246.12373333333335,32.376393821870806L246.72817777777777,32.37129083857704L247.3326222222222,32.36822904860077L247.93706666666665,32.366391974615L248.5415111111111,48.547107912041724L249.14595555555556,42.07371929267961L249.73226666666667,38.18968612106232L250.33671111111113,35.85926621809196L250.94115555555558,34.461014276309726L251.54559999999998,33.62206311124041L252.15004444444443,33.11869241219881L252.7544888888889,32.81666999277385L253.35893333333334,32.635456541118856L253.9633777777778,32.526728470125875L254.56782222222222,32.46149162753008L255.17226666666667,32.42234952197262L255.7767111111111,32.3988642586381L256.38115555555555,32.38477310063743L256.9856,32.376318405837026L257.5719111111111,32.371245588956754L258.1763555555556,32.3682018988286L258.7808,32.36637568475169L259.3852444444445,32.36527995630556L259.9896888888889,32.364622519237884L260.59413333333333,32.36422805699732L261.19857777777776,32.36399137965296L261.80302222222224,32.363849373246296L262.40746666666666,48.54558235122053L263.0119111111111,42.072803956186874L263.6163555555556,38.189136919166685L264.2208,35.85893669695457L264.8252444444444,34.460816563627276" style="fill: none;" fill="none"></path></g></g></g></g><g opacity="0.2"><g><g><g><path stroke="rgb(0, 119, 187)" stroke-width="2px" d="M43.50186666666667,234.63636363636365L44.10631111111111,113.2727272727273L44.71075555555556,32.3636363636364L45.3152,153.72727272727275L45.901511111111105,153.72727272727275L46.50595555555556,234.63636363636365L47.1104,194.1818181818182L47.714844444444445,72.81818181818183L48.319288888888885,113.2727272727273L48.92373333333334,194.1818181818182L49.52817777777778,72.81818181818183L50.132622222222224,72.81818181818183L50.737066666666664,153.72727272727275L51.34151111111112,113.2727272727273L51.94595555555556,72.81818181818183L52.5504,234.63636363636365L53.15484444444444,32.3636363636364L53.74115555555555,32.3636363636364L54.345600000000005,113.2727272727273L54.950044444444444,72.81818181818183L55.55448888888889,113.2727272727273L56.15893333333333,113.2727272727273L56.76337777777778,153.72727272727275L57.36782222222222,113.2727272727273L57.97226666666667,72.81818181818183L58.57671111111111,72.81818181818183L59.181155555555556,153.72727272727275L59.7856,113.2727272727273L60.39004444444445,153.72727272727275L60.99448888888889,72.81818181818183L61.580799999999996,72.81818181818183L62.18524444444444,72.81818181818183L62.78968888888889,72.81818181818183L63.394133333333336,32.3636363636364L63.998577777777776,72.81818181818183L64.60302222222222,153.72727272727275L65.20746666666666,72.81818181818183L65.81191111111112,32.3636363636364L66.41635555555555,32.3636363636364L67.02080000000001,72.81818181818183L67.62524444444445,32.3636363636364L68.22968888888889,32.3636363636364L68.83413333333333,72.81818181818183L69.42044444444446,72.81818181818183L70.02488888888888,113.2727272727273L70.62933333333334,72.81818181818183L71.23377777777777,72.81818181818183L71.83822222222223,72.81818181818183L72.44266666666667,32.3636363636364L73.04711111111111,72.81818181818183L73.65155555555556,72.81818181818183L74.256,113.2727272727273L74.86044444444444,32.3636363636364L75.4648888888889,72.81818181818183L76.06933333333333,72.81818181818183L76.67377777777779,32.3636363636364L77.26008888888889,72.81818181818183L77.86453333333333,32.3636363636364L78.46897777777778,153.72727272727275L79.07342222222222,32.3636363636364L79.67786666666666,32.3636363636364L80.28231111111111,153.72727272727275L80.88675555555557,32.3636363636364L81.49119999999999,32.3636363636364L82.09564444444445,32.3636363636364L82.70008888888889,72.81818181818183L83.30453333333334,32.3636363636364L83.90897777777778,32.3636363636364L84.51342222222222,113.2727272727273L85.09973333333333,72.81818181818183L85.70417777777777,32.3636363636364L86.30862222222223,32.3636363636364L86.91306666666667,32.3636363636364L87.51751111111112,32.3636363636364L88.12195555555554,32.3636363636364L88.7264,32.3636363636364L89.33084444444445,32.3636363636364L89.93528888888889,32.3636363636364L90.53973333333333,72.81818181818183L91.14417777777777,72.81818181818183L91.74862222222222,72.81818181818183L92.35306666666668,32.3636363636364L92.93937777777778,32.3636363636364L93.54382222222222,32.3636363636364L94.14826666666667,72.81818181818183L94.7527111111111,72.81818181818183L95.35715555555555,32.3636363636364L95.9616,32.3636363636364L96.56604444444444,32.3636363636364L97.17048888888888,32.3636363636364L97.77493333333334,72.81818181818183L98.37937777777778,32.3636363636364L98.98382222222223,32.3636363636364L99.58826666666666,32.3636363636364L100.19271111111111,32.3636363636364L100.77902222222222,72.81818181818183L101.38346666666668,32.3636363636364L101.9879111111111,72.81818181818183L102.59235555555556,32.3636363636364L103.19680000000001,32.3636363636364L103.80124444444444,32.3636363636364L104.40568888888889,72.81818181818183L105.01013333333333,72.81818181818183L105.61457777777778,72.81818181818183L106.21902222222222,32.3636363636364L106.82346666666666,72.81818181818183L107.42791111111111,32.3636363636364L108.03235555555555,32.3636363636364L108.61866666666666,32.3636363636364L109.22311111111111,32.3636363636364L109.82755555555556,32.3636363636364L110.432,32.3636363636364L111.03644444444444,72.81818181818183L111.6408888888889,32.3636363636364L112.24533333333333,32.3636363636364L112.84977777777777,72.81818181818183L113.45422222222221,72.81818181818183L114.05866666666667,32.3636363636364L114.66311111111112,32.3636363636364L115.26755555555555,32.3636363636364L115.872,72.81818181818183L116.45831111111112,32.3636363636364L117.06275555555557,72.81818181818183L117.6672,32.3636363636364L118.27164444444445,32.3636363636364L118.87608888888889,32.3636363636364L119.48053333333334,32.3636363636364L120.08497777777778,32.3636363636364L120.68942222222222,32.3636363636364L121.29386666666667,32.3636363636364L121.8983111111111,32.3636363636364L122.50275555555555,32.3636363636364L123.1072,32.3636363636364L123.71164444444445,32.3636363636364L124.29795555555555,32.3636363636364L124.9024,32.3636363636364L125.50684444444445,32.3636363636364L126.1112888888889,72.81818181818183L126.71573333333333,32.3636363636364L127.32017777777777,32.3636363636364L127.92462222222223,72.81818181818183L128.52906666666667,32.3636363636364L129.13351111111112,32.3636363636364L129.73795555555554,32.3636363636364L130.3424,32.3636363636364L130.94684444444442,72.81818181818183L131.55128888888888,72.81818181818183L132.1376,32.3636363636364L132.74204444444445,32.3636363636364L133.34648888888887,32.3636363636364L133.95093333333332,72.81818181818183L134.55537777777778,32.3636363636364L135.15982222222223,32.3636363636364L135.76426666666666,32.3636363636364L136.3687111111111,32.3636363636364L136.97315555555556,72.81818181818183L137.57760000000002,32.3636363636364L138.18204444444444,32.3636363636364L138.78648888888887,32.3636363636364L139.39093333333332,32.3636363636364L139.97724444444444,32.3636363636364L140.5816888888889,32.3636363636364L141.18613333333334,113.2727272727273L141.7905777777778,72.81818181818183L142.39502222222222,32.3636363636364L142.99946666666668,32.3636363636364L143.6039111111111,32.3636363636364L144.20835555555556,32.3636363636364L144.81279999999998,72.81818181818183L145.41724444444444,32.3636363636364L146.0216888888889,32.3636363636364L146.62613333333334,32.3636363636364L147.2305777777778,32.3636363636364L147.81688888888888,72.81818181818183L148.42133333333334,32.3636363636364L149.02577777777776,32.3636363636364L149.63022222222222,32.3636363636364L150.23466666666667,32.3636363636364L150.83911111111112,32.3636363636364L151.44355555555558,32.3636363636364L152.048,32.3636363636364L152.65244444444443,32.3636363636364L153.25688888888888,32.3636363636364L153.86133333333333,113.2727272727273L154.4657777777778,72.81818181818183L155.0702222222222,32.3636363636364L155.65653333333336,32.3636363636364L156.26097777777778,72.81818181818183L156.8654222222222,72.81818181818183L157.46986666666666,32.3636363636364L158.07431111111111,32.3636363636364L158.67875555555554,32.3636363636364L159.2832,32.3636363636364L159.88764444444445,32.3636363636364L160.4920888888889,32.3636363636364L161.09653333333335,72.81818181818183L161.70097777777778,32.3636363636364L162.3054222222222,72.81818181818183L162.90986666666666,32.3636363636364L163.49617777777777,72.81818181818183L164.10062222222223,32.3636363636364L164.70506666666668,32.3636363636364L165.30951111111114,72.81818181818183L165.91395555555553,32.3636363636364L166.51839999999999,72.81818181818183L167.12284444444444,32.3636363636364L167.7272888888889,32.3636363636364L168.33173333333335,32.3636363636364L168.93617777777777,32.3636363636364L169.54062222222223,32.3636363636364L170.14506666666668,32.3636363636364L170.7495111111111,72.81818181818183L171.33582222222222,32.3636363636364L171.94026666666667,32.3636363636364L172.5447111111111,32.3636363636364L173.14915555555555,32.3636363636364L173.7536,32.3636363636364L174.35804444444446,32.3636363636364L174.96248888888888,32.3636363636364L175.56693333333334,32.3636363636364L176.17137777777776,32.3636363636364L176.77582222222222,32.3636363636364L177.38026666666667,32.3636363636364L177.98471111111112,32.3636363636364L178.58915555555558,32.3636363636364L179.17546666666667,32.3636363636364L179.7799111111111,32.3636363636364L180.38435555555554,32.3636363636364L180.9888,32.3636363636364L181.59324444444445,72.81818181818183L182.1976888888889,32.3636363636364L182.80213333333333,32.3636363636364L183.40657777777778,32.3636363636364L184.0110222222222,72.81818181818183L184.61546666666666,72.81818181818183L185.21991111111112,72.81818181818183L185.82435555555554,32.3636363636364L186.4288,32.3636363636364L187.0151111111111,32.3636363636364L187.61955555555556,72.81818181818183L188.224,32.3636363636364L188.82844444444444,32.3636363636364L189.4328888888889,113.2727272727273L190.03733333333332,32.3636363636364L190.64177777777778,32.3636363636364L191.24622222222223,32.3636363636364L191.85066666666668,32.3636363636364L192.45511111111114,32.3636363636364L193.05955555555553,72.81818181818183L193.664,32.3636363636364L194.26844444444444,32.3636363636364L194.85475555555556,72.81818181818183L195.4592,72.81818181818183L196.06364444444446,32.3636363636364L196.6680888888889,32.3636363636364L197.2725333333333,113.2727272727273L197.87697777777777,32.3636363636364L198.48142222222222,32.3636363636364L199.08586666666667,32.3636363636364L199.6903111111111,32.3636363636364L200.29475555555555,32.3636363636364L200.8992,32.3636363636364L201.50364444444446,32.3636363636364L202.1080888888889,32.3636363636364L202.6944,32.3636363636364L203.29884444444446,32.3636363636364L203.90328888888888,32.3636363636364L204.50773333333333,32.3636363636364L205.1121777777778,32.3636363636364L205.71662222222224,32.3636363636364L206.32106666666664,32.3636363636364L206.9255111111111,32.3636363636364L207.52995555555555,32.3636363636364L208.1344,32.3636363636364L208.73884444444445,32.3636363636364L209.3432888888889,32.3636363636364L209.94773333333333,32.3636363636364L210.53404444444442,72.81818181818183L211.13848888888887,32.3636363636364L211.74293333333333,32.3636363636364L212.34737777777778,32.3636363636364L212.95182222222223,32.3636363636364L213.55626666666666,32.3636363636364L214.1607111111111,32.3636363636364L214.76515555555557,32.3636363636364L215.3696,72.81818181818183L215.97404444444444,72.81818181818183L216.57848888888887,32.3636363636364L217.18293333333332,32.3636363636364L217.78737777777778,72.81818181818183L218.3736888888889,32.3636363636364L218.97813333333335,32.3636363636364L219.58257777777777,72.81818181818183L220.1870222222222,32.3636363636364L220.79146666666665,32.3636363636364L221.3959111111111,32.3636363636364L222.00035555555556,32.3636363636364L222.6048,32.3636363636364L223.20924444444447,32.3636363636364L223.8136888888889,32.3636363636364L224.41813333333332,32.3636363636364L225.02257777777777,32.3636363636364L225.62702222222222,32.3636363636364L226.21333333333334,72.81818181818183L226.8177777777778,32.3636363636364L227.42222222222222,32.3636363636364L228.02666666666667,32.3636363636364L228.6311111111111,32.3636363636364L229.23555555555555,32.3636363636364L229.84,32.3636363636364L230.44444444444443,32.3636363636364L231.04888888888888,32.3636363636364L231.65333333333334,32.3636363636364L232.2577777777778,113.2727272727273L232.86222222222224,32.3636363636364L233.46666666666664,113.2727272727273L234.05297777777776,32.3636363636364L234.6574222222222,32.3636363636364L235.26186666666666,32.3636363636364L235.86631111111112,32.3636363636364L236.47075555555557,32.3636363636364L237.07520000000002,32.3636363636364L237.67964444444442,32.3636363636364L238.28408888888887,32.3636363636364L238.88853333333333,32.3636363636364L239.49297777777778,32.3636363636364L240.09742222222224,32.3636363636364L240.70186666666666,72.81818181818183L241.3063111111111,32.3636363636364L241.89262222222223,113.2727272727273L242.49706666666665,32.3636363636364L243.1015111111111,32.3636363636364L243.70595555555556,32.3636363636364L244.3104,32.3636363636364L244.91484444444444,32.3636363636364L245.5192888888889,32.3636363636364L246.12373333333335,32.3636363636364L246.72817777777777,32.3636363636364L247.3326222222222,32.3636363636364L247.93706666666665,32.3636363636364L248.5415111111111,32.3636363636364L249.14595555555556,32.3636363636364L249.73226666666667,32.3636363636364L250.33671111111113,32.3636363636364L250.94115555555558,32.3636363636364L251.54559999999998,32.3636363636364L252.15004444444443,32.3636363636364L252.7544888888889,32.3636363636364L253.35893333333334,32.3636363636364L253.9633777777778,72.81818181818183L254.56782222222222,72.81818181818183L255.17226666666667,32.3636363636364L255.7767111111111,32.3636363636364L256.38115555555555,32.3636363636364L256.9856,72.81818181818183L257.5719111111111,32.3636363636364L258.1763555555556,32.3636363636364L258.7808,32.3636363636364L259.3852444444445,32.3636363636364L259.9896888888889,32.3636363636364L260.59413333333333,32.3636363636364L261.19857777777776,32.3636363636364L261.80302222222224,32.3636363636364L262.40746666666666,32.3636363636364L263.0119111111111,72.81818181818183L263.6163555555556,32.3636363636364L264.2208,32.3636363636364L264.8252444444444,32.3636363636364" style="fill: none;" fill="none"></path></g><g><path stroke="rgb(204, 51, 17)" stroke-width="2px" d="M33.84888888888889,194.1818181818182L34.45333333333333,113.2727272727273L35.05777777777778,113.2727272727273L35.662222222222226,113.2727272727273L36.266666666666666,113.2727272727273L36.87111111111111,113.2727272727273L37.47555555555556,153.72727272727275L38.06186666666667,113.2727272727273L38.66631111111111,32.3636363636364L39.27075555555555,113.2727272727273L39.8752,113.2727272727273L40.479644444444446,72.81818181818183L41.08408888888889,32.3636363636364L41.68853333333333,72.81818181818183L42.29297777777778,113.2727272727273L42.89742222222222,72.81818181818183L43.50186666666667,72.81818181818183L44.10631111111111,194.1818181818182L44.71075555555556,32.3636363636364L45.3152,32.3636363636364L45.901511111111105,32.3636363636364L46.50595555555556,72.81818181818183L47.1104,72.81818181818183L47.714844444444445,32.3636363636364L48.319288888888885,72.81818181818183L48.92373333333334,32.3636363636364L49.52817777777778,32.3636363636364L50.132622222222224,113.2727272727273L50.737066666666664,113.2727272727273L51.34151111111112,32.3636363636364L51.94595555555556,32.3636363636364L52.5504,32.3636363636364L53.15484444444444,72.81818181818183L53.74115555555555,32.3636363636364L54.345600000000005,72.81818181818183L54.950044444444444,32.3636363636364L55.55448888888889,32.3636363636364L56.15893333333333,113.2727272727273L56.76337777777778,32.3636363636364L57.36782222222222,72.81818181818183L57.97226666666667,32.3636363636364L58.57671111111111,32.3636363636364L59.181155555555556,32.3636363636364L59.7856,32.3636363636364L60.39004444444445,32.3636363636364L60.99448888888889,72.81818181818183L61.580799999999996,32.3636363636364L62.18524444444444,72.81818181818183L62.78968888888889,72.81818181818183L63.394133333333336,32.3636363636364L63.998577777777776,72.81818181818183L64.60302222222222,32.3636363636364L65.20746666666666,72.81818181818183L65.81191111111112,72.81818181818183L66.41635555555555,32.3636363636364L67.02080000000001,32.3636363636364L67.62524444444445,32.3636363636364L68.22968888888889,32.3636363636364L68.83413333333333,32.3636363636364L69.42044444444446,32.3636363636364L70.02488888888888,32.3636363636364L70.62933333333334,32.3636363636364L71.23377777777777,32.3636363636364L71.83822222222223,72.81818181818183L72.44266666666667,32.3636363636364L73.04711111111111,32.3636363636364L73.65155555555556,32.3636363636364L74.256,72.81818181818183L74.86044444444444,72.81818181818183L75.4648888888889,72.81818181818183L76.06933333333333,32.3636363636364L76.67377777777779,72.81818181818183L77.26008888888889,32.3636363636364L77.86453333333333,72.81818181818183L78.46897777777778,32.3636363636364L79.07342222222222,32.3636363636364L79.67786666666666,32.3636363636364L80.28231111111111,72.81818181818183L80.88675555555557,32.3636363636364L81.49119999999999,32.3636363636364L82.09564444444445,72.81818181818183L82.70008888888889,72.81818181818183L83.30453333333334,32.3636363636364L83.90897777777778,32.3636363636364L84.51342222222222,32.3636363636364L85.09973333333333,32.3636363636364L85.70417777777777,32.3636363636364L86.30862222222223,32.3636363636364L86.91306666666667,72.81818181818183L87.51751111111112,32.3636363636364L88.12195555555554,32.3636363636364L88.7264,72.81818181818183L89.33084444444445,32.3636363636364L89.93528888888889,32.3636363636364L90.53973333333333,32.3636363636364L91.14417777777777,32.3636363636364L91.74862222222222,32.3636363636364L92.35306666666668,72.81818181818183L92.93937777777778,32.3636363636364L93.54382222222222,32.3636363636364L94.14826666666667,32.3636363636364L94.7527111111111,32.3636363636364L95.35715555555555,32.3636363636364L95.9616,32.3636363636364L96.56604444444444,32.3636363636364L97.17048888888888,32.3636363636364L97.77493333333334,72.81818181818183L98.37937777777778,32.3636363636364L98.98382222222223,32.3636363636364L99.58826666666666,32.3636363636364L100.19271111111111,32.3636363636364L100.77902222222222,32.3636363636364L101.38346666666668,32.3636363636364L101.9879111111111,32.3636363636364L102.59235555555556,32.3636363636364L103.19680000000001,32.3636363636364L103.80124444444444,32.3636363636364L104.40568888888889,32.3636363636364L105.01013333333333,32.3636363636364L105.61457777777778,32.3636363636364L106.21902222222222,32.3636363636364L106.82346666666666,32.3636363636364L107.42791111111111,32.3636363636364L108.03235555555555,32.3636363636364L108.61866666666666,32.3636363636364L109.22311111111111,32.3636363636364L109.82755555555556,32.3636363636364L110.432,32.3636363636364L111.03644444444444,32.3636363636364L111.6408888888889,32.3636363636364L112.24533333333333,113.2727272727273L112.84977777777777,32.3636363636364L113.45422222222221,72.81818181818183L114.05866666666667,32.3636363636364L114.66311111111112,32.3636363636364L115.26755555555555,32.3636363636364L115.872,32.3636363636364L116.45831111111112,32.3636363636364L117.06275555555557,32.3636363636364L117.6672,32.3636363636364L118.27164444444445,32.3636363636364L118.87608888888889,32.3636363636364L119.48053333333334,72.81818181818183L120.08497777777778,32.3636363636364L120.68942222222222,32.3636363636364L121.29386666666667,32.3636363636364L121.8983111111111,32.3636363636364L122.50275555555555,32.3636363636364L123.1072,32.3636363636364L123.71164444444445,72.81818181818183L124.29795555555555,72.81818181818183L124.9024,32.3636363636364L125.50684444444445,32.3636363636364L126.1112888888889,32.3636363636364L126.71573333333333,32.3636363636364L127.32017777777777,32.3636363636364L127.92462222222223,32.3636363636364L128.52906666666667,32.3636363636364L129.13351111111112,32.3636363636364L129.73795555555554,72.81818181818183L130.3424,32.3636363636364L130.94684444444442,32.3636363636364L131.55128888888888,32.3636363636364L132.1376,32.3636363636364L132.74204444444445,32.3636363636364L133.34648888888887,32.3636363636364L133.95093333333332,32.3636363636364L134.55537777777778,32.3636363636364L135.15982222222223,32.3636363636364L135.76426666666666,32.3636363636364L136.3687111111111,32.3636363636364L136.97315555555556,32.3636363636364L137.57760000000002,72.81818181818183L138.18204444444444,32.3636363636364L138.78648888888887,32.3636363636364L139.39093333333332,32.3636363636364L139.97724444444444,32.3636363636364L140.5816888888889,32.3636363636364L141.18613333333334,32.3636363636364L141.7905777777778,32.3636363636364L142.39502222222222,32.3636363636364L142.99946666666668,32.3636363636364L143.6039111111111,32.3636363636364L144.20835555555556,32.3636363636364L144.81279999999998,32.3636363636364L145.41724444444444,32.3636363636364L146.0216888888889,32.3636363636364L146.62613333333334,32.3636363636364L147.2305777777778,72.81818181818183L147.81688888888888,32.3636363636364L148.42133333333334,32.3636363636364L149.02577777777776,32.3636363636364L149.63022222222222,32.3636363636364L150.23466666666667,32.3636363636364L150.83911111111112,32.3636363636364L151.44355555555558,32.3636363636364L152.048,32.3636363636364L152.65244444444443,32.3636363636364L153.25688888888888,32.3636363636364L153.86133333333333,32.3636363636364L154.4657777777778,72.81818181818183L155.0702222222222,32.3636363636364L155.65653333333336,32.3636363636364L156.26097777777778,32.3636363636364L156.8654222222222,32.3636363636364L157.46986666666666,32.3636363636364L158.07431111111111,32.3636363636364L158.67875555555554,32.3636363636364L159.2832,32.3636363636364L159.88764444444445,32.3636363636364L160.4920888888889,32.3636363636364L161.09653333333335,32.3636363636364L161.70097777777778,32.3636363636364L162.3054222222222,32.3636363636364L162.90986666666666,32.3636363636364L163.49617777777777,32.3636363636364L164.10062222222223,32.3636363636364L164.70506666666668,32.3636363636364L165.30951111111114,32.3636363636364L165.91395555555553,72.81818181818183L166.51839999999999,32.3636363636364L167.12284444444444,32.3636363636364L167.7272888888889,32.3636363636364L168.33173333333335,32.3636363636364L168.93617777777777,32.3636363636364L169.54062222222223,32.3636363636364L170.14506666666668,32.3636363636364L170.7495111111111,32.3636363636364L171.33582222222222,32.3636363636364L171.94026666666667,32.3636363636364L172.5447111111111,32.3636363636364L173.14915555555555,32.3636363636364L173.7536,32.3636363636364L174.35804444444446,32.3636363636364L174.96248888888888,32.3636363636364L175.56693333333334,32.3636363636364L176.17137777777776,32.3636363636364L176.77582222222222,32.3636363636364L177.38026666666667,32.3636363636364L177.98471111111112,32.3636363636364L178.58915555555558,32.3636363636364L179.17546666666667,32.3636363636364L179.7799111111111,32.3636363636364L180.38435555555554,32.3636363636364L180.9888,32.3636363636364L181.59324444444445,32.3636363636364L182.1976888888889,32.3636363636364L182.80213333333333,32.3636363636364L183.40657777777778,32.3636363636364L184.0110222222222,32.3636363636364L184.61546666666666,32.3636363636364L185.21991111111112,32.3636363636364L185.82435555555554,32.3636363636364L186.4288,72.81818181818183L187.0151111111111,32.3636363636364L187.61955555555556,32.3636363636364L188.224,32.3636363636364L188.82844444444444,32.3636363636364L189.4328888888889,32.3636363636364L190.03733333333332,32.3636363636364L190.64177777777778,32.3636363636364L191.24622222222223,32.3636363636364L191.85066666666668,32.3636363636364L192.45511111111114,32.3636363636364L193.05955555555553,32.3636363636364L193.664,32.3636363636364L194.26844444444444,32.3636363636364L194.85475555555556,32.3636363636364L195.4592,72.81818181818183L196.06364444444446,32.3636363636364L196.6680888888889,32.3636363636364L197.2725333333333,72.81818181818183L197.87697777777777,32.3636363636364L198.48142222222222,32.3636363636364L199.08586666666667,72.81818181818183L199.6903111111111,32.3636363636364L200.29475555555555,32.3636363636364L200.8992,72.81818181818183L201.50364444444446,32.3636363636364L202.1080888888889,32.3636363636364L202.6944,32.3636363636364L203.29884444444446,32.3636363636364L203.90328888888888,72.81818181818183L204.50773333333333,32.3636363636364L205.1121777777778,32.3636363636364L205.71662222222224,32.3636363636364L206.32106666666664,32.3636363636364L206.9255111111111,32.3636363636364L207.52995555555555,32.3636363636364L208.1344,32.3636363636364L208.73884444444445,32.3636363636364L209.3432888888889,32.3636363636364L209.94773333333333,32.3636363636364L210.53404444444442,32.3636363636364L211.13848888888887,32.3636363636364L211.74293333333333,72.81818181818183L212.34737777777778,32.3636363636364L212.95182222222223,32.3636363636364L213.55626666666666,32.3636363636364L214.1607111111111,32.3636363636364L214.76515555555557,32.3636363636364L215.3696,32.3636363636364L215.97404444444444,32.3636363636364L216.57848888888887,32.3636363636364L217.18293333333332,32.3636363636364L217.78737777777778,32.3636363636364L218.3736888888889,32.3636363636364L218.97813333333335,32.3636363636364L219.58257777777777,32.3636363636364L220.1870222222222,32.3636363636364L220.79146666666665,32.3636363636364L221.3959111111111,32.3636363636364L222.00035555555556,32.3636363636364L222.6048,72.81818181818183L223.20924444444447,32.3636363636364L223.8136888888889,32.3636363636364L224.41813333333332,32.3636363636364L225.02257777777777,32.3636363636364L225.62702222222222,32.3636363636364L226.21333333333334,32.3636363636364L226.8177777777778,32.3636363636364L227.42222222222222,32.3636363636364L228.02666666666667,32.3636363636364L228.6311111111111,32.3636363636364L229.23555555555555,32.3636363636364L229.84,32.3636363636364L230.44444444444443,32.3636363636364L231.04888888888888,32.3636363636364L231.65333333333334,72.81818181818183L232.2577777777778,32.3636363636364L232.86222222222224,32.3636363636364L233.46666666666664,32.3636363636364L234.05297777777776,32.3636363636364L234.6574222222222,32.3636363636364L235.26186666666666,32.3636363636364L235.86631111111112,32.3636363636364L236.47075555555557,32.3636363636364L237.07520000000002,32.3636363636364L237.67964444444442,72.81818181818183L238.28408888888887,32.3636363636364L238.88853333333333,32.3636363636364L239.49297777777778,32.3636363636364L240.09742222222224,32.3636363636364L240.70186666666666,32.3636363636364L241.3063111111111,32.3636363636364L241.89262222222223,32.3636363636364L242.49706666666665,32.3636363636364L243.1015111111111,32.3636363636364L243.70595555555556,32.3636363636364L244.3104,32.3636363636364L244.91484444444444,32.3636363636364L245.5192888888889,32.3636363636364L246.12373333333335,32.3636363636364L246.72817777777777,32.3636363636364L247.3326222222222,32.3636363636364L247.93706666666665,32.3636363636364L248.5415111111111,72.81818181818183L249.14595555555556,32.3636363636364L249.73226666666667,32.3636363636364L250.33671111111113,32.3636363636364L250.94115555555558,32.3636363636364L251.54559999999998,32.3636363636364L252.15004444444443,32.3636363636364L252.7544888888889,32.3636363636364L253.35893333333334,32.3636363636364L253.9633777777778,32.3636363636364L254.56782222222222,32.3636363636364L255.17226666666667,32.3636363636364L255.7767111111111,32.3636363636364L256.38115555555555,32.3636363636364L256.9856,32.3636363636364L257.5719111111111,32.3636363636364L258.1763555555556,32.3636363636364L258.7808,32.3636363636364L259.3852444444445,32.3636363636364L259.9896888888889,32.3636363636364L260.59413333333333,32.3636363636364L261.19857777777776,32.3636363636364L261.80302222222224,32.3636363636364L262.40746666666666,72.81818181818183L263.0119111111111,32.3636363636364L263.6163555555556,32.3636363636364L264.2208,32.3636363636364L264.8252444444444,32.3636363636364" style="fill: none;" fill="none"></path></g></g></g></g></g></g><g transform="translate(58, 178)" clip-path="url(#clip_1)"><clipPath id="clip_1"><rect width="272" height="22"></rect></clipPath><g><g><line x1="0" y1="0" x2="0" y2="5" style="visibility: inherit;" fill="rgb(0, 0, 0)" stroke="rgb(204, 204, 204)" stroke-width="1px"></line><line x1="30.22222222222222" y1="0" x2="30.22222222222222" y2="5" style="visibility: inherit;" fill="rgb(0, 0, 0)" stroke="rgb(204, 204, 204)" stroke-width="1px"></line><line x1="60.44444444444444" y1="0" x2="60.44444444444444" y2="5" style="visibility: inherit;" fill="rgb(0, 0, 0)" stroke="rgb(204, 204, 204)" stroke-width="1px"></line><line x1="90.66666666666666" y1="0" x2="90.66666666666666" y2="5" style="visibility: inherit;" fill="rgb(0, 0, 0)" stroke="rgb(204, 204, 204)" stroke-width="1px"></line><line x1="120.88888888888889" y1="0" x2="120.88888888888889" y2="5" style="visibility: inherit;" fill="rgb(0, 0, 0)" stroke="rgb(204, 204, 204)" stroke-width="1px"></line><line x1="151.11111111111111" y1="0" x2="151.11111111111111" y2="5" style="visibility: inherit;" fill="rgb(0, 0, 0)" stroke="rgb(204, 204, 204)" stroke-width="1px"></line><line x1="181.33333333333331" y1="0" x2="181.33333333333331" y2="5" style="visibility: inherit;" fill="rgb(0, 0, 0)" stroke="rgb(204, 204, 204)" stroke-width="1px"></line><line x1="211.55555555555557" y1="0" x2="211.55555555555557" y2="5" style="visibility: inherit;" fill="rgb(0, 0, 0)" stroke="rgb(204, 204, 204)" stroke-width="1px"></line><line x1="241.77777777777777" y1="0" x2="241.77777777777777" y2="5" style="visibility: inherit;" fill="rgb(0, 0, 0)" stroke="rgb(204, 204, 204)" stroke-width="1px"></line><line x1="272" y1="0" x2="272" y2="5" style="visibility: inherit;" fill="rgb(0, 0, 0)" stroke="rgb(204, 204, 204)" stroke-width="1px"></line></g><g transform="translate(0, 8)"><text x="0" y="0" dx="0em" dy="0.95em" style="text-anchor: middle; visibility: hidden; font-family: &quot;Helvetica Neue&quot;, sans-serif; font-size: 12px; font-weight: 200;" fill="rgb(50, 49, 63)" stroke="none" stroke-width="1px">-5k</text><text x="30.22222222222222" y="0" dx="0em" dy="0.95em" style="text-anchor: middle; visibility: inherit; font-family: &quot;Helvetica Neue&quot;, sans-serif; font-size: 12px; font-weight: 200;" fill="rgb(50, 49, 63)" stroke="none" stroke-width="1px">0</text><text x="60.44444444444444" y="0" dx="0em" dy="0.95em" style="text-anchor: middle; visibility: inherit; font-family: &quot;Helvetica Neue&quot;, sans-serif; font-size: 12px; font-weight: 200;" fill="rgb(50, 49, 63)" stroke="none" stroke-width="1px">5k</text><text x="90.66666666666666" y="0" dx="0em" dy="0.95em" style="text-anchor: middle; visibility: inherit; font-family: &quot;Helvetica Neue&quot;, sans-serif; font-size: 12px; font-weight: 200;" fill="rgb(50, 49, 63)" stroke="none" stroke-width="1px">10k</text><text x="120.88888888888889" y="0" dx="0em" dy="0.95em" style="text-anchor: middle; visibility: inherit; font-family: &quot;Helvetica Neue&quot;, sans-serif; font-size: 12px; font-weight: 200;" fill="rgb(50, 49, 63)" stroke="none" stroke-width="1px">15k</text><text x="151.11111111111111" y="0" dx="0em" dy="0.95em" style="text-anchor: middle; visibility: inherit; font-family: &quot;Helvetica Neue&quot;, sans-serif; font-size: 12px; font-weight: 200;" fill="rgb(50, 49, 63)" stroke="none" stroke-width="1px">20k</text><text x="181.33333333333331" y="0" dx="0em" dy="0.95em" style="text-anchor: middle; visibility: inherit; font-family: &quot;Helvetica Neue&quot;, sans-serif; font-size: 12px; font-weight: 200;" fill="rgb(50, 49, 63)" stroke="none" stroke-width="1px">25k</text><text x="211.55555555555557" y="0" dx="0em" dy="0.95em" style="text-anchor: middle; visibility: inherit; font-family: &quot;Helvetica Neue&quot;, sans-serif; font-size: 12px; font-weight: 200;" fill="rgb(50, 49, 63)" stroke="none" stroke-width="1px">30k</text><text x="241.77777777777777" y="0" dx="0em" dy="0.95em" style="text-anchor: middle; visibility: inherit; font-family: &quot;Helvetica Neue&quot;, sans-serif; font-size: 12px; font-weight: 200;" fill="rgb(50, 49, 63)" stroke="none" stroke-width="1px">35k</text><text x="272" y="0" dx="0em" dy="0.95em" style="text-anchor: middle; visibility: hidden; font-family: &quot;Helvetica Neue&quot;, sans-serif; font-size: 12px; font-weight: 200;" fill="rgb(50, 49, 63)" stroke="none" stroke-width="1px">40k</text></g><line x1="0" y1="0" x2="272" y2="0" fill="rgb(0, 0, 0)" stroke="rgb(204, 204, 204)" stroke-width="1px"></line></g></g></g></g></svg>