<svg viewBox="0 0 330 200" xmlns="http://www.w3.org/2000/svg"><g><g><g><g><g><line x1="34" y1="178" x2="29" y2="178" style="visibility: inherit;" fill="rgb(0, 0, 0)" stroke="rgb(204, 204, 204)" stroke-width="1px"></line><line x1="34" y1="160.2" x2="29" y2="160.2" style="visibility: inherit;" fill="rgb(0, 0, 0)" stroke="rgb(204, 204, 204)" stroke-width="1px"></line><line x1="34" y1="142.4" x2="29" y2="142.4" style="visibility: inherit;" fill="rgb(0, 0, 0)" stroke="rgb(204, 204, 204)" stroke-width="1px"></line><line x1="34" y1="124.6" x2="29" y2="124.6" style="visibility: inherit;" fill="rgb(0, 0, 0)" stroke="rgb(204, 204, 204)" stroke-width="1px"></line><line x1="34" y1="106.8" x2="29" y2="106.8" style="visibility: inherit;" fill="rgb(0, 0, 0)" stroke="rgb(204, 204, 204)" stroke-width="1px"></line><line x1="34" y1="89" x2="29" y2="89" style="visibility: inherit;" fill="rgb(0, 0, 0)" stroke="rgb(204, 204, 204)" stroke-width="1px"></line><line x1="34" y1="71.2" x2="29" y2="71.2" style="visibility: inherit;" fill="rgb(0, 0, 0)" stroke="rgb(204, 204, 204)" stroke-width="1px"></line><line x1="34" y1="53.400000000000006" x2="29" y2="53.400000000000006" style="visibility: inherit;" fill="rgb(0, 0, 0)" stroke="rgb(204, 204, 204)" stroke-width="1px"></line><line x1="34" y1="35.599999999999994" x2="29" y2="35.599999999999994" style="visibility: inherit;" fill="rgb(0, 0, 0)" stroke="rgb(204, 204, 204)" stroke-width="1px"></line><line x1="34" y1="17.799999999999983" x2="29" y2="17.799999999999983" style="visibility: inherit;" fill="rgb(0, 0, 0)" stroke="rgb(204, 204, 204)" stroke-width="1px"></line><line x1="34" y1="0" x2="29" y2="0" style="visibility: inherit;" fill="rgb(0, 0, 0)" stroke="rgb(204, 204, 204)" stroke-width="1px"></line></g><g transform="translate(24, 0)"><text x="0" y="178" dx="0em" dy="0.3em" style="text-anchor: end; visibility: hidden; font-family: &quot;Helvetica Neue&quot;, sans-serif; font-size: 12px; font-weight: 200;" fill="rgb(50, 49, 63)" stroke="none" stroke-width="1px">-1</text><text x="0" y="160.2" dx="0em" dy="0.3em" style="text-anchor: end; visibility: inherit; font-family: &quot;Helvetica Neue&quot;, sans-serif; font-size: 12px; font-weight: 200;" fill="rgb(50, 49, 63)" stroke="none" stroke-width="1px">0</text><text x="0" y="142.4" dx="0em" dy="0.3em" style="text-anchor: end; visibility: hidden; font-family: &quot;Helvetica Neue&quot;, sans-serif; font-size: 12px; font-weight: 200;" fill="rgb(50, 49, 63)" stroke="none" stroke-width="1px">1</text><text x="0" y="124.6" dx="0em" dy="0.3em" style="text-anchor: end; visibility: inherit; font-family: &quot;Helvetica Neue&quot;, sans-serif; font-size: 12px; font-weight: 200;" fill="rgb(50, 49, 63)" stroke="none" stroke-width="1px">2</text><text x="0" y="106.8" dx="0em" dy="0.3em" style="text-anchor: end; visibility: hidden; font-family: &quot;Helvetica Neue&quot;, sans-serif; font-size: 12px; font-weight: 200;" fill="rgb(50, 49, 63)" stroke="none" stroke-width="1px">3</text><text x="0" y="89" dx="0em" dy="0.3em" style="text-anchor: end; visibility: inherit; font-family: &quot;Helvetica Neue&quot;, sans-serif; font-size: 12px; font-weight: 200;" fill="rgb(50, 49, 63)" stroke="none" stroke-width="1px">4</text><text x="0" y="71.2" dx="0em" dy="0.3em" style="text-anchor: end; visibility: hidden; font-family: &quot;Helvetica Neue&quot;, sans-serif; font-size: 12px; font-weight: 200;" fill="rgb(50, 49, 63)" stroke="none" stroke-width="1px">5</text><text x="0" y="53.400000000000006" dx="0em" dy="0.3em" style="text-anchor: end; visibility: inherit; font-family: &quot;Helvetica Neue&quot;, sans-serif; font-size: 12px; font-weight: 200;" fill="rgb(50, 49, 63)" stroke="none" stroke-width="1px">6</text><text x="0" y="35.599999999999994" dx="0em" dy="0.3em" style="text-anchor: end; visibility: hidden; font-family: &quot;Helvetica Neue&quot;, sans-serif; font-size: 12px; font-weight: 200;" fill="rgb(50, 49, 63)" stroke="none" stroke-width="1px">7</text><text x="0" y="17.799999999999983" dx="0em" dy="0.3em" style="text-anchor: end; visibility: inherit; font-family: &quot;Helvetica Neue&quot;, sans-serif; font-size: 12px; font-weight: 200;" fill="rgb(50, 49, 63)" stroke="none" stroke-width="1px">8</text><text x="0" y="0" dx="0em" dy="0.3em" style="text-anchor: end; visibility: hidden; font-family: &quot;Helvetica Neue&quot;, sans-serif; font-size: 12px; font-weight: 200;" fill="rgb(50, 49, 63)" stroke="none" stroke-width="1px">9</text></g><line x1="34" y1="0" x2="34" y2="178" fill="rgb(0, 0, 0)" stroke="rgb(204, 204, 204)" stroke-width="1px"></line></g></g><g transform="translate(34, 0)" clip-path="url(#clip_0)"><clipPath id="clip_0"><rect width="296" height="178"></rect></clipPath><g><g><g><line x1="0" y1="0" x2="0" y2="178" fill="rgb(0, 0, 0)" stroke="rgb(60, 60, 60)" stroke-width="1px" opacity="0.25"></line><line x1="32.888888888888886" y1="0" x2="32.888888888888886" y2="178" fill="rgb(0, 0, 0)" stroke="rgb(60, 60, 60)" stroke-width="1px" opacity="0.25"></line><line x1="65.77777777777777" y1="0" x2="65.77777777777777" y2="178" fill="rgb(0, 0, 0)" stroke="rgb(60, 60, 60)" stroke-width="1px" opacity="0.25"></line><line x1="98.66666666666666" y1="0" x2="98.66666666666666" y2="178" fill="rgb(0, 0, 0)" stroke="rgb(60, 60, 60)" stroke-width="1px" opacity="0.25"></line><line x1="131.55555555555554" y1="0" x2="131.55555555555554" y2="178" fill="rgb(0, 0, 0)" stroke="rgb(60, 60, 60)" stroke-width="1px" opacity="0.25"></line><line x1="164.44444444444446" y1="0" x2="164.44444444444446" y2="178" fill="rgb(0, 0, 0)" stroke="rgb(60, 60, 60)" stroke-width="1px" opacity="0.25"></line><line x1="197.33333333333331" y1="0" x2="197.33333333333331" y2="178" fill="rgb(0, 0, 0)" stroke="rgb(60, 60, 60)" stroke-width="1px" opacity="0.25"></line><line x1="230.22222222222223" y1="0" x2="230.22222222222223" y2="178" fill="rgb(0, 0, 0)" stroke="rgb(60, 60, 60)" stroke-width="1px" opacity="0.25"></line><line x1="263.1111111111111" y1="0" x2="263.1111111111111" y2="178" fill="rgb(0, 0, 0)" stroke="rgb(60, 60, 60)" stroke-width="1px" opacity="0.25"></line><line x1="296" y1="0" x2="296" y2="178" fill="rgb(0, 0, 0)" stroke="rgb(60, 60, 60)" stroke-width="1px" opacity="0.25"></line></g><g><line x1="0" y1="178" x2="296" y2="178" fill="rgb(0, 0, 0)" stroke="rgb(60, 60, 60)" stroke-width="1px" opacity="0.25"></line><line x1="0" y1="160.2" x2="296" y2="160.2" fill="rgb(0, 0, 0)" stroke="rgb(60, 60, 60)" stroke-width="1px" opacity="0.25"></line><line x1="0" y1="142.4" x2="296" y2="142.4" fill="rgb(0, 0, 0)" stroke="rgb(60, 60, 60)" stroke-width="1px" opacity="0.25"></line><line x1="0" y1="124.6" x2="296" y2="124.6" fill="rgb(0, 0, 0)" stroke="rgb(60, 60, 60)" stroke-width="1px" opacity="0.25"></line><line x1="0" y1="106.8" x2="296" y2="106.8" fill="rgb(0, 0, 0)" stroke="rgb(60, 60, 60)" stroke-width="1px" opacity="0.25"></line><line x1="0" y1="89" x2="296" y2="89" fill="rgb(0, 0, 0)" stroke="rgb(60, 60, 60)" stroke-width="1px" opacity="0.25"></line><line x1="0" y1="71.2" x2="296" y2="71.2" fill="rgb(0, 0, 0)" stroke="rgb(60, 60, 60)" stroke-width="1px" opacity="0.25"></line><line x1="0" y1="53.400000000000006" x2="296" y2="53.400000000000006" fill="rgb(0, 0, 0)" stroke="rgb(60, 60, 60)" stroke-width="1px" opacity="0.25"></line><line x1="0" y1="35.599999999999994" x2="296" y2="35.599999999999994" fill="rgb(0, 0, 0)" stroke="rgb(60, 60, 60)" stroke-width="1px" opacity="0.25"></line><line x1="0" y1="17.799999999999983" x2="296" y2="17.799999999999983" fill="rgb(0, 0, 0)" stroke="rgb(60, 60, 60)" stroke-width="1px" opacity="0.25"></line><line x1="0" y1="0" x2="296" y2="0" fill="rgb(0, 0, 0)" stroke="rgb(60, 60, 60)" stroke-width="1px" opacity="0.25"></line></g></g></g><g><g><line x1="0" y1="160.2" x2="296" y2="160.2" fill="rgb(0, 0, 0)" stroke="rgb(153, 153, 153)" stroke-width="1.5px"></line></g></g><g><g><line x1="32.888888888888886" y1="0" x2="32.888888888888886" y2="178" fill="rgb(0, 0, 0)" stroke="rgb(153, 153, 153)" stroke-width="1.5px"></line></g></g><g><g><g><g><g><path stroke="rgb(0, 119, 187)" stroke-width="2px" d="M51.92497777777778,-26.95381988840441L52.58275555555555,3.743960918141454L53.24053333333334,1.6969029687770387L53.89831111111111,34.58484997099302L54.556088888888894,59.202820802218056L55.21386666666667,10.98421537983586L55.87164444444445,33.885408690798755L56.52942222222222,64.86319650940051L57.187200000000004,7.128101178197255L57.84497777777778,59.96736720662831L58.48302222222222,94.59915276067474L59.1408,84.40007834866415L59.79857777777777,88.15618974171893L60.45635555555556,88.45972229848813L61.11413333333333,98.3798461753061L61.771911111111116,54.67679960737922L62.42968888888889,78.6593996206596L63.08746666666667,94.86873299657411L63.745244444444445,69.38201048066081L64.40302222222222,37.45039174328858L65.0608,-3.107201935555878L65.71857777777778,-43.1740590155317L66.37635555555555,3.778136078244387L67.0144,42.37794047346054L67.67217777777778,67.67415548893682L68.32995555555556,54.85781558949661L68.98773333333334,95.93315969825693L69.6455111111111,99.05710492921487L70.30328888888889,63.51509547705537L70.96106666666667,57.074194615334235L71.61884444444445,88.82790435388837L72.27662222222222,96.67302187106127L72.9344,98.11983385933114L73.59217777777778,120.71537741215653L74.24995555555554,127.14865660781642L74.90773333333333,124.85599461624014L75.54577777777779,124.1974859680473L76.20355555555555,113.71915276323193L76.86133333333333,110.49140222236177L77.51911111111112,120.81501336672702L78.1768888888889,109.33466647493121L78.83466666666666,126.79757948891685L79.49244444444444,106.64209505663138L80.15022222222223,118.58329778638972L80.808,73.99379321651156L81.46577777777777,101.03161286304294L82.12355555555555,108.52512303703962L82.78133333333334,79.96594387837611L83.43911111111112,111.57960049836852L84.07715555555555,119.30255249338757L84.73493333333333,135.5894842791403L85.39271111111111,95.816207542887L86.05048888888888,115.54040264539164L86.70826666666666,131.5257927385106L87.36604444444444,68.4066827659091L88.02382222222222,102.59689417149309L88.68159999999999,119.30424873510411L89.33937777777777,134.85042220401414L89.99715555555555,135.8275428369501L90.65493333333333,139.5438490578448L91.3127111111111,140.80124394589157L91.97048888888888,131.34836860950884L92.60853333333334,127.95358983788546L93.26631111111111,139.05741500922238L93.92408888888889,138.8534049610388L94.58186666666667,145.90301029325076L95.23964444444445,143.2986507346663L95.89742222222222,149.7133416468163L96.5552,152.90982371653675L97.21297777777778,155.20055900863147L97.87075555555556,155.97382011205755L98.52853333333333,142.39119281644108L99.18631111111111,137.4767233554988L99.84408888888889,130.8165879836362L100.50186666666667,135.04715024654158L101.1399111111111,140.8191702844148L101.79768888888889,148.23332243927987L102.45546666666667,144.68533888440533L103.11324444444443,131.02669557917835L103.77102222222221,142.0239233791156L104.4288,144.47502273436328L105.08657777777778,149.86654800722565L105.74435555555554,153.56026884168128L106.40213333333332,109.56449504524313L107.0599111111111,128.15890324968007L107.7176888888889,139.08688397918883L108.37546666666665,147.52161157914844L109.03324444444445,149.77472669594792L109.6712888888889,143.6063055820066L110.32906666666668,149.87319290559282L110.98684444444444,133.67641066980832L111.64462222222222,143.90324204130457L112.3024,148.17385018922977L112.96017777777777,152.94825531278903L113.61795555555555,143.07658370754035L114.27573333333333,138.06682261717864L114.93351111111112,126.77582439000933L115.59128888888888,134.9979481709929L116.24906666666666,127.58618326264212L116.90684444444445,140.258936901555L117.56462222222223,144.07904255131814L118.20266666666666,149.20576565110645L118.86044444444444,153.5229832496879L119.51822222222222,154.28156599084363L120.176,154.17463628220455L120.83377777777777,63.69929539542136L121.49155555555555,102.11928912270508L122.14933333333333,125.33516844432617L122.8071111111111,130.28175846291225L123.46488888888888,134.31535017700577L124.12266666666667,144.66851496345748L124.78044444444446,150.83098666099875L125.43822222222221,154.45322397844893L126.096,138.23184458909572L126.73404444444445,145.40072701751077L127.39182222222223,142.07464895235827L128.0496,148.68944502822953L128.70737777777777,150.54294261069535L129.36515555555556,151.9400704808917L130.02293333333336,152.85148020910538L130.6807111111111,155.10694405273983L131.3384888888889,157.14336179754966L131.99626666666668,153.98739610112807L132.65404444444442,154.4118367981738L133.31182222222222,155.31848251532472L133.9696,157.27028063124988L134.62737777777778,155.96645759336099L135.2654222222222,157.55906103367772L135.9232,148.60546086260774L136.58097777777778,153.2143257107085L137.23875555555557,117.8778989771453L137.89653333333334,131.80578184005304L138.5543111111111,140.50938524172716L139.2120888888889,141.14600293496855L139.86986666666667,148.7362677136636L140.52764444444443,153.0502322697387L141.18542222222223,155.29079773090754L141.8432,156.99311515130088L142.50097777777776,150.85766897939138L143.15875555555556,145.97265169586237L143.7968,151.56632280806002L144.45457777777779,154.55071322714863L145.11235555555555,156.80981172916637L145.77013333333332,148.19773018477767L146.42791111111111,152.94632755826956L147.0856888888889,155.15239533848194L147.74346666666665,156.3322053281464L148.40124444444444,157.78415993738162L149.05902222222224,148.42036580495827L149.7168,152.8214030400085L150.3745777777778,149.25448829502864L151.03235555555554,153.48617912394408L151.69013333333334,156.164565922395L152.32817777777777,157.77860544775464L152.98595555555556,158.71138081702316L153.64373333333333,94.15692996116115L154.30151111111113,106.1841802926757L154.9592888888889,127.7367292506634L155.6170666666667,140.6454275574171L156.27484444444443,148.44121881281635L156.93262222222222,153.13446201774656L157.5904,143.06304623301733L158.24817777777778,149.46232420930806L158.90595555555555,153.71542793470348L159.56373333333335,153.5336549017294L160.2215111111111,156.1183154805579L160.85955555555554,135.73754492187965L161.5173333333333,144.25932441940586L162.1751111111111,150.6353900980394L162.83288888888887,153.46495191046245L163.49066666666667,154.8265751730719L164.14844444444446,156.67594262905828L164.80622222222223,158.07659068195767L165.46400000000003,158.92234883361309L166.12177777777777,159.35156197102813L166.77955555555553,159.65998593063324L167.43733333333333,144.06693809921245L168.09511111111112,111.49011296328725L168.7528888888889,130.96163414416804L169.39093333333335,142.65692956029233L170.04871111111112,137.83113384472642L170.70648888888888,106.57736835615225L171.36426666666665,127.97743933758966L172.02204444444445,140.47318850375314L172.6798222222222,148.36361857901275L173.3376,153.0875224772111L173.99537777777778,155.92310508149956L174.65315555555557,157.60785418545063L175.31093333333334,152.9961777746371L175.9687111111111,155.87658713696547L176.62648888888887,142.9365934183487L177.28426666666667,148.9808490353995L177.9223111111111,142.28105861176093L178.5800888888889,149.44844079869412L179.2378666666667,153.74897026573075L179.89564444444446,138.10563875886473L180.5534222222222,146.94335779221458L181.2112,109.5372693674064L181.8689777777778,129.78910977222301L182.52675555555555,141.95345228301153L183.18453333333335,149.23000928751628L183.84231111111112,151.03800576324463L184.5000888888889,154.4454487120819L185.15786666666668,156.7451014683075L185.81564444444444,142.46507552179258L186.45368888888888,146.1482319433246L187.11146666666667,150.93985200397694L187.76924444444444,152.58878745360687L188.42702222222223,155.63211814477154L189.0848,157.4591724295265L189.7425777777778,158.5553999077586L190.40035555555554,159.0993952543323L191.05813333333333,159.53660195057302L191.7159111111111,159.79725558867875L192.3736888888889,159.95828714913623L193.03146666666666,159.8655726274639L193.68924444444445,159.9906284046644L194.34702222222222,157.39997701838456L194.98506666666665,158.3232786380937L195.64284444444442,159.07343924782816L196.30062222222222,159.34643802608338L196.95839999999998,159.5916625712233L197.61617777777778,153.46831075036033L198.27395555555557,155.27308121492567L198.93173333333334,156.97175254327118L199.58951111111114,156.90093671501913L200.24728888888887,129.89829237950585L200.90506666666667,134.4558766728207L201.56284444444444,133.34481609616068L202.22062222222223,143.965399245938L202.8784,150.20569238455315L203.51644444444446,154.08628568167222L204.17422222222223,101.9782113046332L204.832,123.70031438653969L205.48977777777776,138.07020385852638L206.14755555555556,113.41900215978136L206.80533333333332,132.1259250309152L207.46311111111112,143.35478094017998L208.12088888888889,150.04892433879672L208.77866666666668,154.10681678055462L209.43644444444445,156.4687506842538L210.09422222222221,144.8674576191857L210.75199999999998,151.00016137532918L211.40977777777778,154.55787307603674L212.04782222222224,148.22936718096446L212.7056,111.6074627615816L213.3633777777778,131.04396415101328L214.02115555555557,142.67114349571966L214.6789333333333,114.48650716524186L215.3367111111111,132.7699351524166L215.9944888888889,143.63915465681862L216.65226666666666,150.26194972997374L217.31004444444446,154.2355529308645L217.96782222222222,149.21995766641663L218.62560000000002,153.59292989541274L219.2833777777778,156.1952359531473L219.94115555555555,157.69350334251826L220.5792,158.48383647587838L221.23697777777778,159.17030188552704L221.89475555555555,159.58214463420012L222.55253333333334,159.8243477870661L223.2103111111111,159.9226749735855L223.8680888888889,160.0287534140219L224.52586666666664,160.01286562339482L225.18364444444444,160.0591947558881L225.8414222222222,160.11551006337172L226.4992,160.14930603802304L227.15697777777777,160.15737491309702L227.81475555555556,160.1744249478582L228.47253333333333,160.15432586524508L229.11057777777776,135.32878791721834L229.76835555555553,145.27315791268452L230.42613333333333,150.11866659056724L231.08391111111112,153.15961235363235L231.7416888888889,155.93163518428176L232.39946666666668,157.560512310978L233.05724444444445,158.60225769443286L233.71502222222225,159.24135376788956L234.37279999999998,150.19132118331066L235.03057777777778,100.59221504275006L235.68835555555555,124.42510643806459L236.34613333333334,138.43197823051452L237.0039111111111,105.98003788282776L237.64195555555557,127.66714000874939L238.29973333333334,140.67882496937622L238.9575111111111,138.69386595025367L239.61528888888887,147.19291390380087L240.27306666666667,151.49263569236294L240.93084444444443,154.97558141541776L241.58862222222223,157.04128451819597L242.2464,158.28753049180136L242.9041777777778,159.05168310526147L243.56195555555556,159.50474084689102L244.21973333333332,159.78274944587875L244.8775111111111,158.46157227494913L245.53528888888889,159.15694336496946L246.17333333333335,152.99350342514015L246.8311111111111,152.96124714709458L247.4888888888889,155.84797540007315L248.14666666666668,157.5887852400439L248.8044444444444,158.62871155082564L249.4622222222222,157.31641214930642L250.12,158.38264760266918L250.77777777777777,159.10402402455315L251.43555555555557,158.36189397558394L252.09333333333333,158.75681138744847L252.75111111111113,116.93338057941732L253.4088888888889,134.2294951101931L254.06666666666666,93.62217800025894L254.7047111111111,120.24856557014438L255.3624888888889,136.151248554962L256.02026666666666,145.75546108518665L256.6780444444444,151.53264940997735L257.33582222222225,154.99958455336557L257.9936,157.07935011251251L258.6513777777778,158.21777751364397L259.30915555555555,158.89193375061802L259.9669333333333,159.4151602503708L260.6247111111111,159.698247599426L261.2824888888889,159.8673467253584L261.9402666666667,129.77548600762717L262.59804444444444,141.94526359516163L263.2360888888889,111.6516486279832L263.89386666666667,131.07055375770727L264.55164444444443,142.6975235521555L265.2094222222222,149.69850734113217L265.8672,152.63564808868503L266.5249777777778,153.59315330328428L267.18275555555556,155.9859291752689L267.8405333333333,157.66408663037495L268.4983111111111,158.6550505366509L269.15608888888886,158.6965490368953L269.8138666666667,158.7829398362607L270.47164444444445,159.3240113668901L271.1294222222222,159.6664012201585L271.7674666666667,159.86847569989905L272.42524444444444,160.00080872087327L273.0830222222222,160.05058306043534L273.7408,159.37031393995994L274.39857777777775,159.49248951525158L275.05635555555557,159.77149939686458L275.71413333333334,159.94285974592208L276.3719111111111,150.52351980263137L277.02968888888887,145.4185187152275L277.6874666666667,151.31856131382278L278.3452444444444,154.87110538379844L279.0030222222222,156.9598741811305L279.6608,139.45814937363804L280.29884444444446,147.51198858505927L280.9566222222222,152.58719315103556L281.6144,155.42654854519287L282.2721777777778,157.33592912711572L282.9299555555556,158.4809064695708L283.58773333333335,159.16838006910518L284.2455111111111,159.58077171288033L284.9032888888889,159.80053272108495L285.56106666666665,159.9389773074404L286.21884444444447,143.26081733844373L286.87662222222224,150.0364241989952L287.5344,154.00709357693802L288.1921777777778,156.45963332435494" style="fill: none;" fill="none"></path></g><g><path stroke="rgb(204, 51, 17)" stroke-width="2px" d="M38.808888888888895,-60.03602150307094L39.46666666666667,4.037519012244331L40.12444444444445,33.151533901843095L40.782222222222224,40.44467233247505L41.42026666666666,37.22429366215735L42.078044444444444,81.03435555730427L42.73582222222222,91.96255837631256L43.3936,52.472895651678456L44.05137777777777,39.013966305032966L44.70915555555556,77.85106185380175L45.366933333333336,78.97739498286826L46.02471111111112,48.76393246264516L46.68248888888889,84.76782516154346L47.34026666666667,93.34300193054271L47.998044444444446,-21.229633240520542L48.65582222222223,38.74131731836201L49.3136,86.40326858614499L49.95164444444444,110.87595179639527L50.60942222222222,74.80079977878695L51.267199999999995,85.57856397756994L51.92497777777778,105.72671015873428L52.58275555555555,117.8721103841005L53.24053333333334,129.91832935920672L53.89831111111111,140.37236545481272L54.556088888888894,111.19047547414554L55.21386666666667,73.43808552355854L55.87164444444445,107.04185366321632L56.52942222222222,127.06573094653785L57.187200000000004,139.5403810411634L57.84497777777778,130.34347523964516L58.48302222222222,141.32451155531274L59.1408,134.0676758490287L59.79857777777777,131.88281617311495L60.45635555555556,138.99460848624926L61.11413333333333,116.6569909942518L61.771911111111116,128.90433778725438L62.42968888888889,119.4771617690547L63.08746666666667,134.88704079446188L63.745244444444445,141.4408034257989L64.40302222222222,138.82112079216887L65.0608,146.97093115964475L65.71857777777778,151.99118070228712L66.37635555555555,105.80113267660896L67.0144,126.43976468662504L67.67217777777778,121.95058366548594L68.32995555555556,103.69211091095L68.98773333333334,124.67389701780746L69.6455111111111,124.34420969353354L70.30328888888889,136.45668952385492L70.96106666666667,107.90118004274079L71.61884444444445,81.71905099744497L72.27662222222222,111.62823469516663L72.9344,121.11112019942436L73.59217777777778,128.58060705617814L74.24995555555554,140.59321394059515L74.90773333333333,146.88938832100308L75.54577777777779,148.4663060272698L76.20355555555555,152.88291185200003L76.86133333333333,155.58226976394528L77.51911111111112,157.21672788292094L78.1768888888889,134.65111354249672L78.83466666666666,141.00662423168393L79.49244444444444,144.82347001668674L80.15022222222223,150.59462674580135L80.808,116.94934890819857L81.46577777777777,52.82423100324435L82.12355555555555,82.13641084582783L82.78133333333334,112.42251237959371L83.43911111111112,108.42514109093372L84.07715555555555,128.24026745962158L84.73493333333333,135.88554816727074L85.39271111111111,145.35869313081642L86.05048888888888,148.35434213400208L86.70826666666666,152.04453574013903L87.36604444444444,123.79228670592423L88.02382222222222,138.17891202148985L88.68159999999999,145.80489900456183L89.33937777777777,122.99033518520781L89.99715555555555,110.0660043757426L90.65493333333333,120.63108238466188L91.3127111111111,136.43627372793915L91.97048888888888,145.91046014837957L92.60853333333334,150.76957318253838L93.26631111111111,154.0519121358843L93.92408888888889,153.21824378669567L94.58186666666667,134.49603383839315L95.23964444444445,144.59840995416155L95.89742222222222,148.09974346605009L96.5552,122.60741203574577L97.21297777777778,128.58224130599643L97.87075555555556,136.00481232243146L98.52853333333333,142.9685032930217L99.18631111111111,149.7907334339614L99.84408888888889,153.7646703345773L100.50186666666667,139.254444443178L101.1399111111111,142.66085763632765L101.79768888888889,149.5506481631667L102.45546666666667,153.53242906326477L103.11324444444443,156.06508195277706L103.77102222222221,156.2691486112872L104.4288,157.53976581052538L105.08657777777778,158.47671661022662L105.74435555555554,158.48033514585111L106.40213333333332,147.01135377267607L107.0599111111111,151.9559233086086L107.7176888888889,154.86960854123691L108.37546666666665,153.54689337009583L109.03324444444445,155.9923576847875L109.6712888888889,157.5593963926234L110.32906666666668,157.75440509588708L110.98684444444444,153.95331005734914L111.64462222222222,156.0025881319208L112.3024,157.36547241681592L112.96017777777777,158.46746755662576L113.61795555555555,159.03173967568884L114.27573333333333,156.6124030778933L114.93351111111112,146.43734000385575L115.59128888888888,151.85454406506284L116.24906666666666,153.0081427512554L116.90684444444445,155.6880334420793L117.56462222222223,157.40721463389949L118.20266666666666,152.0754712774024L118.86044444444444,155.23467349692675L119.51822222222222,157.04735528057512L120.176,158.2359949460667L120.83377777777777,157.98302155798922L121.49155555555555,158.71598582620175L122.14933333333333,67.0832260629818L122.8071111111111,104.01291134305507L123.46488888888888,116.3159869715435L124.12266666666667,133.41648091106788L124.78044444444446,139.61257258671031L125.43822222222221,146.06747968207304L126.096,150.4037526000172L126.73404444444445,153.56816034845295L127.39182222222223,155.85177082229723L128.0496,157.35015993660133L128.70737777777777,157.52330008831882L129.36515555555556,158.3844894977645L130.02293333333336,137.3710099561355L130.6807111111111,146.3819488420094L131.3384888888889,151.73040749156505L131.99626666666668,154.90035566418786L132.65404444444442,156.5124276431168L133.31182222222222,156.8715463335374L133.9696,158.18781748513112L134.62737777777778,151.5439032500966L135.2654222222222,143.29986395513913L135.9232,150.02234263923557L136.58097777777778,154.0278182235765L137.23875555555557,155.4355481056814L137.89653333333334,157.0389539169338L138.5543111111111,158.29073577574667L139.2120888888889,158.78862007827624L139.86986666666667,159.31988141538093L140.52764444444443,157.2920968365752L141.18542222222223,141.75654924345514L141.8432,148.94354785700142L142.50097777777776,153.43746582629606L143.15875555555556,155.59436241127446L143.7968,149.2471730097377L144.45457777777779,148.30166641856692L145.11235555555555,149.725563847932L145.77013333333332,152.65551971549556L146.42791111111111,155.64943091713872L147.0856888888889,157.40960283752372L147.74346666666665,158.3795360069042L148.40124444444444,159.02793288077805L149.05902222222224,159.4525167360657L149.7168,150.8478204378339L150.3745777777778,153.32201189332318L151.03235555555554,156.01056026061244L151.69013333333334,157.67713192303214L152.32817777777777,156.85387523650667L152.98595555555556,155.55522601890289L153.64373333333333,157.38162960186733L154.30151111111113,156.4927170751997L154.9592888888889,157.40001316717314L155.6170666666667,158.5060691367711L156.27484444444443,158.50479024238143L156.93262222222222,157.7362075053856L157.5904,158.7146033217433L158.24817777777778,157.14267937242528L158.90595555555555,158.2806635431918L159.56373333333335,158.922765079288L160.2215111111111,111.49703288027546L160.85955555555554,122.09281857460081L161.5173333333333,137.32683680614065L162.1751111111111,145.70550324773924L162.83288888888887,151.49035824625685L163.49066666666667,154.92880481020507L164.14844444444446,156.88731301343975L164.80622222222223,156.3913790542873L165.46400000000003,157.90282522846525L166.12177777777777,155.6936635447101L166.77955555555553,157.49442216026463L167.43733333333333,158.5148772589426L168.09511111111112,143.00150814247493L168.7528888888889,149.69706724072913L169.39093333333335,153.8380413619305L170.04871111111112,155.99803877250105L170.70648888888888,157.64824580856114L171.36426666666665,158.57108500395984L172.02204444444445,159.1925649455623L172.6798222222222,159.59308033490964L173.3376,159.687364352374L173.99537777777778,159.8286070377402L174.65315555555557,159.9203708905442L175.31093333333334,160.02583536909117L175.9687111111111,160.08989713163487L176.62648888888887,160.13361786825246L177.28426666666667,160.11779341152481L177.9223111111111,160.14963817074428L178.5800888888889,159.40138492747863L179.2378666666667,159.71200568824466L179.89564444444446,159.4533985367385L180.5534222222222,128.29204450076625L181.2112,135.75471870199326L181.8689777777778,144.19267409381558L182.52675555555555,150.58693588228772L183.18453333333335,154.42641128158309L183.84231111111112,156.55694265369021L184.5000888888889,157.97199773671295L185.15786666666668,158.8147122233037L185.81564444444444,158.85476205878996L186.45368888888888,159.32032049020256L187.11146666666667,159.59198572386876L187.76924444444444,159.8310995134686L188.42702222222223,159.90922920974938L189.0848,159.96552336304097L189.7425777777778,159.8266714798731L190.40035555555554,154.26687657280698L191.05813333333333,151.8181469121214L191.7159111111111,152.5251423906467L192.3736888888889,155.57007642216573L193.03146666666666,157.1694581188386L193.68924444444445,158.35457729105653L194.34702222222222,159.06421012899727L194.98506666666665,157.61313768876465L195.64284444444442,158.59790923213436L196.30062222222222,159.1961606193511L196.95839999999998,159.57438167368193L197.61617777777778,159.77137787504387L198.27395555555557,159.75385891460414L198.93173333333334,159.92896253699058L199.58951111111114,160.03660582037125L200.24728888888887,159.47043956954093L200.90506666666667,159.57142431356795L201.56284444444444,159.8168838428818L202.22062222222223,159.89183448284047L202.8784,145.9853189857553L203.51644444444446,150.5722782916874L204.17422222222223,154.40886862329322L204.832,156.7185625018838L205.48977777777776,158.10755399359246L206.14755555555556,158.7992206535815L206.80533333333332,159.35724291965184L207.46311111111112,159.6363087194551L208.12088888888889,159.85993083862624L208.77866666666668,159.84624096720316L209.43644444444445,159.986472783121L210.09422222222221,160.06521878729558L210.75199999999998,155.97632198149142L211.40977777777778,157.66453885520178L212.04782222222224,157.6197476070206L212.7056,136.64719406134373L213.3633777777778,146.06070424179129L214.02115555555557,148.57855455553465L214.6789333333333,147.2419210128542L215.3367111111111,151.3590898831222L215.9944888888889,152.37678752419555L216.65226666666666,27.44708295152904L217.31004444444446,80.54756192757395L217.96782222222222,111.53703615482871L218.62560000000002,106.75167216668262L219.2833777777778,128.06055019943258L219.94115555555555,140.85357409111168L220.5792,148.45983858937922L221.23697777777778,151.15088251849951L221.89475555555555,141.49836173308458L222.55253333333334,148.97026435223074L223.2103111111111,153.3812406457177L223.8680888888889,156.01386500838169L224.52586666666664,153.86322559739807L225.18364444444444,156.3976525482173L225.8414222222222,157.90988620251852L226.4992,158.80218398171922L227.15697777777777,159.35558815065667L227.81475555555556,159.69260054051978L228.47253333333333,159.89417852652133L229.11057777777776,160.00574386174713L229.76835555555553,160.0811801007702L230.42613333333333,148.33515728302683L231.08391111111112,153.0782368154218L231.7416888888889,155.25292894547525L232.39946666666668,156.94369934293832L233.05724444444445,158.23275853570226L233.71502222222225,156.63885169134093L234.37279999999998,157.76027978334162L235.03057777777778,158.72489365621408L235.68835555555555,159.30901585207096L236.34613333333334,158.82765004030296L237.0039111111111,157.6493926512684L237.64195555555557,157.35868846341882L238.29973333333334,158.40068367743442L238.9575111111111,159.07854750371843L239.61528888888887,159.52435268444285L240.27306666666667,159.74567037713507L240.93084444444443,156.4308072655915L241.58862222222223,157.6332568025302L242.2464,108.84870362375445L242.9041777777778,129.3494264820994L243.56195555555556,141.5982244200874L244.21973333333332,149.0301395897489L244.8775111111111,153.40036475461253L245.53528888888889,155.73882688076213L246.17333333333335,154.51513252372095L246.8311111111111,156.7817672318156L247.4888888888889,157.71076647197816L248.14666666666668,158.45389509204395L248.8044444444444,159.0793023340605L249.4622222222222,159.5261393399657L250.12,159.74438665202237L250.77777777777777,159.90600611254783L251.43555555555557,159.71991379043587L252.09333333333333,131.02503428805545L252.75111111111113,142.68499379668526L253.4088888888889,149.68331312614393L254.06666666666666,153.85073327449834L254.7047111111111,156.38323738582284L255.3624888888889,157.90884480198804L256.02026666666666,158.27204370332112L256.6780444444444,159.02843809981556L257.33582222222225,159.41219288786894L257.9936,159.71165897884978L258.6513777777778,152.2204752685965L259.30915555555555,154.94000918998364L259.9669333333333,156.9711517532709L260.6247111111111,158.25135994902135L261.2824888888889,159.02107684096848L261.9402666666667,159.49226755309792L262.59804444444444,159.62027274762804L263.2360888888889,158.5548024666024L263.89386666666667,159.1385762360968L264.55164444444443,158.95260654671657L265.2094222222222,159.44127292990262L265.8672,159.74393561290404L266.5249777777778,159.91985860026244L267.18275555555556,160.01911451781237L267.8405333333333,159.97361680411962L268.4983111111111,160.0570504286042L269.15608888888886,160.02260976422735L269.8138666666667,160.03741194874885L270.47164444444445,135.40847296041755L271.1294222222222,145.2972592674792L271.7674666666667,151.23627476215216L272.42524444444444,153.54599723648937L273.0830222222222,156.19553496251277L273.7408,157.7857002955792L274.39857777777775,158.38997379971252L275.05635555555557,156.70785970230523L275.71413333333334,158.10238611705702L276.3719111111111,158.93972462376686L277.02968888888887,159.42735768404668L277.6874666666667,159.73532971247445L278.3452444444444,159.89465610547757L279.0030222222222,159.96230601527628L279.6608,159.19238227700197L280.29884444444446,156.21449312981966L280.9566222222222,157.80472609497963L281.6144,158.76102803105144L282.2721777777778,159.27323168563262L282.9299555555556,153.42472348479876L283.58773333333335,156.09276046875686L284.2455111111111,156.32403971030456L284.9032888888889,157.87276855469403L285.56106666666665,147.44938879585658L286.21884444444447,152.45644544430908L286.87662222222224,155.36420983042322L287.5344,157.27286511510835L288.1921777777778,158.4411018013735" style="fill: none;" fill="none"></path></g><g><path stroke="rgb(51, 187, 238)" stroke-width="2px" d="M35.519999999999996,-21.616058393487634L36.17777777777778,12.058212387843497L36.83555555555555,27.417184076392346L37.49333333333334,58.94549162237372L38.15111111111111,72.30506375082561L38.808888888888895,84.70439451769275L39.46666666666667,74.04580351746178L40.12444444444445,93.34979830623861L40.782222222222224,51.29549024815806L41.42026666666666,91.88900972534002L42.078044444444444,100.98444632708492L42.73582222222222,122.44244852071222L43.3936,102.62779581007595L44.05137777777777,118.58182355804381L44.70915555555556,134.71427786905122L45.366933333333336,143.5808185581022L46.02471111111112,143.03978150843733L46.68248888888889,143.39415457905523L47.34026666666667,126.51559269817835L47.998044444444446,120.67156395061946L48.65582222222223,135.32971361401223L49.3136,136.49524901798694L49.95164444444444,141.13416509541514L50.60942222222222,137.3726241467531L51.267199999999995,143.72129472276885L51.92497777777778,149.96943032219988L52.58275555555555,144.27093089020497L53.24053333333334,145.9185888194827L53.89831111111111,151.0068559348719L54.556088888888894,133.7984160082497L55.21386666666667,129.37618383297513L55.87164444444445,141.1812876043177L56.52942222222222,146.15977158632066L57.187200000000004,149.1038259143844L57.84497777777778,149.22575956104828L58.48302222222222,152.8439924331313L59.1408,154.62624211047816L59.79857777777777,150.11586018187148L60.45635555555556,153.72694061730667L61.11413333333333,148.92208800312704L61.771911111111116,150.1258434010614L62.42968888888889,153.70497884969797L63.08746666666667,147.99013084521894L63.745244444444445,133.95976213871333L64.40302222222222,142.66818100618465L65.0608,149.58379911432579L65.71857777777778,141.4618702545363L66.37635555555555,147.02246944277704L67.0144,148.97077403169743L67.67217777777778,152.79239858688442L68.32995555555556,150.12727405012396L68.98773333333334,154.09766688216328L69.6455111111111,151.37900622289476L70.30328888888889,154.8870841765474L70.96106666666667,156.7133747735067L71.61884444444445,158.02887874594003L72.27662222222222,148.44324269861355L72.9344,146.0675421462677L73.59217777777778,150.97609679378408L74.24995555555554,120.86566868112865L74.90773333333333,136.50843511752123L75.54577777777779,145.29727588851355L76.20355555555555,149.462138745541L76.86133333333333,153.67121455988564L77.51911111111112,155.54708267880247L78.1768888888889,157.3765361597107L78.83466666666666,155.2847778969983L79.49244444444444,148.19522096717236L80.15022222222223,152.7933089184992L80.808,155.51759807158902L81.46577777777777,154.62743857317804L82.12355555555555,156.8386763168194L82.78133333333334,133.86914788680184L83.43911111111112,142.7111731803233L84.07715555555555,149.28816516612855L84.73493333333333,152.6586565459662L85.39271111111111,155.4004470327433L86.05048888888888,157.20624104374266L86.70826666666666,157.68830948372852L87.36604444444444,158.4072319442044L88.02382222222222,158.7670069369084L88.68159999999999,158.83315906479396L89.33937777777777,159.28864585849306L89.99715555555555,159.53416447813905L90.65493333333333,155.22691096410512L91.3127111111111,155.5911252161584L91.97048888888888,155.6456306350661L92.60853333333334,157.42197766616542L93.26631111111111,158.3398062057173L93.92408888888889,152.06380943220114L94.58186666666667,155.23270756102357L95.23964444444445,157.00930523691625L95.89742222222222,158.21486021887094L96.5552,158.04738857394952L97.21297777777778,155.62110564498008L97.87075555555556,157.26046108596265L98.52853333333333,158.41902964230025L99.18631111111111,159.129109130595L99.84408888888889,159.53997741835943L100.50186666666667,157.65375291524907L101.1399111111111,158.43955292712795L101.79768888888889,159.09017775542227L102.45546666666667,159.4775887470644L103.11324444444443,159.7053127849818L103.77102222222221,159.88126224069123L104.4288,132.8232845889826L105.08657777777778,143.678361889559L105.74435555555554,150.26076637079595L106.40213333333332,154.19546422463822L107.0599111111111,156.579848191155L107.7176888888889,157.3795011502582L108.37546666666665,158.4343805302428L109.03324444444445,159.1266677468566L109.6712888888889,159.3082208782165L110.32906666666668,159.46962712226681L110.98684444444444,154.69550464402658L111.64462222222222,156.83384873062982L112.3024,158.17395025247703L112.96017777777777,158.97002593609315L113.61795555555555,159.38805033643615L114.27573333333333,159.69510788130506L114.93351111111112,159.7452520037159L115.59128888888888,159.6421783247271L116.24906666666666,159.85529150716536L116.90684444444445,159.4519956669335L117.56462222222223,152.6870447779372L118.20266666666666,155.67884345916954L118.86044444444444,152.86834310095338L119.51822222222222,155.78419002652663L120.176,157.5346233413249L120.83377777777777,158.59494125638184L121.49155555555555,158.8922707116233L122.14933333333333,159.34980002615612L122.8071111111111,159.68029230817413L123.46488888888888,159.80178076973115L124.12266666666667,157.23822063774202L124.78044444444446,158.2709855518957L125.43822222222221,158.92644562496065L126.096,159.3123373685677L126.73404444444445,159.64287551035875L127.39182222222223,159.8380384241962L128.0496,158.18665228577993L128.70737777777777,158.9296305316242L129.36515555555556,157.81634555682854L130.02293333333336,158.75050290599654L130.6807111111111,158.5620425425481L131.3384888888889,159.20245013490387L131.99626666666668,159.5912339130346L132.65404444444442,159.82452794547703L133.31182222222222,159.079260872816L133.9696,159.38843970240055L134.62737777777778,156.931824006682L135.2654222222222,157.94511777284467L135.9232,158.84626942469313L136.58097777777778,159.37831654068015L137.23875555555557,159.69296824166884L137.89653333333334,159.69382372873847L138.5543111111111,159.66225435839786L139.2120888888889,159.81177663389857L139.86986666666667,158.3469505094529L140.52764444444443,158.98986914295202L141.18542222222223,159.45742139421847L141.8432,159.2361802077469L142.50097777777776,157.69117534495453L143.15875555555556,150.11282086096443L143.7968,154.0968342096939L144.45457777777779,156.52053777404632L145.11235555555555,157.96186200158598L145.77013333333332,158.8338439236689L146.42791111111111,158.69623157087614L147.0856888888889,158.17322120609074L147.74346666666665,155.13813484157436L148.40124444444444,157.14986416605302L149.05902222222224,158.35237951342575L149.7168,159.078699551012L150.3745777777778,158.89562270759694L151.03235555555554,159.3869095666358L151.69013333333334,159.69972993035014L152.32817777777777,159.75658592879114L152.98595555555556,148.64612094699942L153.64373333333333,153.25613778197527L154.30151111111113,155.9334225449786L154.9592888888889,157.47857670508776L155.6170666666667,158.56110956980558L156.27484444444443,158.93770215698345L156.93262222222222,156.70163355462708L157.5904,158.0966480099735L158.24817777777778,158.9325227262722L158.90595555555555,159.4370589925138L159.56373333333335,159.74111841400193L160.2215111111111,159.86224909710722L160.85955555555554,159.59602716975115L161.5173333333333,159.6019264138502L162.1751111111111,159.7999769161202L162.83288888888887,159.8854641312395L163.49066666666667,159.99164812290874L164.14844444444446,160.05387826278331L164.80622222222223,159.50776496121003L165.46400000000003,159.66797005765864L166.12177777777777,159.87860578795213L166.77955555555553,159.88558903276882L167.43733333333333,158.70040671670415L168.09511111111112,159.29951069262015L168.7528888888889,159.65853850785726L169.39093333333335,159.84679455246825L170.04871111111112,159.98800203970848L170.70648888888888,160.07226140601503L171.36426666666665,152.74396759571474L172.02204444444445,155.69198160113L172.6798222222222,143.4544767948455L173.3376,150.00809638574518L173.99537777777778,154.07654667422054L174.65315555555557,156.52235977485702L175.31093333333334,157.88137141606168L175.9687111111111,139.54129587972736L176.62648888888887,147.77497720816478L177.28426666666667,152.73897703229633L177.9223111111111,155.61179331624058L178.5800888888889,157.44599635412425L179.2378666666667,158.54110981351215L179.89564444444446,157.5425634558563L180.5534222222222,158.60157940957336L181.2112,159.22502471788758L181.8689777777778,155.46093684306163L182.52675555555555,157.3195014063741L183.18453333333335,158.46837705994994L183.84231111111112,158.4755509819111L184.5000888888889,159.16168427261834L185.15786666666668,158.412362126071L185.81564444444444,158.84354779932426L186.45368888888888,158.93843722947554L187.11146666666667,158.82914010410377L187.76924444444444,159.3774093706898L188.42702222222223,159.7056647538836L189.0848,159.58297284601304L189.7425777777778,156.16156551455362L190.40035555555554,157.7593324209148L191.05813333333333,158.7354161181983L191.7159111111111,154.8847179555259L192.3736888888889,157.00971039672862L193.03146666666666,158.13830277288062L193.68924444444445,158.96222456076205L194.34702222222222,151.31316709386385L194.98506666666665,154.8614937392895L195.64284444444442,98.78709239530711L196.30062222222222,123.34658565263837L196.95839999999998,138.0826380904966L197.61617777777778,146.75639300444445L198.27395555555557,152.13261357366275L198.93173333333334,153.56280493390102L199.58951111111114,155.83841755540095L200.24728888888887,157.54333403200462L200.90506666666667,158.60454732472036L201.56284444444444,159.23842852529486L202.22062222222223,159.62116605530142L202.8784,159.85129406982637L203.51644444444446,159.98965267022834L204.17422222222223,160.07245394039384L204.832,160.12276618747848L205.48977777777776,160.11478943508232L206.14755555555556,151.91139307785846L206.80533333333332,155.22593954544556L207.46311111111112,157.2135232838469L208.12088888888889,158.4063621087359L208.77866666666668,159.10074090263166L209.43644444444445,159.54031552851748L210.09422222222221,159.73777814615102L210.75199999999998,159.89755687182148L211.40977777777778,160.01190692582725L212.04782222222224,160.0870270252168L212.7056,159.8756669521296L213.3633777777778,160.00317639350675L214.02115555555557,160.0802422466265L214.6789333333333,159.90155257835312L215.3367111111111,160.01774696144057L215.9944888888889,159.9895494677579L216.65226666666666,160.07366177904342L217.31004444444446,160.12404089371998L217.96782222222222,160.1529374909439L218.62560000000002,160.1714637274765L219.2833777777778,160.17118218393463L219.94115555555555,160.17841453344428L220.5792,160.08425926083805L221.23697777777778,160.0982191116481L221.89475555555555,160.11818412964755L222.55253333333334,160.05811274066696L223.2103111111111,160.11425652989823L223.8680888888889,160.13060412698434L224.52586666666664,160.11377148803143L225.18364444444444,122.81290141210596L225.8414222222222,137.75988123575235L226.4992,146.72741387939087L227.15697777777777,151.95391224059838L227.81475555555556,154.50350121398793L228.47253333333333,156.7820260366203L229.11057777777776,154.9686328506709L229.76835555555553,157.0602256927634L230.42613333333333,158.31605393372445L231.08391111111112,159.0299099176077L231.7416888888889,159.15800502115178L232.39946666666668,159.57440239318424L233.05724444444445,159.82123277502188L233.71502222222225,159.67758154581145L234.37279999999998,159.86298367327544L235.03057777777778,159.99616735545453L235.68835555555555,160.07545286993775L236.34613333333334,160.1247013484275L237.0039111111111,160.1530825278065L237.64195555555557,159.36342141991267L238.29973333333334,159.69800532081968L238.9575111111111,159.8826833499625L239.61528888888887,160.00111551840035L240.27306666666667,160.0806625208791L240.93084444444443,159.8081923721156L241.58862222222223,159.96195491301546L242.2464,109.19539289562421L242.9041777777778,129.59720178656886L243.56195555555556,141.83674405701822L244.21973333333332,125.0421239107124L244.8775111111111,139.0046102076335L245.53528888888889,147.4749234884717L246.17333333333335,132.56964067755567L246.8311111111111,143.6102037867214L247.4888888888889,149.57900124790106L248.14666666666668,153.8272038340678L248.8044444444444,150.54271917582213L249.4622222222222,154.2999086966554L250.12,155.97190498056648L250.77777777777777,157.66222971166752L251.43555555555557,158.66857172897807L252.09333333333333,159.26436030537695L252.75111111111113,159.63826988500838L253.4088888888889,159.8629551408439L254.06666666666666,159.9974539469331L254.7047111111111,160.03088861648138L255.3624888888889,160.09726001467644L256.02026666666666,160.13639365223847L256.6780444444444,160.1617954503763L257.33582222222225,160.17268403597285L257.9936,160.18319282667403L258.6513777777778,160.18984100423197L259.30915555555555,160.1935583043214L259.9669333333333,160.19568004179695L260.6247111111111,160.19727901201665L261.2824888888889,160.18559511411917L261.9402666666667,160.18956107085188L262.59804444444444,160.1937094818666L263.2360888888889,160.1960491449305L263.89386666666667,160.19730016414337L264.55164444444443,159.78260919585236L265.2094222222222,159.93830403527264L265.8672,160.04297563100243L266.5249777777778,159.86968468585246L267.18275555555556,160.00178365086694L267.8405333333333,159.99367614850507L268.4983111111111,160.0756047598428L269.15608888888886,160.12496902655997L269.8138666666667,158.5909611637082L270.47164444444445,158.63108075706282L271.1294222222222,159.20698211817813L271.7674666666667,159.5890981377892L272.42524444444444,159.7048973668654L273.0830222222222,152.75266788178916L273.7408,155.73115257843872L274.39857777777775,157.51869154706324L275.05635555555557,158.57560434779361L275.71413333333334,159.22339346194764L276.3719111111111,157.3549460732013L277.02968888888887,158.49059787768545L277.6874666666667,159.12094052897942L278.3452444444444,159.5523775879565L279.0030222222222,159.81017037296434L279.6608,159.9660411123284L280.29884444444446,160.05896941684773L280.9566222222222,160.11285231508666L281.6144,160.14604100941332L282.2721777777778,160.16524804925152L282.9299555555556,159.87298046407238L283.58773333333335,160.0035574129649L284.2455111111111,160.08157935210636L284.9032888888889,160.128139582089L285.56106666666665,160.15284360337938L286.21884444444447,130.93415844016485L286.87662222222224,142.23774005158668L287.5344,149.21176199665024L288.1921777777778,153.60410347789738" style="fill: none;" fill="none"></path></g></g></g></g><g opacity="0.2"><g><g><g><path stroke="rgb(0, 119, 187)" stroke-width="2px" d="M47.34026666666667,-161.5163745880127L47.998044444444446,6.657040023803717L48.65582222222223,133.39471430778502L49.3136,29.489856529235823L49.95164444444444,-40.98517494201661L51.267199999999995,-149.41926116943358L51.92497777777778,90.81680097579955L52.58275555555555,49.790621948242205L53.24053333333334,-1.3736835479736271L53.89831111111111,83.91676654815674L54.556088888888894,96.12977528572083L55.21386666666667,-61.34369068145753L55.87164444444445,68.23719806671143L56.52942222222222,111.32987775802611L57.187200000000004,-79.47454128265377L57.84497777777778,139.22626595497132L58.48302222222222,146.54683097600937L59.1408,69.10146675109863L59.79857777777777,93.79035682678223L60.45635555555556,88.91502113342285L61.11413333333333,113.26003198623657L61.771911111111116,-10.877770233154308L62.42968888888889,114.63329963684082L63.08746666666667,119.18273305892944L63.745244444444445,31.151926708221453L64.40302222222222,-10.44703636169433L65.71857777777778,-103.27434463500975L66.37635555555555,74.2064287185669L67.0144,100.27764706611633L67.67217777777778,105.61847801208496L68.32995555555556,35.63330574035646L68.98773333333334,157.54617586135865L69.6455111111111,103.74302277565003L70.30328888888889,10.20208129882812L70.96106666666667,47.4128433227539L71.61884444444445,136.4584689617157L72.27662222222222,108.44069814682007L72.9344,100.29005184173583L73.59217777777778,154.60869274139404L74.24995555555554,136.79857540130615L74.90773333333333,121.41700162887574L75.54577777777779,123.20972299575806L76.20355555555555,98.00165295600891L76.86133333333333,105.64977641105652L77.51911111111112,136.30043008327485L78.1768888888889,92.11414613723754L78.83466666666666,152.99194900989534L79.49244444444444,76.40886840820312L80.15022222222223,136.4951018810272L80.808,7.109536361694353L81.46577777777777,141.58834233283997L82.12355555555555,119.76538829803467L82.78133333333334,37.12717514038084L83.43911111111112,159.00008542835712L84.07715555555555,130.88698048591613L84.73493333333333,160.0198819577694L85.39271111111111,36.15629243850708L86.05048888888888,145.12669529914857L86.70826666666666,155.5038778781891L87.36604444444444,-26.271982192993164L88.02382222222222,153.88221127986907L88.68159999999999,144.36528058052062L89.33937777777777,158.16968240737916L89.99715555555555,137.29322378635408L90.65493333333333,145.11830838918686L91.3127111111111,142.68733627796172L91.97048888888888,117.1690556049347L92.60853333333334,122.86142168045043L93.26631111111111,155.71315276622772L93.92408888888889,138.54738988876343L94.58186666666667,156.47741829156877L95.23964444444445,139.39211139678955L95.89742222222222,159.33537801504136L96.5552,157.7045468211174L97.21297777777778,158.63666194677353L97.87075555555556,157.13371176719664L98.52853333333333,122.01725187301636L99.18631111111111,130.10501916408538L99.84408888888889,120.82638492584229L100.50186666666667,141.39299364089965L101.1399111111111,149.47720034122466L101.79768888888889,159.35455067157744L102.45546666666667,139.36336355209352L103.11324444444443,110.53873062133789L103.77102222222221,158.51976507902145L104.4288,148.1516717672348L105.08657777777778,157.95383591651915L105.74435555555554,159.10085009336473L106.40213333333332,43.570834350585955L107.0599111111111,156.05051555633545L107.7176888888889,155.478855073452L108.37546666666665,160.17370297908784L109.03324444444445,153.15439937114715L109.6712888888889,134.35367391109466L110.32906666666668,159.27352389097214L110.98684444444444,109.38123731613159L111.64462222222222,159.24348909854888L112.3024,154.57976241111754L112.96017777777777,160.10986299812794L113.61795555555555,128.26907629966735L114.27573333333333,130.55218098163604L114.93351111111112,109.83932704925537L115.59128888888888,147.33113384246826L116.24906666666666,116.46853590011597L116.90684444444445,159.26806735992432L117.56462222222223,149.80920102596284L118.20266666666666,156.89585030078888L118.86044444444444,159.9988096475601L119.51822222222222,155.4194401025772L120.176,154.01424171924592L120.83377777777777,-72.0137159347534L121.49155555555555,159.74927971363067L122.14933333333333,160.15898742675782L122.8071111111111,137.70164349079133L123.46488888888888,140.36573774814605L124.12266666666667,160.19826214313508L124.78044444444446,160.07469420731067L125.43822222222221,159.88657995462418L126.096,113.89977550506592L126.73404444444445,156.15405066013335L127.39182222222223,137.08553185462952L128.0496,158.61163914203644L128.70737777777777,153.32318898439408L129.36515555555556,154.0357622861862L130.02293333333336,154.21859480142592L130.6807111111111,158.49013981819152L131.3384888888889,160.1979884147644L131.99626666666668,149.25344755649567L132.65404444444442,155.04849784374238L133.31182222222222,156.6784510910511L133.9696,160.19797780513764L134.62737777777778,154.01072303652762L135.2654222222222,159.94796619415283L135.9232,135.1750606060028L136.58097777777778,160.1276229828596L137.23875555555557,64.87325887680053L137.89653333333334,152.69760613441468L138.5543111111111,153.56479034423828L139.2120888888889,142.10092947483062L139.86986666666667,160.12166488170624L140.52764444444443,159.52117910385132L141.18542222222223,158.65164592266083L141.8432,159.54659128189087L142.50097777777776,141.6544997215271L143.15875555555556,138.64512577056885L143.7968,159.95682947635652L144.45457777777779,159.02729885578157L145.11235555555555,160.198459482193L145.77013333333332,135.27960786819457L146.42791111111111,160.06922361850738L147.0856888888889,158.4614970088005L147.74346666666665,158.10192031264305L148.40124444444444,159.96209185123445L149.05902222222224,134.37467460632325L149.7168,159.42295889258384L150.3745777777778,143.9041161775589L151.03235555555554,159.8337153673172L151.69013333333334,160.18214612007142L152.32817777777777,160.19966473579407L152.98595555555556,160.1105438709259L153.64373333333333,-2.6747463226318473L154.30151111111113,124.2250557899475L154.9592888888889,160.06555268764495L155.6170666666667,160.0084750175476L156.27484444444443,160.13490569591522L156.93262222222222,160.17432682514192L157.5904,127.95592255592346L158.24817777777778,159.0612411737442L158.90595555555555,160.09508352279664L159.56373333333335,153.26099535226822L160.2215111111111,159.99530634880065L160.85955555555554,105.16638908386231L161.5173333333333,157.0419936656952L162.1751111111111,160.19948861598968L162.83288888888887,157.70929462909697L163.49066666666667,156.86901006698608L164.14844444444446,159.44999381303788L164.80622222222223,160.17756276130677L165.46400000000003,160.1909860610962L166.12177777777777,159.99538167715073L166.77955555555553,160.1226218700409L167.43733333333333,120.6773663520813L168.09511111111112,62.62487525939942L168.7528888888889,160.1689159154892L169.39093333333335,160.19987268447875L170.04871111111112,130.59244027137757L170.70648888888888,59.696720123291016L171.36426666666665,160.0775458097458L172.02204444444445,159.21681225299835L172.6798222222222,160.19926369190216L173.3376,160.17337832450866L173.99537777777778,160.1764789879322L174.65315555555557,160.13497784137726L175.31093333333334,146.07866315841676L175.9687111111111,160.19720118045808L176.62648888888887,123.52660284042358L177.28426666666667,158.04723246097564L177.9223111111111,132.2313729763031L178.5800888888889,160.19951407909394L179.2378666666667,160.1997644662857L179.89564444444446,114.64064149856567L180.5534222222222,160.19993634223937L181.2112,53.4281367301941L181.8689777777778,160.16687037944794L182.52675555555555,160.19996604919433L183.18453333333335,160.14484479427338L183.84231111111112,153.75000047683716L184.5000888888889,159.55661313533784L185.15786666666668,160.19458060264589L185.81564444444444,121.04503660202026L186.45368888888888,151.67296657562255L187.11146666666667,158.12728209495543L187.76924444444444,155.06219062805175L188.42702222222223,160.19711418151854L189.0848,160.19975385665893L189.7425777777778,160.1997411251068L190.40035555555554,159.91538827419282L191.05813333333333,160.19241199493408L191.7159111111111,160.1882360458374L192.3736888888889,160.1998344898224L193.03146666666666,159.72650084495544L193.68924444444445,160.1782120704651L194.34702222222222,153.51399993896484L194.98506666666665,159.70823106765747L195.64284444444442,160.1986801624298L196.30062222222222,159.7559361934662L196.95839999999998,159.95949938893318L197.61617777777778,144.28328301906586L198.27395555555557,157.9802369117737L198.93173333333334,159.5197595357895L199.58951111111114,156.79471297264098L200.24728888888887,89.39432587623595L200.90506666666667,141.29225311279296L201.56284444444444,131.67822523117064L202.22062222222223,159.89627397060394L202.8784,159.5661320924759L203.51644444444446,159.9071756273508L204.17422222222223,23.8160997390747L204.832,156.28346900939943L205.48977777777776,159.6250380665064L206.14755555555556,76.44219961166382L206.80533333333332,160.18630933761597L207.46311111111112,160.19806480407715L208.12088888888889,160.0901394367218L208.77866666666668,160.19365544319152L209.43644444444445,160.01165153980256L210.09422222222221,127.46551802158356L210.75199999999998,160.19921700954438L211.40977777777778,159.89444062709808L212.04782222222224,138.736608338356L212.7056,56.67460613250732L213.3633777777778,160.19871623516082L214.02115555555557,160.11191251277924L214.6789333333333,72.20955266952515L215.3367111111111,160.1950771331787L215.9944888888889,159.94298391342164L216.65226666666666,160.19614233970643L217.31004444444446,160.1959577322006L217.96782222222222,141.69656476974487L218.62560000000002,160.15238823890687L219.2833777777778,160.09869503974915L219.94115555555555,159.94090442657472L220.5792,159.66933617591857L221.23697777777778,160.2L221.89475555555555,160.19990875720978L222.55253333333334,160.18765251636506L223.2103111111111,160.07016575336456L223.8680888888889,160.1878710746765L224.52586666666664,159.98903393745422L225.18364444444444,160.128688454628L225.8414222222222,160.19998302459717L226.4992,160.2L227.15697777777777,160.16947822570802L227.81475555555556,160.2L228.47253333333333,160.12417724132538L229.11057777777776,98.09048099517823L229.76835555555553,160.1897129058838L230.42613333333333,157.38692960739135L231.08391111111112,157.72103099823L231.7416888888889,160.0896694302559L232.39946666666668,160.00382800102233L233.05724444444445,160.16487576961518L233.71502222222225,160.19999787807464L234.37279999999998,136.61627230644226L235.03057777777778,26.19355583190918L235.68835555555555,160.1744435310364L236.34613333333334,159.44228591918946L237.0039111111111,57.30212736129761L237.64195555555557,160.19779319763182L238.29973333333334,160.19635241031648L238.9575111111111,135.71642742156982L239.61528888888887,159.9414858341217L240.27306666666667,157.94221837520598L240.93084444444443,160.2L241.58862222222223,160.13983917236328L242.2464,160.15689945220947L242.9041777777778,160.19791202545167L243.56195555555556,160.18432745933532L244.21973333333332,160.19976234436035L244.8775111111111,156.47980651855468L245.53528888888889,160.2L246.17333333333335,143.74834351539613L246.8311111111111,152.91286273002623L247.4888888888889,160.178067779541L248.14666666666668,160.2L248.8044444444444,160.1886010169983L249.4622222222222,155.34796304702758L250.12,159.9820007827133L250.77777777777777,160.18608865737914L251.43555555555557,157.24869890213012L252.09333333333333,159.3491875052452L252.75111111111113,54.1982343673706L253.4088888888889,160.1736669063568L254.06666666666666,32.71120233535768L254.7047111111111,160.18814692497253L255.3624888888889,160.00527303218843L256.02026666666666,160.16177988052368L256.6780444444444,160.1984318971634L257.33582222222225,160.19998726844787L257.9936,160.1989984512329L258.6513777777778,159.9254186153412L259.30915555555555,159.9031681060791L259.9669333333333,160.2L260.6247111111111,160.12287862300872L261.2824888888889,160.12099541425704L261.9402666666667,84.63769493103027L262.59804444444444,160.19992997646332L263.2360888888889,66.21122617721558L263.89386666666667,160.1989114522934L264.55164444444443,160.13797824382783L265.2094222222222,160.19998302459717L265.8672,157.04135921001435L266.5249777777778,155.02941112518312L267.18275555555556,159.57509298324584L267.8405333333333,160.18132281303406L268.4983111111111,160.14149639606475L269.15608888888886,158.75879678726196L269.8138666666667,158.91252603530884L270.47164444444445,160.13561866283416L271.1294222222222,160.17998600006104L271.7674666666667,160.17158741950988L272.42524444444444,160.1993082523346L273.0830222222222,160.12524456977843L273.7408,158.34991025924683L274.39857777777775,159.6757528781891L275.05635555555557,160.19001421928405L275.71413333333334,160.19990026950836L276.3719111111111,136.3945098876953L277.02968888888887,137.7610170841217L277.6874666666667,160.1686252117157L278.3452444444444,160.1999214887619L279.0030222222222,160.0930273771286L279.6608,113.20556216239929L280.29884444444446,159.59274740219115L280.9566222222222,160.2L281.6144,159.68558163642882L282.2721777777778,160.2L282.9299555555556,160.19837248325348L283.58773333333335,160.19959046840668L284.2455111111111,160.1993591785431L284.9032888888889,160.13017423339187L285.56106666666665,160.14664418697356L286.21884444444447,118.24357738494874L286.87662222222224,160.1998344898224L287.5344,159.96309764385222L288.1921777777778,160.13844294548034" style="fill: none;" fill="none"></path></g><g><path stroke="rgb(204, 51, 17)" stroke-width="2px" d="M37.49333333333334,-7.633753776550293L38.15111111111111,65.52140522003174L38.808888888888895,-15.000722122192371L39.46666666666667,99.5666874885559L40.12444444444445,76.66411905288696L40.782222222222224,51.36056661605835L41.42026666666666,32.4000347137451L42.078044444444444,146.6979513168335L42.73582222222222,108.34715518951417L43.3936,-6.744887733459478L44.05137777777777,18.828989505767822L44.70915555555556,136.1007887363434L45.366933333333336,80.66679172515869L46.02471111111112,3.4453956604004077L46.68248888888889,138.77247948646544L47.34026666666667,106.205597782135L47.998044444444446,-193.0872287750244L48.65582222222223,128.69731690883637L49.3136,157.895992231369L49.95164444444444,147.58491399288178L50.60942222222222,20.688127136230463L51.267199999999995,101.7452003479004L51.92497777777778,135.9489182949066L52.58275555555555,136.09020669460295L53.24053333333334,147.98765542507172L53.89831111111111,156.05341835021972L54.556088888888894,67.41764259338379L55.21386666666667,16.809502220153803L55.87164444444445,157.44750500619412L56.52942222222222,157.10154656171798L57.187200000000004,158.25235606729984L57.84497777777778,116.54811658859253L58.48302222222222,157.79606599211692L59.1408,123.18242230415345L59.79857777777777,128.60552666187286L60.45635555555556,149.6622969508171L61.11413333333333,83.15056476593017L61.771911111111116,147.27535797357558L62.42968888888889,105.3363977432251L63.08746666666667,158.001859331131L63.745244444444445,151.2714473724365L64.40302222222222,134.89159684181215L65.0608,159.19564671069384L65.71857777777778,159.5215550161898L66.37635555555555,36.51606063842772L67.0144,157.39771270155907L67.67217777777778,115.21681213378906L68.32995555555556,76.30440177917481L68.98773333333334,156.14657617807387L69.6455111111111,123.8496787071228L70.30328888888889,154.6254092693329L70.96106666666667,65.06791582107545L71.61884444444445,42.4458574295044L72.27662222222222,156.4920102417469L72.9344,135.33544845581054L73.59217777777778,139.7848373413086L74.24995555555554,158.6121242672205L74.90773333333333,156.33364989161493L75.54577777777779,150.83168258666993L76.20355555555555,159.50782058909536L76.86133333333333,159.6313066318631L77.51911111111112,159.66841506138445L78.1768888888889,100.80269203186036L78.83466666666666,150.53989026546478L79.49244444444444,150.54873869419097L80.15022222222223,159.25136183947325L80.808,66.48143215179444L81.46577777777777,-43.363445854187006L82.12355555555555,126.10468060970307L82.78133333333334,157.85166468024255L83.43911111111112,102.42908415794373L84.07715555555555,157.96295701265336L84.73493333333333,147.3534692287445L85.39271111111111,159.5684105761349L86.05048888888888,152.8478156387806L86.70826666666666,157.57982614934446L87.36604444444444,81.41391315460206L88.02382222222222,159.75884999483824L88.68159999999999,157.24387947916983L89.33937777777777,88.76848945617675L89.99715555555555,90.6795081615448L90.65493333333333,136.47869939804076L91.3127111111111,160.14406074285506L91.97048888888888,160.1217397790402L92.60853333333334,158.05824273377658L93.26631111111111,158.9754205659032L93.92408888888889,151.96774126291274L94.58186666666667,106.41271891593932L95.23964444444445,159.75197412781418L95.89742222222222,153.3517437338829L96.5552,84.3689148902893L97.21297777777778,137.54448521137238L97.87075555555556,147.13866884708403L98.52853333333333,153.4140397489071L99.18631111111111,160.0240786453709L99.84408888888889,159.7255756855011L100.50186666666667,117.48910560607911L101.1399111111111,147.77047742605208L101.79768888888889,159.8853339534253L102.45546666666667,159.50510041341187L103.11324444444443,159.86406128704547L103.77102222222221,156.57524859905243L104.4288,159.44569160938264L105.08657777777778,159.88214280977846L105.74435555555554,158.4857629492879L106.40213333333332,129.8078817129135L107.0599111111111,159.37277761250735L107.7176888888889,159.2401363901794L108.37546666666665,151.56282061338425L109.03324444444445,159.66055415682496L109.6712888888889,159.9099544543773L110.32906666666668,158.04691815078257L110.98684444444444,148.25166749954224L111.64462222222222,159.07650524377823L112.3024,159.40979884415864L112.96017777777777,160.12046026634053L113.61795555555555,159.87814785428344L114.27573333333333,152.98339818120002L114.93351111111112,131.17474539279937L115.59128888888888,159.98035015687347L116.24906666666666,154.73854078054427L116.90684444444445,159.7078694783151L117.56462222222223,159.98598642162978L118.20266666666666,144.0778562426567L118.86044444444444,159.9734768262133L119.51822222222222,159.76637795604765L120.176,160.01895444430411L120.83377777777777,157.603561475873L121.49155555555555,159.8154322285205L122.14933333333333,-70.36591358184813L122.8071111111111,159.407439263165L123.46488888888888,134.77060041427612L124.12266666666667,159.06722182035446L124.78044444444446,148.90671010017394L125.43822222222221,155.7498403251171L126.096,156.90816197693348L126.73404444444445,158.31477197110652L127.39182222222223,159.27718653306366L128.0496,159.5977436080575L128.70737777777777,157.78301031589507L129.36515555555556,159.676273611933L130.02293333333336,105.85079064369201L130.6807111111111,159.89835717082025L131.3384888888889,159.75309546589853L131.99626666666668,159.65527792312204L132.65404444444442,158.93053561151027L133.31182222222222,157.41022436916828L133.9696,160.1622242125217L134.62737777777778,141.57803189754486L135.2654222222222,130.93380501270295L135.9232,160.1060606653802L136.58097777777778,160.03603160008788L137.23875555555557,157.54714292883872L137.89653333333334,159.44406263381242L138.5543111111111,160.16840856396593L139.2120888888889,159.53544653207064L139.86986666666667,160.11677342103795L140.52764444444443,154.25041996836663L141.18542222222223,118.45322785377502L141.8432,159.72404577732087L142.50097777777776,160.178342780238L143.15875555555556,158.82970728874207L143.7968,139.72638890743255L144.45457777777779,146.88340653181075L145.11235555555555,151.8614099919796L145.77013333333332,157.05045351684095L146.42791111111111,160.1402977196034L147.0856888888889,160.04986071810126L147.74346666666665,159.83443576097488L148.40124444444444,160.0005281915888L149.05902222222224,160.0893925189972L149.7168,137.94077599048615L150.3745777777778,157.03329907655717L151.03235555555554,160.04338281154634L151.69013333333334,160.17698941666168L152.32817777777777,155.61899020671845L152.98595555555556,153.60725219249724L153.64373333333333,160.121234976314L154.30151111111113,155.1593482851982L154.9592888888889,158.76095730513333L155.6170666666667,160.16515309116804L156.27484444444443,158.5028719007969L156.93262222222222,156.58333339989184L157.5904,160.1821970462799L158.24817777777778,154.78479344844817L158.90595555555555,159.98763979934157L159.56373333333335,159.8859173834324L160.2215111111111,40.3584345817566L160.85955555555554,137.98649711608886L161.5173333333333,160.17786415345034L162.1751111111111,158.27350291013718L162.83288888888887,160.16764074403326L163.49066666666667,160.0864746561274L164.14844444444446,159.8250753182918L164.80622222222223,155.6474781155586L165.46400000000003,160.1699944897322L166.12177777777777,152.3799210190773L166.77955555555553,160.1955600835965L167.43733333333333,160.04555990695954L168.09511111111112,119.73145446777343L168.7528888888889,159.7404058881104L169.39093333333335,160.04950254373253L170.04871111111112,159.23803488835694L170.70648888888888,160.1235563626513L171.36426666666665,159.95534379705788L172.02204444444445,160.124784857966L172.6798222222222,160.19385341893067L173.3376,159.82879037857055L173.99537777777778,160.04047106578946L174.65315555555557,160.0580166697502L175.31093333333334,160.1840320869116L175.9687111111111,160.18598977545042L176.62648888888887,160.19919897317885L177.28426666666667,160.09405672643334L177.9223111111111,160.19740530957353L178.5800888888889,158.2790050625801L179.2378666666667,160.17793682939373L179.89564444444446,159.06548780947924L180.5534222222222,81.55001344680787L181.2112,146.94873000383376L181.8689777777778,156.84960718154906L182.52675555555555,160.1783285649959L183.18453333333335,160.18562438052612L183.84231111111112,159.7527397118509L184.5000888888889,160.09458036124707L185.15786666666668,160.07878395318986L185.81564444444444,158.91483681201936L186.45368888888888,160.01865813732147L187.11146666666667,159.99948357436807L187.76924444444444,160.18977019786834L188.42702222222223,160.02642375417054L189.0848,160.04996459297837L189.7425777777778,159.61839365512134L190.40035555555554,145.9271842122078L191.05813333333333,148.145052421093L191.7159111111111,153.58563560843467L192.3736888888889,160.13747746944426L193.03146666666666,159.56853066384792L193.68924444444445,160.13225604938344L194.34702222222222,160.1286593859084L194.98506666666665,155.4365290284157L195.64284444444442,160.0750665471889L196.30062222222222,160.09353770017623L196.95839999999998,160.1417132551782L197.61617777777778,160.06687217708676L198.27395555555557,159.72758047394456L198.93173333333334,160.19161797057023L199.58951111111114,160.19807074544224L200.24728888888887,158.6211901932955L200.90506666666667,159.72290142960847L201.56284444444444,160.1850731368526L202.22062222222223,160.00426044277847L202.8784,125.12554574012756L203.51644444444446,157.45271725058555L204.17422222222223,160.16375412070192L204.832,160.1831033197697L205.48977777777776,160.1910412311554L206.14755555555556,159.83672064356506L206.80533333333332,160.19427631875732L207.46311111111112,160.05490741916L208.12088888888889,160.19536401738296L208.77866666666668,159.8257061600685L209.43644444444445,160.19682050699777L210.09422222222221,160.18333779355743L210.75199999999998,149.8429767727852L211.40977777777778,160.19686416576732L212.04782222222224,157.55256073474885L212.7056,105.18836374282837L213.3633777777778,160.1809695124626L214.02115555555557,152.35533002614974L214.6789333333333,145.23697069883346L215.3367111111111,157.53484318852423L215.9944888888889,153.90333398580552L216.65226666666666,-159.94747390747074L217.31004444444446,160.1982803916413L217.96782222222222,158.02124749571084L218.62560000000002,99.57362618446349L219.2833777777778,160.0238672485575L219.94115555555555,160.0431099286303L220.5792,159.86923533678055L221.23697777777778,155.18744841217995L221.89475555555555,127.01958055496216L222.55253333333334,160.17811828095L223.2103111111111,159.9977050859481L223.8680888888889,159.96280155237764L224.52586666666664,150.6372664809227L225.18364444444444,160.19929297444614L225.8414222222222,160.1782366839703L226.4992,160.14063065052034L227.15697777777777,160.18569440406282L227.81475555555556,160.1981191253144L228.47253333333333,160.1965455055237L229.11057777777776,160.17309186458587L229.76835555555553,160.1943344593048L230.42613333333333,130.71612305641173L231.08391111111112,160.1928561140143L231.7416888888889,158.51496714055537L232.39946666666668,159.47985493913293L233.05724444444445,160.16634732484818L233.71502222222225,154.24799142479895L234.37279999999998,159.4424219213426L235.03057777777778,160.17181446552277L235.68835555555555,160.1851991458563L236.34613333333334,158.1056013226509L237.0039111111111,155.8820065677166L237.64195555555557,156.92263218164445L238.29973333333334,159.9636764984578L238.9575111111111,160.09534324314444L239.61528888888887,160.1930604555295L240.27306666666667,160.0776469161734L240.93084444444443,151.45851259827614L241.58862222222223,159.43693110793828L242.2464,35.6718738555908L242.9041777777778,160.10051076961682L243.56195555555556,159.9714213270694L244.21973333333332,160.17801234424115L244.8775111111111,159.95570250190795L245.53528888888889,159.2465200699866L246.17333333333335,152.6795909881592L246.8311111111111,160.18171929395757L247.4888888888889,159.10426533222198L248.14666666666668,159.56858802214265L248.8044444444444,160.01741319708526L249.4622222222222,160.19639484882356L250.12,160.07175762010738L250.77777777777777,160.14843530333602L251.43555555555557,159.4407753072679L252.09333333333333,87.98271503448487L252.75111111111113,160.17493305962998L253.4088888888889,160.1807921203319L254.06666666666666,160.10186349703L254.7047111111111,160.1819935528096L255.3624888888889,160.1972559262358L256.02026666666666,158.81684205532073L256.6780444444444,160.1630296945572L257.33582222222225,159.98782506994903L257.9936,160.16085811532102L258.6513777777778,140.98369970321656L259.30915555555555,159.0193100720644L259.9669333333333,160.01786559820175L260.6247111111111,160.17167224264705L261.2824888888889,160.17565217888915L261.9402666666667,160.1990536212921L262.59804444444444,159.81228053942323L263.2360888888889,156.95659704506397L263.89386666666667,160.01423689033837L264.55164444444443,158.6736520126462L265.2094222222222,160.1742725046817L265.8672,160.1979296374062L266.5249777777778,160.18374308130007L267.18275555555556,160.16799839413724L267.8405333333333,159.90537023358047L268.4983111111111,160.1822008653311L269.15608888888886,159.97094876766204L269.8138666666667,160.05961522553116L270.47164444444445,98.46506447792054L271.1294222222222,160.13043872807174L271.7674666666667,160.14479800416157L272.42524444444444,157.01058094799518L273.0830222222222,160.16984155154788L273.7408,160.17094829517882L274.39857777777775,159.29638405591248L275.05635555555557,154.18468855619432L275.71413333333334,160.19417573918471L276.3719111111111,160.19573238383163L277.02968888888887,160.15880727446637L277.6874666666667,160.19728775511612L278.3452444444444,160.13364569498225L279.0030222222222,160.06378087997436L279.6608,158.03749666959047L280.29884444444446,151.74765940904618L280.9566222222222,160.19007554271957L281.6144,160.19548093515914L282.2721777777778,160.04153716750443L282.9299555555556,144.65196118354797L283.58773333333335,160.09481594469398L284.2455111111111,156.67095857262612L284.9032888888889,160.19586182127824L285.56106666666665,131.8143191576004L286.21884444444447,159.96703041698782L286.87662222222224,159.72585640959443L287.5344,160.13584804213605L288.1921777777778,160.19345683077117" style="fill: none;" fill="none"></path></g><g><path stroke="rgb(51, 187, 238)" stroke-width="2px" d="M34.20444444444444,-207.35454559326172L34.86222222222222,57.9668586730957L35.519999999999996,112.05005922317504L36.17777777777778,58.641851615905765L36.83555555555555,49.3807593345642L37.49333333333334,104.91406669616698L38.15111111111111,92.00783767700194L38.808888888888895,103.1159556388855L39.46666666666667,58.15458965301514L40.12444444444445,122.20073900222778L40.782222222222224,-11.648657226562506L41.42026666666666,152.69976201057435L42.078044444444444,114.6169098854065L42.73582222222222,154.6143179655075L43.3936,72.91420164108277L44.05137777777777,142.50881445407867L44.70915555555556,158.91050171852112L45.366933333333336,156.87981915473938L46.02471111111112,142.22825560569763L46.68248888888889,143.92570252418517L47.34026666666667,101.19808311462403L47.998044444444446,111.90559005737305L48.65582222222223,157.31683392524718L49.3136,138.2435471534729L49.95164444444444,148.09252734184264L50.60942222222222,131.73031849861144L51.267199999999995,153.24429473876953L51.92497777777778,159.34163026809694L52.58275555555555,135.72318363189697L53.24053333333334,148.39007538557053L53.89831111111111,158.6392560005188L54.556088888888894,107.98575735092163L55.21386666666667,122.74283576011658L55.87164444444445,158.88894295692444L56.52942222222222,153.62749748229982L57.187200000000004,153.5199073791504L57.84497777777778,149.40866003036498L58.48302222222222,158.27134172916413L59.1408,157.29961662292482L59.79857777777777,143.3502872943878L60.45635555555556,159.1435612678528L61.11413333333333,141.7148090839386L61.771911111111116,151.93147649765015L62.42968888888889,159.07368202209472L63.08746666666667,139.41785883903503L63.745244444444445,112.91420907974243L64.40302222222222,155.73080930709838L65.0608,159.9572262763977L65.71857777777778,129.27897696495057L66.37635555555555,155.36336822509764L67.0144,151.89323091506958L67.67217777777778,158.52483541965483L68.32995555555556,146.12958724498748L68.98773333333334,160.0532561302185L69.6455111111111,147.30101523399352L70.30328888888889,160.14920110702514L70.96106666666667,159.45281066894532L71.61884444444445,160.00213470458985L72.27662222222222,134.06478862762452L72.9344,142.503991317749L73.59217777777778,158.3389287650585L74.24995555555554,75.700026512146L74.90773333333333,159.97258477211L75.54577777777779,158.480537045002L76.20355555555555,155.70943303108214L76.86133333333333,159.9848282814026L77.51911111111112,158.36088485717772L78.1768888888889,160.120716381073L78.83466666666666,152.1471405029297L79.49244444444444,137.56088557243348L80.15022222222223,159.6904408454895L80.808,159.60403180122375L81.46577777777777,153.2921993255615L82.12355555555555,160.1555329322815L82.78133333333334,99.41485524177551L83.43911111111112,155.97421112060547L84.07715555555555,159.15365314483643L84.73493333333333,157.71439361572266L85.39271111111111,159.51313276290892L86.05048888888888,159.9149320602417L86.70826666666666,158.41141214370728L87.36604444444444,159.48561563491822L88.02382222222222,159.30666942596434L88.68159999999999,158.93238725662232L89.33937777777777,159.97187604904175L89.99715555555555,159.90244240760802L90.65493333333333,148.7660306930542L91.3127111111111,156.13744659423827L91.97048888888888,155.72738876342774L92.60853333333334,160.08649821281432L93.26631111111111,159.71654901504516L93.92408888888889,142.64981427192689L94.58186666666667,159.9860547542572L95.23964444444445,159.67420175075532L95.89742222222222,160.023192691803L96.5552,157.7961811065674L97.21297777777778,151.98168125152588L97.87075555555556,159.71949424743653L98.52853333333333,160.15688247680663L99.18631111111111,160.1942283630371L99.84408888888889,160.15627985000611L100.50186666666667,154.8244161605835L101.1399111111111,159.61825294494628L101.79768888888889,160.06611499786376L102.45546666666667,160.0587052345276L103.11324444444443,160.0468988418579L103.77102222222221,160.14518642425537L104.4288,92.23631811141968L105.08657777777778,159.9609778404236L105.74435555555554,160.13437309265137L106.40213333333332,160.0975110054016L107.0599111111111,160.15642414093017L107.7176888888889,158.57898058891297L108.37546666666665,160.01669960021974L109.03324444444445,160.16509857177735L109.6712888888889,159.58055057525635L110.32906666666668,159.7117364883423L110.98684444444444,147.53432092666625L111.64462222222222,160.04136486053466L112.3024,160.1841025352478L112.96017777777777,160.16413946151732L113.61795555555555,160.0150869369507L114.27573333333333,160.1556941986084L114.93351111111112,159.82046818733215L115.59128888888888,159.4875678062439L116.24906666666666,160.17496128082274L116.90684444444445,158.8470519065857L117.56462222222223,142.53961844444274L118.20266666666666,160.16654148101807L118.86044444444444,148.65259256362916L119.51822222222222,160.15796041488647L120.176,160.16027331352234L120.83377777777777,160.18541812896729L121.49155555555555,159.33826489448546L122.14933333333333,160.03609399795533L122.8071111111111,160.17603073120117L123.46488888888888,159.98401346206666L124.12266666666667,153.3928804397583L124.78044444444446,159.8201329231262L125.43822222222221,159.9096357345581L126.096,159.89117498397826L126.73404444444445,160.13868272304535L127.39182222222223,160.13078279495238L128.0496,155.70957307815553L128.70737777777777,160.04409790039062L129.36515555555556,156.146418094635L130.02293333333336,160.15173892974855L130.6807111111111,158.2793519973755L131.3384888888889,160.1630615234375L131.99626666666668,160.1744095802307L132.65404444444442,160.17446899414062L133.31182222222222,157.96136026382447L133.9696,159.85220794677736L134.62737777777778,153.24690046310425L135.2654222222222,159.46505842208862L135.9232,160.19799690246583L136.58097777777778,160.17638721466065L137.23875555555557,160.16494579315184L137.89653333333334,159.69510695934295L138.5543111111111,159.61490030288695L139.2120888888889,160.03606004714965L139.86986666666667,156.1497113227844L140.52764444444443,159.95424709320068L141.18542222222223,160.15874977111815L141.8432,158.90431842803955L142.50097777777776,155.37366805076599L143.15875555555556,138.74528913497926L143.7968,160.07285423278807L144.45457777777779,160.15609312057495L145.11235555555555,160.1238483428955L145.77013333333332,160.1418168067932L146.42791111111111,158.489813041687L147.0856888888889,157.38870565891267L147.74346666666665,150.58550529479982L148.40124444444444,160.167458152771L149.05902222222224,160.15615253448487L149.7168,160.16817960739135L150.3745777777778,158.62100744247437L151.03235555555554,160.1238398551941L151.69013333333334,160.16896047592164L152.32817777777777,159.84186992645263L152.98595555555556,131.98042347431183L153.64373333333333,160.17116303443908L154.30151111111113,159.94934968948365L154.9592888888889,159.79630794525147L155.6170666666667,160.18490886688232L156.27484444444443,159.50259103775025L156.93262222222222,153.34753065109254L157.5904,160.18916969299318L158.24817777777778,160.1863348007202L158.90595555555555,160.19386339187622L159.56373333333335,160.19720754623413L160.2215111111111,160.04394512176515L160.85955555555554,159.19669427871705L161.5173333333333,159.6107752799988L162.1751111111111,160.09705266952514L162.83288888888887,160.01369495391845L163.49066666666667,160.1509241104126L164.14844444444446,160.14722347259521L164.80622222222223,158.6885950088501L165.46400000000003,159.90827770233153L166.12177777777777,160.19455938339235L166.77955555555553,159.8960638999939L167.43733333333333,156.9226332426071L168.09511111111112,160.19816665649415L168.7528888888889,160.19708023071288L169.39093333333335,160.12917861938476L170.04871111111112,160.19981327056885L170.70648888888888,160.19865045547485L171.36426666666665,141.7515268802643L172.02204444444445,160.11400260925294L172.6798222222222,125.0982195854187L173.3376,159.83852577209473L173.99537777777778,160.1792221069336L174.65315555555557,160.19107942581178L175.31093333333334,159.91988887786866L175.9687111111111,112.03118257522583L176.62648888888887,160.1254992008209L177.28426666666667,160.18497676849364L177.9223111111111,159.92101774215698L178.5800888888889,160.1973009109497L179.2378666666667,160.183780002594L179.89564444444446,156.04474391937256L180.5534222222222,160.19010334014894L181.2112,160.16019268035888L181.8689777777778,149.81480503082275L182.52675555555555,160.10734825134278L183.18453333333335,160.19169054031372L183.84231111111112,158.4863118648529L184.5000888888889,160.1908842086792L185.15786666666668,157.28837890625L185.81564444444444,159.4903263092041L186.45368888888888,159.08077137470246L187.11146666666667,158.66519441604615L187.76924444444444,160.19981327056885L188.42702222222223,160.1980478286743L189.0848,159.39893498420716L189.7425777777778,151.0294545173645L190.40035555555554,160.15598278045655L191.05813333333333,160.19954166412353L191.7159111111111,149.10867071151733L192.3736888888889,160.1971990585327L193.03146666666666,159.8311913371086L193.68924444444445,160.19810724258423L194.34702222222222,139.83958089351654L194.98506666666665,160.18398370742798L195.64284444444442,14.675490379333496L196.30062222222222,160.18582553863524L196.95839999999998,160.18671674728392L197.61617777777778,159.76702537536622L198.27395555555557,160.19694442749022L198.93173333333334,155.70809197425842L199.58951111111114,159.25183648765088L200.24728888888887,160.1007087469101L200.90506666666667,160.19636726379395L201.56284444444444,160.1892503261566L202.22062222222223,160.19527235031128L202.8784,160.19648609161376L203.51644444444446,160.1971905708313L204.17422222222223,160.19665584564208L204.832,160.19823455810547L205.48977777777776,160.10282430648803L206.14755555555556,139.6062985420227L206.80533333333332,160.19775924682617L207.46311111111112,160.194898891449L208.12088888888889,160.19562034606935L208.77866666666668,160.14230909347535L209.43644444444445,160.1996774673462L210.09422222222221,160.03397207260133L210.75199999999998,160.13722496032716L211.40977777777778,160.18343200683594L212.04782222222224,160.19970717430115L212.7056,159.55862684249877L213.3633777777778,160.1944405555725L214.02115555555557,160.19584102630614L214.6789333333333,159.633518075943L215.3367111111111,160.19203853607178L215.9944888888889,159.9472532272339L216.65226666666666,160.19983024597167L217.31004444444446,160.19960956573487L217.96782222222222,160.19628238677979L218.62560000000002,160.1992530822754L219.2833777777778,160.17075986862181L219.94115555555555,160.18926305770873L220.5792,159.94302635192872L221.23697777777778,160.11915888786316L221.89475555555555,160.14813165664674L222.55253333333334,159.96800565719604L223.2103111111111,160.1984722137451L223.8680888888889,160.15512552261353L224.52586666666664,160.08852252960205L225.18364444444444,66.86159629821778L225.8414222222222,160.1803509712219L226.4992,160.17871284484863L227.15697777777777,159.79365978240966L227.81475555555556,158.32788467407227L228.47253333333333,160.19981327056885L229.11057777777776,152.24854307174684L229.76835555555553,160.1976149559021L230.42613333333333,160.199796295166L231.08391111111112,160.1006938934326L231.7416888888889,159.35014767646788L232.39946666666668,160.1989984512329L233.05724444444445,160.19147834777831L233.71502222222225,159.46210470199586L234.37279999999998,160.14108686447145L235.03057777777778,160.19594287872314L235.68835555555555,160.1943811416626L236.34613333333334,160.1985740661621L237.0039111111111,160.195654296875L237.64195555555557,158.1789297580719L238.29973333333334,160.19988117218017L238.9575111111111,160.15970039367676L239.61528888888887,160.17876377105713L240.27306666666667,160.19998302459717L240.93084444444443,159.39948714897037L241.58862222222223,160.19259872436524L242.2464,33.04554986953735L242.9041777777778,160.19991512298583L243.56195555555556,160.19605746269227L244.21973333333332,99.85019369125366L244.8775111111111,159.94833965301513L245.53528888888889,160.180393409729L246.17333333333335,110.21171646118164L246.8311111111111,160.17104845046998L247.4888888888889,158.53219743967057L248.14666666666668,160.19950771331787L248.8044444444444,145.61599218845367L249.4622222222222,159.93569297790526L250.12,158.4798994064331L250.77777777777777,160.1977168083191L251.43555555555557,160.17808475494385L252.09333333333333,160.1580431699753L252.75111111111113,160.19913425445557L253.4088888888889,160.19998302459717L254.06666666666666,160.1992021560669L254.7047111111111,160.08104062080383L255.3624888888889,160.19681711196898L256.02026666666666,160.19509410858154L256.6780444444444,160.199898147583L257.33582222222225,160.18901691436767L257.9936,160.19895601272583L258.6513777777778,160.19981327056885L259.30915555555555,160.19913425445557L259.9669333333333,160.19886264801025L260.6247111111111,160.1996774673462L261.2824888888889,160.16806926727295L261.9402666666667,160.19551000595092L262.59804444444444,160.19993209838867L263.2360888888889,160.19955863952637L263.89386666666667,160.19917669296265L264.55164444444443,159.16057274341583L265.2094222222222,160.17184629440308L265.8672,160.19998302459717L266.5249777777778,159.60974826812745L267.18275555555556,160.19993209838867L267.8405333333333,159.98151489496232L268.4983111111111,160.19849767684937L269.15608888888886,160.19901542663575L269.8138666666667,156.28994936943053L270.47164444444445,158.69126014709474L271.1294222222222,160.07083415985107L271.7674666666667,160.1622721672058L272.42524444444444,159.87859621047974L273.0830222222222,142.3243236541748L273.7408,160.1988796234131L274.39857777777775,160.2L275.05635555555557,160.16097354888916L275.71413333333334,160.1950771331787L276.3719111111111,154.5522749900818L277.02968888888887,160.19407558441162L277.6874666666667,160.0664545059204L278.3452444444444,160.1995331764221L279.0030222222222,160.19685955047606L279.6608,160.1998472213745L280.29884444444446,160.1983618736267L280.9566222222222,160.19367666244506L281.6144,160.19582405090333L282.2721777777778,160.19405860900878L282.9299555555556,159.4345790863037L283.58773333333335,160.1994228363037L284.2455111111111,160.1986122608185L284.9032888888889,160.197979927063L285.56106666666665,160.18989963531493L286.21884444444447,87.10613069534301L286.87662222222224,159.19311246871948L287.5344,159.6727949142456L288.1921777777778,160.19261569976806" style="fill: none;" fill="none"></path></g></g></g></g></g></g><g transform="translate(34, 178)" clip-path="url(#clip_1)"><clipPath id="clip_1"><rect width="296" height="22"></rect></clipPath><g><g><line x1="0" y1="0" x2="0" y2="5" style="visibility: inherit;" fill="rgb(0, 0, 0)" stroke="rgb(204, 204, 204)" stroke-width="1px"></line><line x1="32.888888888888886" y1="0" x2="32.888888888888886" y2="5" style="visibility: inherit;" fill="rgb(0, 0, 0)" stroke="rgb(204, 204, 204)" stroke-width="1px"></line><line x1="65.77777777777777" y1="0" x2="65.77777777777777" y2="5" style="visibility: inherit;" fill="rgb(0, 0, 0)" stroke="rgb(204, 204, 204)" stroke-width="1px"></line><line x1="98.66666666666666" y1="0" x2="98.66666666666666" y2="5" style="visibility: inherit;" fill="rgb(0, 0, 0)" stroke="rgb(204, 204, 204)" stroke-width="1px"></line><line x1="131.55555555555554" y1="0" x2="131.55555555555554" y2="5" style="visibility: inherit;" fill="rgb(0, 0, 0)" stroke="rgb(204, 204, 204)" stroke-width="1px"></line><line x1="164.44444444444446" y1="0" x2="164.44444444444446" y2="5" style="visibility: inherit;" fill="rgb(0, 0, 0)" stroke="rgb(204, 204, 204)" stroke-width="1px"></line><line x1="197.33333333333331" y1="0" x2="197.33333333333331" y2="5" style="visibility: inherit;" fill="rgb(0, 0, 0)" stroke="rgb(204, 204, 204)" stroke-width="1px"></line><line x1="230.22222222222223" y1="0" x2="230.22222222222223" y2="5" style="visibility: inherit;" fill="rgb(0, 0, 0)" stroke="rgb(204, 204, 204)" stroke-width="1px"></line><line x1="263.1111111111111" y1="0" x2="263.1111111111111" y2="5" style="visibility: inherit;" fill="rgb(0, 0, 0)" stroke="rgb(204, 204, 204)" stroke-width="1px"></line><line x1="296" y1="0" x2="296" y2="5" style="visibility: inherit;" fill="rgb(0, 0, 0)" stroke="rgb(204, 204, 204)" stroke-width="1px"></line></g><g transform="translate(0, 8)"><text x="0" y="0" dx="0em" dy="0.95em" style="text-anchor: middle; visibility: hidden; font-family: &quot;Helvetica Neue&quot;, sans-serif; font-size: 12px; font-weight: 200;" fill="rgb(50, 49, 63)" stroke="none" stroke-width="1px">-5k</text><text x="32.888888888888886" y="0" dx="0em" dy="0.95em" style="text-anchor: middle; visibility: inherit; font-family: &quot;Helvetica Neue&quot;, sans-serif; font-size: 12px; font-weight: 200;" fill="rgb(50, 49, 63)" stroke="none" stroke-width="1px">0</text><text x="65.77777777777777" y="0" dx="0em" dy="0.95em" style="text-anchor: middle; visibility: inherit; font-family: &quot;Helvetica Neue&quot;, sans-serif; font-size: 12px; font-weight: 200;" fill="rgb(50, 49, 63)" stroke="none" stroke-width="1px">5k</text><text x="98.66666666666666" y="0" dx="0em" dy="0.95em" style="text-anchor: middle; visibility: inherit; font-family: &quot;Helvetica Neue&quot;, sans-serif; font-size: 12px; font-weight: 200;" fill="rgb(50, 49, 63)" stroke="none" stroke-width="1px">10k</text><text x="131.55555555555554" y="0" dx="0em" dy="0.95em" style="text-anchor: middle; visibility: inherit; font-family: &quot;Helvetica Neue&quot;, sans-serif; font-size: 12px; font-weight: 200;" fill="rgb(50, 49, 63)" stroke="none" stroke-width="1px">15k</text><text x="164.44444444444446" y="0" dx="0em" dy="0.95em" style="text-anchor: middle; visibility: inherit; font-family: &quot;Helvetica Neue&quot;, sans-serif; font-size: 12px; font-weight: 200;" fill="rgb(50, 49, 63)" stroke="none" stroke-width="1px">20k</text><text x="197.33333333333331" y="0" dx="0em" dy="0.95em" style="text-anchor: middle; visibility: inherit; font-family: &quot;Helvetica Neue&quot;, sans-serif; font-size: 12px; font-weight: 200;" fill="rgb(50, 49, 63)" stroke="none" stroke-width="1px">25k</text><text x="230.22222222222223" y="0" dx="0em" dy="0.95em" style="text-anchor: middle; visibility: inherit; font-family: &quot;Helvetica Neue&quot;, sans-serif; font-size: 12px; font-weight: 200;" fill="rgb(50, 49, 63)" stroke="none" stroke-width="1px">30k</text><text x="263.1111111111111" y="0" dx="0em" dy="0.95em" style="text-anchor: middle; visibility: inherit; font-family: &quot;Helvetica Neue&quot;, sans-serif; font-size: 12px; font-weight: 200;" fill="rgb(50, 49, 63)" stroke="none" stroke-width="1px">35k</text><text x="296" y="0" dx="0em" dy="0.95em" style="text-anchor: middle; visibility: hidden; font-family: &quot;Helvetica Neue&quot;, sans-serif; font-size: 12px; font-weight: 200;" fill="rgb(50, 49, 63)" stroke="none" stroke-width="1px">40k</text></g><line x1="0" y1="0" x2="296" y2="0" fill="rgb(0, 0, 0)" stroke="rgb(204, 204, 204)" stroke-width="1px"></line></g></g></g></g></svg>